<svg xmlns="http://www.w3.org/2000/svg" width="557.174" height="377.424" viewBox="0 0 557.174 377.424"><g transform="translate(826.198 -2243.5)"><path d="M0,0H495.489V336.862H0Z" transform="translate(-826.111 2244)" fill="#fff"/><g transform="translate(-825.698 2244)"><rect width="278.358" height="57.273" transform="translate(191.902 58.966)" fill="none" stroke="#3f3d56" stroke-miterlimit="10" stroke-width="1"/><path d="M250.224,359.272c7.938-12.4,22.966-20.772,40.2-20.772,25.509,0,46.188,18.335,46.188,40.953,0,14.461-8.453,27.171-21.217,34.458" transform="translate(-208.965 -218.951)" fill="none" stroke="#3f3d56" stroke-miterlimit="10" stroke-width="1"/><rect width="278.358" height="57.273" transform="translate(173.665 70.051)" fill="#6f42c1"/><circle cx="4.311" cy="4.311" r="4.311" transform="translate(7.39 6.774)" fill="#6f42c1"/><circle cx="4.311" cy="4.311" r="4.311" transform="translate(22.17 6.774)" fill="#6f42c1"/><circle cx="4.311" cy="4.311" r="4.311" transform="translate(36.95 6.774)" fill="#6f42c1"/><rect width="494.873" height="336.246" fill="none" stroke="#3f3d56" stroke-miterlimit="10" stroke-width="1"/><line x2="494.873" transform="translate(0 18.681)" fill="none" stroke="#3f3d56" stroke-miterlimit="10" stroke-width="1"/><circle cx="4.311" cy="4.311" r="4.311" transform="translate(8.622 4.927)" fill="none" stroke="#3f3d56" stroke-miterlimit="10" stroke-width="1"/><circle cx="4.311" cy="4.311" r="4.311" transform="translate(23.402 4.927)" fill="none" stroke="#3f3d56" stroke-miterlimit="10" stroke-width="1"/><circle cx="4.311" cy="4.311" r="4.311" transform="translate(38.182 4.927)" fill="none" stroke="#3f3d56" stroke-miterlimit="10" stroke-width="1"/><line y2="318.043" transform="translate(156.121 18.681)" fill="none" stroke="#3f3d56" stroke-miterlimit="10" stroke-width="1"/><rect width="90.528" height="12.317" transform="translate(210.482 175.051)" fill="#f2f2f2"/><rect width="90.528" height="12.317" transform="translate(346.209 175.051)" fill="#f2f2f2"/><rect width="90.528" height="12.317" transform="translate(215.183 168.893)" fill="none" stroke="#3f3d56" stroke-miterlimit="10" stroke-width="1"/><rect width="90.528" height="12.317" transform="translate(210.482 270.506)" fill="#f2f2f2"/><rect width="90.528" height="12.317" transform="translate(215.183 264.348)" fill="none" stroke="#3f3d56" stroke-miterlimit="10" stroke-width="1"/><rect width="232.786" height="12.317" transform="translate(206.609 221.547)" fill="#f2f2f2"/><rect width="232.786" height="12.317" transform="translate(211.216 216.62)" fill="none" stroke="#3f3d56" stroke-miterlimit="10" stroke-width="1"/><rect width="90.528" height="12.317" transform="translate(350.909 168.893)" fill="none" stroke="#3f3d56" stroke-miterlimit="10" stroke-width="1"/><path d="M974.048,356.219a12.641,12.641,0,0,0,.74,1.936,32.617,32.617,0,0,1,.4,24.551,47.587,47.587,0,0,1,6.624.39,14.018,14.018,0,0,0,6.545-.721,6.645,6.645,0,0,0,4.138-5c.4-3.083-1.84-5.773-3.81-8.113-2.007-2.385-3.947-5.015-4.541-8.125-.653-3.419.276-7.427-1.883-10.091a2.087,2.087,0,0,0-.718-.612,8.244,8.244,0,0,0-5.348.144C974.4,351.591,973.607,354.264,974.048,356.219Z" transform="translate(-509.415 -223.391)" fill="#3f3d56"/><path d="M1062.425,709.55a15.535,15.535,0,0,1-.725,3.022s-2.238,5.15-11.441,3.761c-6.012-.908-5.971-3.726-4.975-5.907a14.071,14.071,0,0,1,1.641-2.555c.894-1.209.806-5.821,1.12-10.028s2.214-4.424,2.214-4.424l.113,4.736c3.583-4.7,6.09.806,6.09.806s5.1.106,4.473-2.506c-.664-2.783-1.655-7.188-1.655-7.188s2.466,1.144,2.912,1.95-.089,11.6-.492,12.625a7.348,7.348,0,0,0,.583,4.612A1.758,1.758,0,0,1,1062.425,709.55Z" transform="translate(-536.635 -353.703)" fill="#3f3d56"/><path d="M1063.875,691.993a5.018,5.018,0,0,1-3.508,4.781,6.758,6.758,0,0,1-5.9-.9,3.464,3.464,0,0,1-1.459-3.248l.142-1.19.516-4.338.709-5.977s7.626-3.884,7.118-2.418c-.191.548.231,3.014.835,5.888.43,2.055.951,4.317,1.41,6.235A4.959,4.959,0,0,1,1063.875,691.993Z" transform="translate(-539.785 -349.518)" fill="#fbbebe"/><path d="M1052.26,697.931s6.6-7.756,12.01.705l-.907,5.421h-11.1Z" transform="translate(-539.507 -355.784)" opacity="0.1"/><path d="M1052.26,698.8s6.6-7.756,12.01.705l-.907,5.421h-11.1Z" transform="translate(-539.507 -356.119)" fill="#3f3d56"/><circle cx="0.672" cy="0.672" r="0.672" transform="translate(520.664 346.125)" fill="#f2f2f2"/><circle cx="0.672" cy="0.672" r="0.672" transform="translate(512.079 345.048)" fill="#f2f2f2"/><circle cx="0.672" cy="0.672" r="0.672" transform="translate(518.348 350.676)" fill="#f2f2f2"/><circle cx="0.672" cy="0.672" r="0.672" transform="translate(512.485 349.887)" fill="#f2f2f2"/><circle cx="0.672" cy="0.672" r="0.672" transform="translate(519.647 348.544)" fill="#f2f2f2"/><circle cx="0.672" cy="0.672" r="0.672" transform="translate(512.079 347.468)" fill="#f2f2f2"/><circle cx="0.672" cy="0.672" r="0.672" transform="translate(517.677 353.174)" fill="#f2f2f2"/><circle cx="0.672" cy="0.672" r="0.672" transform="translate(512.485 352.306)" fill="#f2f2f2"/><path d="M972.409,725.1l-9.133,3.089s-4.835-4.835-3.492-6.313c.572-.631,1.072-2.727,1.453-4.924.124-.693.234-1.4.33-2.071.317-2.184.5-4.019.5-4.019s10.611-5.1,8.865,0a12.57,12.57,0,0,0-.5,4.464A29.626,29.626,0,0,0,971,719.8,42.571,42.571,0,0,0,972.409,725.1Z" transform="translate(-503.891 -361.129)" fill="#fbbebe"/><path d="M972.409,730.316l-9.133,3.089s-4.835-4.835-3.492-6.313c.572-.631,1.072-2.727,1.453-4.924a9.546,9.546,0,0,1,1.066,2.976c7.889,4.333,8.024,1.746,8.024,1.746a4.8,4.8,0,0,1,.669-1.878,42.58,42.58,0,0,0,1.413,5.3Z" transform="translate(-503.891 -366.342)" opacity="0.1"/><path d="M964.447,737.053s-1.58,1.174-6.211,1.343a24.411,24.411,0,0,0-3.612.407,45.133,45.133,0,0,1-14.816.4,32.114,32.114,0,0,1-3.768-.74c-4.768-1.311-1.142-4.33-1.142-4.33s.228-.2.623-.5a13.017,13.017,0,0,1,5.254-2.493c2.987-.47,5.74-5.775,5.74-5.775l1.88-3.393c2.92-2.517,3.93,3.393,3.93,3.393,7.889,4.333,8.024,1.746,8.024,1.746.438-2.318,1.244-2.318,1.244-2.318s1.966,5.295,2.678,6.616a1.307,1.307,0,0,0,.175.269C964.917,732.15,964.447,737.053,964.447,737.053Z" transform="translate(-493.914 -366.029)" fill="#3f3d56"/><circle cx="0.672" cy="0.672" r="0.672" transform="translate(457.706 360.884)" fill="#f2f2f2"/><circle cx="0.672" cy="0.672" r="0.672" transform="translate(453.86 362.764)" fill="#f2f2f2"/><circle cx="0.672" cy="0.672" r="0.672" transform="translate(455.927 361.801)" fill="#f2f2f2"/><circle cx="0.672" cy="0.672" r="0.672" transform="translate(451.696 363.873)" fill="#f2f2f2"/><path d="M972.192,710.865a12.569,12.569,0,0,0-.5,4.465c-2.383-.8-6.286-.661-8.862-.446.317-2.184.5-4.019.5-4.019S973.938,705.761,972.192,710.865Z" transform="translate(-505.151 -361.129)" opacity="0.1"/><path d="M1062.746,684.593c-3.3,3.237-6.458,3.438-8.663,2.506l.709-5.977s7.626-3.884,7.119-2.418C1061.724,679.253,1062.142,681.718,1062.746,684.593Z" transform="translate(-540.208 -349.518)" opacity="0.1"/><path d="M965.518,509.451s-5.239,2.955-6.179,8.73-2.552,13.162-3.761,14.506-4.969,5.641-3.492,7.924,1.746,10.073,1.746,10.073-.537,6.984.94,9.267,2.686,16.789-.537,21.087c0,0-1.074,9.939-.672,10.879s-1.746,3.358-1.075,5.372,3.9,39.084,3.492,40.562c0,0,10.208-1.477,12.894.94a26.458,26.458,0,0,0,0-6.85c-.537-2.82.4-13.968,1.612-16.789s1.477-13.565,1.074-14.64c0,0,2.149-9.536,1.343-11.416s3.492-19.206,3.492-19.206,2.149-4.164,1.612-4.7c0,0,3.492-2.283,3.089-4.029s3.223-3.761,3.223-3.761,3.223,7.924,4.3,9.133,1.117,9,2.439,10.611,3.068,10.073,4.814,12.357,8.73,8.327,9.8,15.177c0,0,6.313,9.8,6.044,12.894s7.118,8.73,14.237-1.746a9.308,9.308,0,0,1-3.761-7.656c0-5.238-5.641-22.027-5.641-22.027s-3.223-4.7-2.015-6.984.134-9,.134-9l2.552-4.164s.4-4.029.806-8.193-2.418-8.73-1.074-10.745-.537-12.081-.537-12.081-1.672-17.351-4.164-18.408S965.518,509.451,965.518,509.451Z" transform="translate(-500.894 -284.624)" fill="#3f3d56"/><path d="M982.559,443.835s-2.759.314-6.108.631c-4.846.457-10.93.919-11.656.443-1.225-.806,0-11.013,0-11.013s.422-11.148.019-18.938c-.328-6.321,3.857-10.962,5.445-12.488.371-.355.6-.54.6-.54L972.2,403l7.656,13.028Z" transform="translate(-505.697 -243.318)" fill="#fbbebe"/><path d="M1023.916,386.681l-7.521,4.567-12.357,9.4s-12.759-6.715-9.536-10.611a6.04,6.04,0,0,0,1.179-2.635c.97-4.486-1.179-10.93-1.179-10.93s16.81-22.7,15.849-5.1c-.387,7.07,1.727,10.93,4.395,13.02C1018.718,387.5,1023.916,386.681,1023.916,386.681Z" transform="translate(-517.118 -229.01)" fill="#fbbebe"/><path d="M1023.916,386.681l-7.521,4.567-12.357,9.4s-12.759-6.715-9.536-10.611a6.04,6.04,0,0,0,1.179-2.635c.97-4.486-1.179-10.93-1.179-10.93s16.81-22.7,15.849-5.1c-.387,7.07,1.727,10.93,4.395,13.02C1018.718,387.5,1023.916,386.681,1023.916,386.681Z" transform="translate(-517.118 -229.01)" opacity="0.1"/><ellipse cx="15.555" cy="16.48" rx="15.555" ry="16.48" transform="translate(468.165 121.005)" opacity="0.1"/><ellipse cx="15.555" cy="16.48" rx="15.555" ry="16.48" transform="translate(468.165 120.468)" fill="#fbbebe"/><path d="M1023.916,398.975l-7.521,4.567-12.357,9.4s-12.759-6.716-9.536-10.611a6.04,6.04,0,0,0,1.179-2.635c14.076,12.034,18.352-.422,19.064-3.014C1018.718,399.794,1023.916,398.975,1023.916,398.975Z" transform="translate(-517.118 -241.303)" opacity="0.1"/><path d="M986.067,443.835s-2.759.314-6.108.631c-.132-2.89-.57-6.159-.489-8.153.134-3.358.134-3.761-.94-5.641s-.94-3.358-.806-5.775c.129-2.316-.484-2.783-2.662-6.482l-.293-.5c-1.069-1.843-1.375-5.176-1.386-8.325a.077.077,0,0,0,0-.035c0-.749.011-1.488.037-2.192,0-.03,0-.059,0-.089.078-2.128.253-3.941.344-4.8.371-.355.6-.54.6-.54L975.709,403l7.656,13.028Z" transform="translate(-509.206 -243.318)" opacity="0.1"/><path d="M1023.789,400.607c-.011-.005,1.622,1.229,1.611,1.226-4.862-2.1-7.621,8.47-8.359,11.8-.137.612-.2.978-.2.978s.086.892.193,2.31c.363,4.749.986,15.384-.462,17.971a4.01,4.01,0,0,0-.347.862,18.166,18.166,0,0,0-.167,6.227,62.368,62.368,0,0,0,1.185,7.014s3.223,8.193,1.88,13.565a19.929,19.929,0,0,0-.392,6.092,36.036,36.036,0,0,0,.852,5.558c.126.535.212.841.212.841q-3.038,1.039-5.939,1.725a57.611,57.611,0,0,1-11.486,1.555,51,51,0,0,1-33.11-10.5c-.226-.188-.395-.336-.5-.438-1.88-1.746,1.746-3.089,1.343-4.3s1.837-3.9,1.837-3.9-.494-4.432,1.52-5.372,3.492-4.164,4.628-6.85-.2-9.67-.062-13.028.134-3.761-.94-5.641-.94-3.358-.806-5.775c.129-2.316-.484-2.783-2.662-6.482l-.293-.5c-1.069-1.843.6-5.017.586-8.165,0-.011.619.011.616,0,0-.749-1.259-1.76-1.232-2.463,0-.03-.616-.586-.616-.616a19.952,19.952,0,0,0-.295-4.739c10.745-5.507,13.3.231,13.3.231,15.714,13.525,19.282-3.377,19.282-3.377,8.553-2.923,19.8,4.951,20.445,5.407Z" transform="translate(-507.218 -240.952)" fill="#fd7e14"/><path d="M964.7,467.045s-1.344,7.173,2.544,11.175a4.372,4.372,0,0,0,5.058.869,6.851,6.851,0,0,0,3.278-2.786C976.645,473.921,973.294,462.276,964.7,467.045Z" transform="translate(-505.783 -267.897)" fill="#fbbebe"/><path d="M1046.514,448.079a4.014,4.014,0,0,0-.347.862l.615-15.7.193-3.129C1047.339,434.857,1047.961,445.492,1046.514,448.079Z" transform="translate(-537.167 -254.143)" opacity="0.1"/><path d="M1037.488,491.38a19.931,19.931,0,0,0-.392,6.092c-.87,1.577-1.614,2.915-2.1,3.785l-.6,1.069a25.371,25.371,0,0,0-2.179,3.269,6.323,6.323,0,0,0-.911,2.657c0,2.066-2.082,15.833-11.954,12.408-6.375-2.211-2.3-8.985,1.378-13.509a50.591,50.591,0,0,1,3.927-4.287s1.139-1.451,2.232-2.968a18.03,18.03,0,0,0,1.932-3.076c.47-1.343,3.57-7.253,3.57-7.253s3.078-6.514,2.407-9.536a58.125,58.125,0,0,1-.379-9.23,62.4,62.4,0,0,0,1.185,7.014S1038.83,486.007,1037.488,491.38Z" transform="translate(-525.585 -269.776)" opacity="0.1"/><path d="M1043.63,405.547s4.835,3.358,4.7,12.088-1.746,23.84-1.746,23.84l-1.007,9.4s-1.276,3.828-1.074,4.969-10.548,20.281-10.548,20.281-3.089,3.862-3.089,5.927-2.082,15.831-11.954,12.406,5.305-17.8,5.305-17.8,3.693-4.7,4.164-6.044,3.573-7.253,3.573-7.253,3.077-6.514,2.406-9.536-.269-13.994-.269-13.994l.672-17.166.269-4.365S1037.514,403.8,1043.63,405.547Z" transform="translate(-525.415 -244.652)" fill="#fbbebe"/><path d="M977.133,455.883l7.329-2.662a3.469,3.469,0,0,1,3.566.739l9.727,9.186s.537,1.474-.179,1.409-11.193-10.542-11.193-10.542L976,457.5h0a1.725,1.725,0,0,1,1.136-1.622Z" transform="translate(-510.21 -262.942)" fill="#6f42c1"/><path d="M944.447,324.954l10.073-3.65-11.192-10.542-10.387,3.492Z" transform="translate(-467.154 -119.692)" fill="#4b4b5b"/><circle cx="0.895" cy="0.895" r="0.895" transform="translate(461.265 233.647)" fill="#f2f2f2"/><circle cx="0.895" cy="0.895" r="0.895" transform="translate(455.176 245.152)" fill="#f2f2f2"/><circle cx="0.895" cy="0.895" r="0.895" transform="translate(503.816 249.335)" fill="#f2f2f2"/><circle cx="0.895" cy="0.895" r="0.895" transform="translate(508.88 265.588)" fill="#f2f2f2"/><circle cx="0.895" cy="0.895" r="0.895" transform="translate(506.91 261.014)" fill="#f2f2f2"/><circle cx="0.895" cy="0.895" r="0.895" transform="translate(505.196 255.174)" fill="#f2f2f2"/><circle cx="0.895" cy="0.895" r="0.895" transform="translate(458.019 239.093)" fill="#f2f2f2"/><circle cx="0.895" cy="0.895" r="0.895" transform="translate(451.625 251.126)" fill="#f2f2f2"/><path d="M1027.725,401.825l0,.008c-4.862-2.1-7.621,8.47-8.359,11.8l-7.637-10.93s-3.132,5.012-13.251,5.775-12.58-7.7-12.58-7.7c-1.389-.107-7.677,11.212-9.96,15.276l-.293-.5c-1.069-1.843-1.375-5.176-1.386-8.325a.077.077,0,0,0,0-.035c.008-.731.021-1.464.038-2.192,0-.03,0-.059,0-.089.11-2.982.406-5.343.406-5.343,10.745-5.507,13.3.231,13.3.231,15.714,13.525,19.282-3.377,19.282-3.377C1015.834,393.5,1027.085,401.369,1027.725,401.825Z" transform="translate(-509.541 -240.952)" fill="#fd7e14"/><path d="M964.293,565.065c.134.336,11.416,13.364,15.58,14.035S964.293,565.065,964.293,565.065Z" transform="translate(-505.714 -305.989)" opacity="0.1"/><path d="M975.223,532.617s.115,9.186-2.706,11.26S975.223,532.617,975.223,532.617Z" transform="translate(-508.565 -293.524)" opacity="0.1"/><path d="M985.259,537.913s-.269,10.812,3.761,13.364C989.02,551.277,981.633,544.091,985.259,537.913Z" transform="translate(-513.383 -295.558)" opacity="0.1"/><path d="M971.669,628.095s-7.521,5.574-9.6,5.977S971.669,628.095,971.669,628.095Z" transform="translate(-504.763 -330.203)" opacity="0.1"/><path d="M974.167,339.715c-1.62,1.365-1.037,4.2.619,5.523s3.919,1.526,6.038,1.58c4.077.105,8.221-.131,12.174.872a9.87,9.87,0,0,1,4.67,2.392,10.51,10.51,0,0,1,2.427,4.828,26.442,26.442,0,0,1,.83,8.094,28.076,28.076,0,0,0-.12,5.489,17.553,17.553,0,0,0,1.713,4.883,202.876,202.876,0,0,0,10.375,19.247,3.582,3.582,0,0,0,1.352,1.479c.97.468,2.11-.006,3.079-.477a23.119,23.119,0,0,1-.95-5.832,2.607,2.607,0,0,0,2.756-.963,7.648,7.648,0,0,0,1.255-2.822l1.807-6.227c.559-1.926,1.388-4.136,3.311-4.7a11.989,11.989,0,0,0,2.031-.473,2.6,2.6,0,0,0,1.255-2.562,5.534,5.534,0,0,0-1.213-2.735c-2.719-3.658-7.253-5.828-9.375-9.861-1.823-3.464-1.506-7.632-.9-11.5s1.438-7.844.513-11.647a15.432,15.432,0,0,0-5.989-8.58,24.159,24.159,0,0,0-9.8-4.028,9.781,9.781,0,0,0-4.951.034c-1.221.413-2.267,1.227-3.459,1.718-2.708,1.115-5.83.449-8.671,1.159a11.66,11.66,0,0,0-6.413,4.634,24.6,24.6,0,0,0-3.358,7.3c-.523,1.708.316,2.391-1.21,3.32" transform="translate(-509.138 -212.378)" opacity="0.1"/><path d="M974.6,338.843c-1.62,1.365-1.037,4.2.619,5.523s3.919,1.526,6.038,1.58c4.077.105,8.221-.131,12.174.872a9.87,9.87,0,0,1,4.67,2.392,10.509,10.509,0,0,1,2.427,4.828,26.44,26.44,0,0,1,.83,8.094,28.081,28.081,0,0,0-.12,5.489,17.553,17.553,0,0,0,1.713,4.883,202.9,202.9,0,0,0,10.375,19.247,3.582,3.582,0,0,0,1.352,1.479c.97.468,2.11-.006,3.079-.477a23.122,23.122,0,0,1-.95-5.832,2.607,2.607,0,0,0,2.756-.963,7.646,7.646,0,0,0,1.255-2.822l1.807-6.227c.559-1.926,1.388-4.136,3.311-4.7a12,12,0,0,0,2.031-.473,2.6,2.6,0,0,0,1.254-2.562,5.533,5.533,0,0,0-1.213-2.735c-2.719-3.658-7.253-5.828-9.375-9.861-1.823-3.464-1.506-7.632-.9-11.5s1.438-7.844.513-11.647a15.433,15.433,0,0,0-5.989-8.58,24.16,24.16,0,0,0-9.8-4.028,9.781,9.781,0,0,0-4.951.034c-1.221.413-2.267,1.227-3.459,1.718-2.708,1.115-5.83.449-8.671,1.159a11.66,11.66,0,0,0-6.413,4.634,24.6,24.6,0,0,0-3.358,7.3c-.523,1.708.316,2.391-1.21,3.32" transform="translate(-509.306 -212.043)" fill="#3f3d56"/><path d="M972.471,466.114s12.289-8.193,15.781-3.156-10.812,11.215-10.812,11.215Z" transform="translate(-508.855 -266.134)" fill="#fbbebe"/><path d="M978.6,400.882c-.045.79-.2,1.758-.636,1.9,1.147-.027,2.277.816,3.415.564a3.481,3.481,0,0,0,2.156-2.223,1.036,1.036,0,0,1,.289-.474c.12-.07.249,0,.369.07a35.855,35.855,0,0,1,6.182,4.667c.63.586,1.328,1.222,2.018.915a15.411,15.411,0,0,0-1.319-6.463,8.258,8.258,0,0,0-3.521-3.852,10.783,10.783,0,0,0-4.14-1.077,4.148,4.148,0,0,1-1.784-.444c-.611-.359-2.56-2.688-3-.992a18.623,18.623,0,0,0,.067,3.469C978.7,398.259,978.672,399.574,978.6,400.882Z" transform="translate(-510.964 -239.835)" fill="#3f3d56"/><g transform="translate(464.416 115.098)" opacity="0.1"><path d="M1015.881,403.166a3.583,3.583,0,0,1-1.352-1.479,202.9,202.9,0,0,1-10.375-19.247,17.553,17.553,0,0,1-1.713-4.883,28.081,28.081,0,0,1,.12-5.489,26.44,26.44,0,0,0-.83-8.094,10.512,10.512,0,0,0-2.427-4.828,9.87,9.87,0,0,0-4.67-2.392c-3.953-1-8.1-.766-12.174-.872-2.118-.055-4.382-.258-6.038-1.58a4.172,4.172,0,0,1-1.379-4.425,2.667,2.667,0,0,1-.343.274c-1.581,1.376-1,4.18.648,5.494s3.919,1.526,6.038,1.58c4.077.105,8.221-.131,12.174.872a9.869,9.869,0,0,1,4.67,2.392,10.509,10.509,0,0,1,2.427,4.828,26.444,26.444,0,0,1,.83,8.094,28.072,28.072,0,0,0-.12,5.489,17.549,17.549,0,0,0,1.713,4.883,202.875,202.875,0,0,0,10.375,19.247,3.583,3.583,0,0,0,1.352,1.479c.97.468,2.11-.006,3.079-.477-.081-.27-.155-.542-.225-.815A2.454,2.454,0,0,1,1015.881,403.166Z" transform="translate(-973.77 -338.419)"/><path d="M974.989,350.42c.065-.04.12-.078.177-.117.01-.009.019-.02.029-.029Z" transform="translate(-974.238 -338.572)"/><path d="M976.831,341.66c-.057.039-.112.077-.177.117l.206-.146c-.011.009-.019.02-.029.029,1.274-.871.532-1.568,1.033-3.2a24.848,24.848,0,0,1,3.278-7.185,14.26,14.26,0,0,0-.994,1.224,24.6,24.6,0,0,0-3.358,7.3,11.429,11.429,0,0,0-.263,2.177A2.572,2.572,0,0,1,976.831,341.66Z" transform="translate(-974.829 -331.272)"/><path d="M1061.062,401.487a12,12,0,0,1-2.031.473,3.917,3.917,0,0,0-2.247,1.984,3.227,3.227,0,0,1,1.172-.641,11.987,11.987,0,0,0,2.031-.473,2.29,2.29,0,0,0,1.113-1.365Z" transform="translate(-1005.661 -358.238)"/><path d="M1045.61,425.882q.023.7.09,1.394a3.025,3.025,0,0,0,1.592-1.014,4.489,4.489,0,0,0,.534-.831A2.394,2.394,0,0,1,1045.61,425.882Z" transform="translate(-1001.368 -367.445)"/></g><path d="M967.644,465.845s3.241-1.312,5.144-1.02" transform="translate(-507.001 -267.464)" opacity="0.1"/><path d="M982.816,490.477s1.645,2.552,9.96,3.626S982.816,490.477,982.816,490.477Z" transform="translate(-512.83 -277.335)" opacity="0.1"/><path d="M977.96,505.962s7.479,6.581,19.476,4.164S977.96,505.962,977.96,505.962Z" transform="translate(-510.964 -283.284)" opacity="0.1"/><line y1="19.091" x2="123.166" transform="translate(433.432 357.339)" fill="none" stroke="#3f3d56" stroke-miterlimit="10" stroke-width="1"/><path d="M224.367,393.636c0,16.093,10.573,30,25.9,36.59l-21.925-53.136A36.572,36.572,0,0,0,224.367,393.636Zm76.991-2.052c0-5.025-2.04-8.5-3.79-11.213-2.33-3.349-4.513-6.185-4.513-9.534a7.479,7.479,0,0,1,7.717-7.216c.2,0,.4.022.6.032a49.251,49.251,0,0,0-31.039-10.673c-16.057,0-30.184,7.287-38.4,18.325,1.078.029,2.1.048,2.958.048,4.808,0,12.249-.516,12.249-.516a1.69,1.69,0,1,1,.3,3.349s-2.491.259-5.261.388l16.738,44.037,10.059-26.683L261.8,374.575c-2.475-.128-4.82-.388-4.82-.388a1.689,1.689,0,1,1,.29-3.349s7.59.516,12.107.516c4.807,0,12.249-.516,12.249-.516a1.69,1.69,0,1,1,.295,3.349s-2.5.259-5.261.388l16.61,43.7,4.584-13.551c1.988-5.623,3.5-9.662,3.5-13.143Z" transform="translate(-199.032 -224.514)" fill="#6f42c1"/><path d="M291.708,410.387l-13.79,35.445a51.7,51.7,0,0,0,28.247-.648,3.318,3.318,0,0,1-.327-.56Zm39.524-23.062a27.657,27.657,0,0,1,.31,4.181,34.577,34.577,0,0,1-3.495,14.562l-14.04,35.9c13.664-7.048,22.855-20.143,22.855-35.142a36.816,36.816,0,0,0-5.631-19.505Z" transform="translate(-219.604 -237.708)" fill="#6f42c1"/></g></g></svg>