<svg xmlns="http://www.w3.org/2000/svg" xmlns:xlink="http://www.w3.org/1999/xlink" width="421.128" height="438" viewBox="0 0 421.128 438"><defs><style>.a,.c,.j{fill:#6f42c1;}.b{opacity:0.25;}.c,.e,.o,.r{opacity:0.1;}.d{fill:#c8cad7;}.f{fill:#474157;}.g{fill:#f8f9fa;}.h{fill:#fff;}.i{fill:#ededf4;}.j{opacity:0.2;}.k{fill:url(#a);}.l{fill:#a1616a;}.m{fill:#fd7e14;}.n{fill:#605d82;}.o{fill:#152a49;}.p{fill:#5a5773;}.q{fill:#4a4347;}</style><linearGradient id="a" x1="0.5" y1="1" x2="0.5" gradientUnits="objectBoundingBox"><stop offset="0" stop-color="gray" stop-opacity="0.251"/><stop offset="0.54" stop-color="gray" stop-opacity="0.122"/><stop offset="1" stop-color="gray" stop-opacity="0.102"/></linearGradient></defs><g transform="translate(-163.889 -1144)"><path class="a" d="M148.7,205.585c-4.556,4.57-26.025,9.558-26.025,9.558s4.941-21.482,9.464-26.045a11.675,11.675,0,1,1,16.534,16.487Z" transform="translate(44.19 1115.485)"/><path class="a" d="M150.571,235.578c-3.718,5.266-24.037,13.817-24.037,13.817s1.237-22.01,4.955-27.275a11.676,11.676,0,1,1,19.083,13.459Z" transform="translate(46.298 1132.694)"/><path class="b" d="M148.7,205.585c-4.556,4.57-26.025,9.558-26.025,9.558s4.941-21.482,9.464-26.045a11.675,11.675,0,1,1,16.534,16.487Z" transform="translate(44.19 1115.485)"/><path class="b" d="M150.571,235.578c-3.718,5.266-24.037,13.817-24.037,13.817s1.237-22.01,4.955-27.275a11.676,11.676,0,1,1,19.083,13.459Z" transform="translate(46.298 1132.694)"/><ellipse class="c" cx="120.998" cy="7.179" rx="120.998" ry="7.179" transform="translate(262.242 1537.17)"/><ellipse class="c" cx="31.676" cy="5.766" rx="31.676" ry="5.766" transform="translate(474.023 1570.468)"/><path class="d" d="M343.867,361.994v4.333H215.69V362.8a42.133,42.133,0,0,0,2.9-77.817H343.022a42.16,42.16,0,0,0,.845,77.013Z" transform="translate(94.999 1169.734)"/><path class="e" d="M342,284.986A42.2,42.2,0,0,0,318.7,312.923H240.859a42.2,42.2,0,0,0-23.294-27.938Z" transform="translate(96.023 1169.737)"/><path class="d" d="M120.75,270.7v24.335c0,13.438,9.835,24.335,21.969,24.335h377.19c12.134,0,21.969-10.9,21.969-24.335V270.7Z" transform="translate(43.139 1161.935)"/><path class="e" d="M343.867,336.361v4.333H215.69v-3.528a42.045,42.045,0,0,0,9.883-5.259H336.026A42.231,42.231,0,0,0,343.867,336.361Z" transform="translate(94.999 1195.367)"/><rect class="d" width="212.93" height="12.843" rx="4.153" transform="translate(268.326 1528.626)"/><path class="f" d="M541.878,106a21.969,21.969,0,0,0-21.969-21.969H142.719A21.969,21.969,0,0,0,120.75,106V377.4H541.878Z" transform="translate(43.139 1059.968)"/><path class="g" d="M6.995,0H391.15a7,7,0,0,1,6.995,6.995v240.85a7,7,0,0,1-6.995,6.995H6.995A7,7,0,0,1,0,247.845V6.995A7,7,0,0,1,6.995,0Z" transform="translate(175.38 1164.955)"/><circle class="h" cx="12.505" cy="12.505" r="12.505" transform="translate(361.948 1445.482)"/><path class="d" d="M45.239,27.815V23.995A7,7,0,0,1,52.233,17H436.212q.391,0,.785.026a7,7,0,0,1,6.388,6.969v3.821Z" transform="translate(130.142 1146.955)"/><circle class="i" cx="2.704" cy="2.704" r="2.704" transform="translate(183.492 1166.659)"/><circle class="i" cx="2.704" cy="2.704" r="2.704" transform="translate(191.604 1166.659)"/><circle class="i" cx="2.704" cy="2.704" r="2.704" transform="translate(199.715 1166.659)"/><rect class="a" width="102.071" height="6.084" transform="translate(190.252 1184.896)"/><rect class="a" width="102.071" height="6.084" transform="translate(190.252 1362.676)"/><rect class="j" width="189.271" height="6.084" transform="translate(190.252 1376.195)"/><rect class="j" width="189.271" height="6.084" transform="translate(190.252 1384.989)"/><rect class="j" width="189.271" height="6.084" transform="translate(190.252 1393.777)"/><rect class="j" width="187.919" height="102.071" transform="translate(190.252 1201.119)"/><rect class="j" width="43.938" height="40.558" transform="translate(192.28 1312.654)"/><rect class="j" width="43.938" height="40.558" transform="translate(334.233 1312.654)"/><rect class="j" width="43.938" height="40.558" transform="translate(262.242 1312.654)"/><rect class="j" width="129.333" height="95.197" transform="translate(418.283 1230.808)"/><rect class="i" width="102.071" height="6.084" transform="translate(431.91 1250.127)"/><rect class="i" width="102.071" height="6.084" transform="translate(431.91 1262.747)"/><rect class="i" width="102.071" height="6.084" transform="translate(431.91 1275.368)"/><rect class="i" width="102.071" height="6.084" transform="translate(431.91 1287.981)"/><rect class="i" width="102.071" height="6.084" transform="translate(431.91 1300.601)"/><rect class="a" width="97.792" height="17.122" transform="translate(434.053 1336.82)"/><rect class="a" width="65.576" height="11.485" transform="translate(428.828 1393.871)"/><path class="k" d="M425.006,321.441c-.811-.581-1.149-1.981-1.271-3.38,0-.318-.047-.629-.061-.926a3.38,3.38,0,0,0,.94-.852c1.6-2.271-2.224-10.511-2.224-10.511s1.48-4.3,0-8-2.156-4.421-2.156-4.421-5-10.275-4.259-11.491-1.237-10.815-2.7-12.742a28.085,28.085,0,0,0-1.974-2.393,13.916,13.916,0,0,0-1.852-7.436c-2.1-3.258-4.441-12.3-4.441-12.3s-2.589-8.483-4.441-11.491a12.847,12.847,0,0,0-2.7-2.778c.291-1.352.96-3.143-.96-13.742-.784-4.353.439-6.949,1.447-11.255s.791-9.288-2.3-12.539-7.882-3.86-11.715-6.084c-3.38-1.954-6.388-5.259-10.335-5.2-2.9.047-2.893.5-5.563,1.589-4.617,1.879-9.808,1.311-14.5,2.866-4.218,1.4-9.578,6-8.3,10.87a5.341,5.341,0,0,0,1.555,2.893,3.5,3.5,0,0,0,3.278.588.427.427,0,0,1-.047.237,12.479,12.479,0,0,0-.162,2.028,13.355,13.355,0,0,0,13.472,13.141c.041.155.074.318.115.48.1.433.2.865.291,1.311-.352.466-.717.933-1.061,1.4a13.576,13.576,0,0,0-2.028,3.6c-3.907.8-10.457,2.089-11.491,3.779-1.352,2.271-6.908,13.519-6.293,18.636.034.284.061.676.088,1.082,0,0-3.42,6.084-3.914,8s-1.6,9.078-3.7,10.748-6.415,7.05-5.8,8.112-5.8,2.386-5.8,2.386-4.313,1.67-4.056,2.988c.074.4-.23.777-.676,1.142-4.908-1.616-11.16-2.7-16.007-.243-6.76,3.427,5.1,5.786,12.167,6.82,1.163.176,2.19.311,2.988.406.054.23.277.433.845.629.446.155,1.109.4,1.879.676l.284-.879c2.346.831,8.747,3.42,8.747,3.42s5.556.906,7.159-2.319a29.24,29.24,0,0,1,4.529-5.408l-.223.723-4.678,15.432s-7.4,11.491-7.03,13.972-2.346,8.842-2.961,9.464-6.76,18.751-10,19.948-7.53,5.374-6.084,6.692,7.436,5.611,10.14,4.177,7.436,1.2,7.436,1.2,5.178-.852,9.4,1.176c.047.466.1.973.155,1.507.439,4.056,1.156,9.66,1.92,11.289,1.237,2.63,2.346,7.287,1.352,9.078s.865,35.955,2.7,41.809c1.447,4.583,3.427,11.958,3.089,16.771-.2,2.927-.324,5.854-.345,8.788v.487c0,.162-.115.257-.169.392v.264a24.272,24.272,0,0,0-1.075,3.116s-3.184,8-2.109,10.092a1.871,1.871,0,0,0,.507.588c1.534,1.23,5.408,1.494,6.76,1.548l-.061,2.028h1.818s.047-2.028.169-4.556a12.438,12.438,0,0,0,.784-4.448,18.19,18.19,0,0,1,1.622-7.686s.041-.21.081-.548h0a13.558,13.558,0,0,0,.115-2.1,7.436,7.436,0,0,0-.676-3.576,8.049,8.049,0,0,1,.135-2.183c.493-1.791-.744-14.331-.744-14.331l2.1-23.057s1.237-17.8.744-22.456a14.8,14.8,0,0,1,.088-3.745,120.867,120.867,0,0,0,1.352-15.29V360c4.488,1.541,12.1.277,12.1.277s1.771-.04,4.123,0c.061.487.128.967.2,1.433a26.777,26.777,0,0,0,1.224,5.685c1.23,2.63,2.346,7.287,1.352,9.078s.858,35.955,2.7,41.809c1.453,4.583,3.434,11.951,3.1,16.771-.2,2.92-.324,5.847-.345,8.788v.541c-.061.128-.122.257-.176.392s0,.183,0,.264a24.635,24.635,0,0,0-1.021,3.13s-3.19,8.01-2.109,10.1a1.777,1.777,0,0,0,.507.581c1.535,1.237,5.408,1.494,6.76,1.548l-.061,2.028h1.818s.047-2.028.169-4.556a12.437,12.437,0,0,0,.784-4.448,18.251,18.251,0,0,1,1.6-7.686,14.025,14.025,0,0,0,.2-2.636,7.394,7.394,0,0,0-.71-3.6,8.311,8.311,0,0,1,.135-2.177c.493-1.791-.737-14.337-.737-14.337l2.1-23.05s1.237-17.8.737-22.456a15.1,15.1,0,0,1,.095-3.745,120.494,120.494,0,0,0,1.352-14.526c0-.487,0-.967,0-1.453.446-.547,1.352-.98,3.853-1.818,4.319-1.433,12.958-8.605,16.413-9.078s6.537-2.751,5.55-4.542-6.415-2.988-5.922-5.732-3.332-4.421-5.056-8.957-9.261-8.112-9.382-11.491-7.111-13.709-7.111-13.709-7.023-11.681-8.578-18.819a2.514,2.514,0,0,0-.088-.46h.088a12.932,12.932,0,0,1-.257-1.622,2.515,2.515,0,0,1,.061-.46h-.095v-.3a1.1,1.1,0,0,1,.149-.095l.406-.237-.135.054a13.382,13.382,0,0,0,2.237-1.825,9.937,9.937,0,0,0,2.576-3.6,18.25,18.25,0,0,0,1.007-4.732l.879-1.352c.852,3.562,2.1,8.673,2.488,9.815a99.594,99.594,0,0,1,4.448,14.844,50.421,50.421,0,0,0,5.408,13.979s6.293,8.24,11.106,8.6,2.1,1.67,2.839,1.913l.21.047.074.967.21,2.805s4.935,20.07,10.491,17.2S426.845,322.752,425.006,321.441Z" transform="translate(141.807 1114.516)"/><path class="l" d="M385.523,293.244c-5.34,2.852-10.085-17.075-10.085-17.075l-.2-2.792-.385-5.279,6.523.831a19.914,19.914,0,0,0,0,3.427c.115,1.352.446,2.765,1.224,3.333C384.334,277,390.857,290.4,385.523,293.244Z" transform="translate(181.939 1160.512)"/><path class="l" d="M329.717,359.736l.453-.345A2.434,2.434,0,0,1,329.717,359.736Z" transform="translate(157.285 1210.38)"/><path class="l" d="M345.411,288.811v15.378a124.368,124.368,0,0,1-1.352,15.189,15.174,15.174,0,0,0-.088,3.711c.473,4.63-.676,22.307-.676,22.307l-2.028,22.895s1.183,12.451.676,14.2a8.611,8.611,0,0,0-.128,2.17c.068,2.028.419,4.63.534,5.408v.237l-.074.054-9.916,7.564c1.582-1.44,1.987-4.793,1.981-7.9V389q0-4.36.338-8.72c.324-4.779-1.582-12.1-2.974-16.656-1.778-5.807-3.562-39.733-2.609-41.511s-.122-6.408-1.3-9.017c-.7-1.589-1.372-7.145-1.778-11.2-.257-2.461-.412-4.326-.412-4.326Z" transform="translate(155.035 1171.826)"/><path class="l" d="M352.034,357.776l.487-.365a2.861,2.861,0,0,1-.487.365Z" transform="translate(169.476 1209.298)"/><path class="l" d="M367.736,286.844v16.135a124.41,124.41,0,0,1-1.3,14.432,15.165,15.165,0,0,0-.088,3.711c.473,4.63-.676,22.307-.676,22.307l-2.028,22.9s1.19,12.451.716,14.2a8.27,8.27,0,0,0-.128,2.163c.068,2.028.426,4.671.534,5.408a.587.587,0,0,0,.034.223l-.074.054h0l-9.93,7.564c1.534-1.474,1.933-4.786,1.926-7.855v-1.021c0-2.907.135-5.813.331-8.72.318-4.779-1.582-12.093-2.974-16.649-1.785-5.807-3.562-39.733-2.609-41.511s-.122-6.408-1.3-9.017a27.088,27.088,0,0,1-1.183-5.644c-.629-4.515-1.075-9.889-1.075-9.889Z" transform="translate(167.219 1170.751)"/><path class="e" d="M353.142,207.07l-.1.155a13.019,13.019,0,0,1-9.024,5.408,11.187,11.187,0,0,1-1.589.108c-.041-.162-.074-.324-.115-.48-.777-3.38-1.6-6.084-1.6-6.084s.886-1.278,2.177-2.907c3.508-4.434,9.971-11.444,9.464-2.075a16.068,16.068,0,0,0,.676,5.617A.766.766,0,0,1,353.142,207.07Z" transform="translate(163.291 1121.435)"/><path class="l" d="M359.468,202.864a13.039,13.039,0,0,1-11.444,12.945,12.621,12.621,0,0,1-1.609.1h-.095a13.046,13.046,0,1,1,13.148-13.046Z" transform="translate(159.284 1117.752)"/><path class="l" d="M368.125,237.2l-12.654,10.816s-13.8-19.684-12.167-23.72c.521-1.264.46-3.508.128-6.009-.183-1.352-.446-2.846-.744-4.252-.088-.439-.183-.872-.277-1.3-.041-.162-.074-.324-.115-.48-.777-3.38-1.6-6.084-1.6-6.084s.886-1.278,2.177-2.907c3.508-4.434,9.97-11.444,9.463-2.075a16.07,16.07,0,0,0,.676,5.617.919.919,0,0,0,.1.318c1.8,5.529,6.178,9.943,9.545,12.681a37.746,37.746,0,0,0,4.36,3.1Z" transform="translate(163.281 1121.433)"/><path class="e" d="M325.6,297.594l19.813-8.788v15.378a6.816,6.816,0,0,1-1.284-.6c-3.914-2.42-8.788-.541-9.132-.541a10.385,10.385,0,0,1-8.423-.831c-.183-.108-.365-.21-.541-.3C325.74,299.46,325.6,297.594,325.6,297.594Z" transform="translate(155.035 1171.824)"/><path class="e" d="M367.719,286.844v16.135a7.234,7.234,0,0,0-.676,1.494c-.717,1.663-5.577,2.258-9.849,1.555a60.968,60.968,0,0,0-8.186-.514c-.629-4.515-1.075-9.889-1.075-9.889Z" transform="translate(167.236 1170.751)"/><path class="m" d="M408.533,332.366c-3.326.473-11.627,7.591-15.777,9.017s-3.677,1.656-4.387,3.319-5.577,2.251-9.849,1.548a88.374,88.374,0,0,0-12.336-.48s-8.984,1.555-12.925-.885-8.788-.541-9.132-.541a10.385,10.385,0,0,1-8.423-.831c-4.15-2.494-9.727-1.541-9.727-1.541s-4.509-2.609-7.118-1.183-8.3-2.846-9.727-4.15,2.7-5.455,5.813-6.645,9.017-19.218,9.606-19.806,3.2-6.881,2.846-9.369,6.76-13.884,6.76-13.884l4.5-15.317,1.352-4.732.054-2.819c0-1.271.061-2.9.095-4.732.122-7.571.25-18.8,0-23.875-.04-.784-.081-1.419-.135-1.879-.595-5.1,4.732-16.223,6.05-18.5.973-1.683,7.273-2.961,11.025-3.752a24.123,24.123,0,0,0,2.65-.635,3.1,3.1,0,0,1,1.041-.081c3.542.142,13.986,2.332,13.986,2.332-.946,28.587.953,23.6.953,23.6,3.083-2.373,1.183-23.368,1.183-23.368,1.541.71,3.116-1.075,3.116-1.075l6.016,2.494a59.51,59.51,0,0,1,5.306,3.589,15.993,15.993,0,0,1,3.711,3.65c1.778,2.968,4.272,11.39,4.272,11.39l-2.136,3.38c-1.866,2.995-4.732,7.6-7.672,12.262l-5.218,8.308c-2.332,3.7-4.232,6.712-5.022,7.936a2.954,2.954,0,0,0-.372.953,4.969,4.969,0,0,0-.088.676,10.633,10.633,0,0,0,.277,2.812c1.494,7.084,8.247,18.691,8.247,18.691s6.76,10.315,6.881,13.634,7.354,6.881,9.017,11.39,5.333,6.165,4.86,8.9,4.732,3.914,5.692,5.692S411.852,331.892,408.533,332.366Z" transform="translate(145.882 1129.103)"/><path class="e" d="M381.359,272.356c-1.832,1.237-5.056,1.19-6.124,1.021l-.385-5.279,6.523.831A19.911,19.911,0,0,0,381.359,272.356Z" transform="translate(181.939 1160.512)"/><path class="m" d="M367.648,223l4.867,3.441s2.251,9.011,4.265,12.215a14.122,14.122,0,0,1,1.778,7.354,25.68,25.68,0,0,1,1.9,2.373c1.426,1.9,3.319,11.424,2.609,12.654s4.1,11.424,4.1,11.424.676.676,2.075,4.387,0,7.949,0,7.949,3.677,8.186,2.136,10.437-6.53,2.028-7.24,1.778,1.9-1.541-2.7-1.9-10.68-8.537-10.68-8.537a50.994,50.994,0,0,1-5.218-13.878,102.148,102.148,0,0,0-4.265-14.709c-.595-1.778-3.2-13.283-3.2-13.283Z" transform="translate(172.769 1135.875)"/><path class="e" d="M342.01,223s-.358,27.519-3.677,32.974Z" transform="translate(161.992 1135.875)"/><path class="e" d="M355.252,229.286s-3.082,27.519-5.516,28.938S355.252,229.286,355.252,229.286Z" transform="translate(167.968 1139.311)"/><path class="e" d="M352.259,226.755s-.75,25.95-4.664,28.512S352.259,226.755,352.259,226.755Z" transform="translate(166.492 1137.928)"/><path class="e" d="M329.762,258.511s-4.908,14.351-4.353,20.279S329.762,258.511,329.762,258.511Z" transform="translate(154.908 1155.275)"/><path class="e" d="M368.127,252.947c-6.422,1.44-23.794,4.022-39.071-5.482,0-1.271.061-2.9.095-4.732,5.8,3.191,22.091,11.491,30.385,9.166,4.137-1.183,6.76-1.933,8.4-2.42A8.936,8.936,0,0,0,368.127,252.947Z" transform="translate(156.924 1146.657)"/><path class="e" d="M368.127,252.029c-6.422,1.433-23.794,4.015-39.071-5.482,0-1.271.061-2.907.095-4.732,5.8,3.191,22.091,11.491,30.385,9.166,4.137-1.176,6.76-1.933,8.4-2.413A8.941,8.941,0,0,0,368.127,252.029Z" transform="translate(156.924 1146.155)"/><path class="n" d="M368.127,252.357c-6.422,1.433-23.794,4.015-39.071-5.482,0-1.271.061-2.9.095-4.732,5.8,3.191,22.091,11.491,30.385,9.166,4.137-1.176,6.76-1.933,8.4-2.413A8.941,8.941,0,0,0,368.127,252.357Z" transform="translate(156.924 1146.334)"/><path class="o" d="M368.127,252.357c-6.422,1.433-23.794,4.015-39.071-5.482,0-1.271.061-2.9.095-4.732,5.8,3.191,22.091,11.491,30.385,9.166,4.137-1.176,6.76-1.933,8.4-2.413A8.941,8.941,0,0,0,368.127,252.357Z" transform="translate(156.924 1146.334)"/><path class="e" d="M339.966,356.816a1.111,1.111,0,0,1-.041.291l-9.916,7.564c1.582-1.44,1.987-4.793,1.981-7.9v-1.014a20.013,20.013,0,0,1,3.664-5.854c1.69-.439,2.751,0,3.38.764v.216a3.113,3.113,0,0,1,.352.527C340.379,353.119,340.095,355.911,339.966,356.816Z" transform="translate(157.445 1205.101)"/><path class="e" d="M338.594,352.809l-7.483,5.137s.047-.6.115-1.487a20.482,20.482,0,0,1,3.833-6.253c1.69-.433,2.751,0,3.38.764C338.5,352.079,338.594,352.809,338.594,352.809Z" transform="translate(158.047 1205.269)"/><path class="p" d="M340.444,357.353a18.655,18.655,0,0,0-1.555,7.638,11.789,11.789,0,0,1-1.589,6.158,5.289,5.289,0,0,1-.521.75s-5.2-.041-7.017-1.548a1.776,1.776,0,0,1-.5-.575c-1.041-2.075,2.028-10.025,2.028-10.025a22.038,22.038,0,0,1,4.88-9.4C342.006,348.822,340.444,357.353,340.444,357.353Z" transform="translate(156.92 1205.341)"/><path class="e" d="M337.048,367.739a5.285,5.285,0,0,1-.521.75s-5.2-.041-7.017-1.548c.892-2.961,3.752-11.917,5.083-10.4S336.73,364.88,337.048,367.739Z" transform="translate(157.173 1208.731)"/><path class="p" d="M334.049,357.115l-.358,13.425h1.744s.277-11.775,1.061-13.425S334.049,357.115,334.049,357.115Z" transform="translate(159.456 1208.736)"/><path class="e" d="M362.267,354.869l-.04.277h0l-9.869,7.51c1.534-1.474,1.933-4.786,1.927-7.855v-1.021a19.986,19.986,0,0,1,3.657-5.847,3.125,3.125,0,0,1,3.414.757v.223a2.809,2.809,0,0,1,.351.521C362.686,351.172,362.4,353.97,362.267,354.869Z" transform="translate(169.652 1204.026)"/><path class="e" d="M360.912,350.837l-7.483,5.144s.047-.6.122-1.487a20.279,20.279,0,0,1,3.826-6.253c1.69-.433,2.751-.034,3.414.764C360.817,350.113,360.912,350.837,360.912,350.837Z" transform="translate(170.237 1204.192)"/><path class="p" d="M362.763,355.387a18.549,18.549,0,0,0-1.562,7.638,11.789,11.789,0,0,1-1.589,6.158,5.862,5.862,0,0,1-.52.75s-5.2-.041-7.017-1.548a1.868,1.868,0,0,1-.487-.581c-1.034-2.075,2.028-10.025,2.028-10.025a22.038,22.038,0,0,1,4.88-9.4C364.318,346.87,362.763,355.387,362.763,355.387Z" transform="translate(169.116 1204.266)"/><path class="e" d="M359.366,365.788a5.869,5.869,0,0,1-.52.75s-5.2-.041-7.017-1.548c.892-2.961,3.752-11.924,5.083-10.4S359.048,362.908,359.366,365.788Z" transform="translate(169.363 1207.661)"/><path class="p" d="M356.373,355.148l-.365,13.418h1.744s.277-11.769,1.061-13.418S356.373,355.148,356.373,355.148Z" transform="translate(171.646 1207.662)"/><path class="e" d="M384.212,251.683c-.081,3.38-1.927,6.983-5.164,7.99-.946.291-1.954.358-2.92.554a6.25,6.25,0,0,0-1.352.412c-2.075.953-3.109,3.319-3.529,5.563-.149.771-.243,1.548-.338,2.332a16.757,16.757,0,0,1-.926,4.373,11.072,11.072,0,0,1-4.556,5.191,29.339,29.339,0,0,1-7.564,3.164,17,17,0,0,0,2.028-14.128c-.433-1.386-1.352-2.934-2.819-2.893-1.142.034-1.96,1.048-2.812,1.818-4.191,3.772-10.748,2.089-16.054.189a34.139,34.139,0,0,0,6.388-37.442,12.353,12.353,0,0,1-1.163-3.022,6.3,6.3,0,0,1,.291-3.123,13.843,13.843,0,0,1,1.92-3.576c.331-.466.676-.926,1.027-1.392.453-.615.906-1.237,1.311-1.879a10.338,10.338,0,0,0,1.352-2.927c.6-2.3-.243-5.2-2.467-5.989l-.122-.047c-2.461-.771-3.224-1-4.9-2.974-1.122-1.311-1.758-3.38-3.677-3.765-1.474-.3-3.123.352-4.671.75a13.053,13.053,0,1,1,23.524,9.578c1.73,5.678,6.212,10.207,9.646,13l6.016,2.494a59.526,59.526,0,0,1,5.306,3.589,77.622,77.622,0,0,0,3.826,12.363,43.565,43.565,0,0,1,2.028,6.084,14.976,14.976,0,0,1,.372,3.711Z" transform="translate(159.348 1117.745)"/><path class="q" d="M348.89,209.153c2.312.723,3.2,3.7,2.589,6.036s-2.271,4.232-3.67,6.2-2.643,4.319-2.217,6.7a12.356,12.356,0,0,0,1.163,3.022,34.2,34.2,0,0,1-6.388,37.442c5.306,1.9,11.87,3.583,16.054-.189.852-.771,1.67-1.785,2.812-1.818,1.453-.047,2.393,1.507,2.819,2.893a16.987,16.987,0,0,1-2.028,14.121c4.887-1.42,10.254-3.616,12.127-8.348.838-2.116.838-4.468,1.257-6.712s1.453-4.6,3.529-5.556c1.352-.608,2.873-.534,4.272-.967,3.238-1.007,5.083-4.6,5.164-7.99s-1.217-6.638-2.433-9.795c-6.76-17.575-.406-3.495-4.11-24.646-.757-4.319.426-6.9,1.392-11.174s.757-9.22-2.21-12.451-7.578-3.833-11.262-6.023c-3.265-1.947-6.138-5.225-9.937-5.164-2.785.041-2.778.493-5.347,1.575-4.441,1.866-9.423,1.3-13.938,2.846-4.056,1.393-9.207,5.949-7.976,10.815,1.656,6.55,6.2,1.731,9.741,2.467,1.92.406,2.555,2.447,3.677,3.765C345.673,208.146,346.43,208.382,348.89,209.153Z" transform="translate(157.64 1114.972)"/><path class="l" d="M321.163,255.3s-1.92-.2-4.5-.6c-6.76-1.027-18.19-3.38-11.687-6.76,5.969-3.123,14.2-.473,19.008,1.649a42.111,42.111,0,0,1,4,2.028Z" transform="translate(142.713 1148.72)"/><path class="e" d="M343.443,231.37s-3.082,15.547-4.624,18.974-4.056,12.458-4.056,12.458-3.643,3.3-6.652,6.5l1.352-4.732.054-2.819c0-1.271.061-2.9.095-4.732.122-7.571.25-18.8,0-23.875.264-.493.433-.8.433-.8l2.4-3.806s3.914-10.437,6.165-13.4S343.443,231.37,343.443,231.37Z" transform="translate(156.409 1131.414)"/><path class="e" d="M317.922,252.646s-.345,1.352-.926,3.177c-.737-.3-1.352-.534-1.8-.676-2.028-.676.358-1.541-.237-3.319-.507-1.528-1.447-1.048-2.528-1.474a29.531,29.531,0,0,1,2.292-2.751Z" transform="translate(147.84 1149.317)"/><path class="m" d="M340.269,228.524l-2.4,3.806s-3.258,6.036-3.765,7.909-1.521,9.038-3.549,10.7-6.172,7-5.577,8.064-5.577,2.373-5.577,2.373-4.15,1.663-3.914,2.968-3.441,2.373-2.136,3.319,2.494,0,3.089,1.778-1.785,2.616.237,3.326,8.659,3.488,8.659,3.488,5.333.9,6.875-2.305S342.534,262.8,342.534,262.8s2.488-9.017,4.056-12.458,4.63-18.974,4.63-18.974-2.494-19.218-4.732-16.223S340.269,228.524,340.269,228.524Z" transform="translate(148.193 1131.414)"/><path class="e" d="M328.87,243.476s-11.742,1.541-5.455,4.15,8.423,0,8.423,0Z" transform="translate(152.832 1147.063)"/><path class="e" d="M316.855,248.224s6.881-1.419,8.659,0S316.855,248.224,316.855,248.224Z" transform="translate(150.26 1149.311)"/><path class="e" d="M316.4,250.492s.473-1.19,2.846,0S316.4,250.492,316.4,250.492Z" transform="translate(150.009 1150.606)"/><path class="e" d="M366.6,257.632s.717,10.815,3.63,11.167S366.6,257.632,366.6,257.632Z" transform="translate(177.432 1154.795)"/><path class="e" d="M371.876,241.8s.493,3.305-2.6,3.9S371.876,241.8,371.876,241.8Z" transform="translate(178.389 1146.146)"/><path class="e" d="M347.92,262.6s-.155,33.373,6.645,37.482Z" transform="translate(167.229 1157.51)"/><path class="e" d="M353.748,263.525s-.122,33.366,6.638,37.482Z" transform="translate(170.412 1158.014)"/><path class="e" d="M330.377,310.292a25,25,0,0,1,4.63,0C337.583,310.5,330.377,310.292,330.377,310.292Z" transform="translate(157.646 1183.501)"/><path class="e" d="M330.377,311.8a25.015,25.015,0,0,1,4.63,0C337.583,312.037,330.377,311.8,330.377,311.8Z" transform="translate(157.646 1184.325)"/><path class="e" d="M353.131,308.521a25,25,0,0,1,4.63,0C360.337,308.765,353.131,308.521,353.131,308.521Z" transform="translate(170.075 1182.534)"/><path class="e" d="M353.643,309.728a25.01,25.01,0,0,1,4.63,0C360.842,309.964,353.643,309.728,353.643,309.728Z" transform="translate(170.354 1183.193)"/><g class="r" transform="translate(488.148 1304.495)"><path d="M342.811,265.687a34.137,34.137,0,0,0,6.388-37.442,12.357,12.357,0,0,1-1.163-3.022c-.426-2.379.811-4.732,2.217-6.7s3.062-3.86,3.67-6.2-.277-5.313-2.589-6.03c-2.461-.771-3.224-1.007-4.9-2.981-1.122-1.311-1.758-3.38-3.677-3.758-3.542-.737-8.112,4.056-9.741-2.474-.933-3.664,1.791-7.165,4.935-9.254-3.927,1.629-8.47,5.955-7.307,10.532,1.656,6.55,6.2,1.737,9.741,2.474,1.92.4,2.555,2.447,3.677,3.758,1.683,1.974,2.44,2.21,4.9,2.981,2.312.717,3.2,3.691,2.589,6.03s-2.271,4.232-3.671,6.2-2.643,4.319-2.217,6.706a12.421,12.421,0,0,0,1.163,3.015,34.2,34.2,0,0,1-6.388,37.442c5.11,1.832,11.377,3.454,15.547.21C352.031,268.567,347.029,267.195,342.811,265.687Z" transform="translate(-330.458 -187.829)"/><path d="M362.588,234.885a4.658,4.658,0,0,0-1.352.933c1.068-.264,2.2-.3,3.245-.629a6.083,6.083,0,0,0,2.2-1.23C365.339,234.338,363.866,234.3,362.588,234.885Z" transform="translate(-313.646 -162.631)"/><path d="M357.382,252.046a37.405,37.405,0,0,1-5.137,1.859,16.987,16.987,0,0,0,2.028-14.121c-.426-1.352-1.352-2.94-2.819-2.9a3.6,3.6,0,0,0-2.244,1.284c1.352.047,2.278,1.548,2.7,2.893a16.987,16.987,0,0,1-2.028,14.121A29.689,29.689,0,0,0,357.382,252.046Z" transform="translate(-320.215 -161.034)"/></g><circle class="h" cx="5.07" cy="5.07" r="5.07" transform="translate(369.383 1149.408)"/></g></svg>