<svg xmlns="http://www.w3.org/2000/svg" xmlns:xlink="http://www.w3.org/1999/xlink" width="494" height="387.059" viewBox="0 0 494 387.059"><defs><style>.a{fill:url(#a);}.b{fill:#fff;}.c{fill:#152a49;}.d{fill:#6f42c1;}.e{fill:#5a5773;opacity:0.2;}.f{fill:url(#b);}.g{fill:#efb7b9;}.h,.m{opacity:0.1;}.i{fill:#fd7e14;}.j{fill:#444053;}.k{fill:#a1616a;}.l{fill:#925978;}</style><linearGradient id="a" x1="0.5" y1="1" x2="0.5" gradientUnits="objectBoundingBox"><stop offset="0" stop-color="gray" stop-opacity="0.251"/><stop offset="0.54" stop-color="gray" stop-opacity="0.122"/><stop offset="1" stop-color="gray" stop-opacity="0.102"/></linearGradient><linearGradient id="b" x1="0.5" x2="0.5" xlink:href="#a"/></defs><g transform="translate(-224.911 -2227.628)"><g transform="translate(224.911 2227.628)"><path class="a" d="M573.01,306.47V51.781H79.074V310.172h0c-.149-.069.009,0,0,0s.84,0,.84,0l493.1-.151Z" transform="translate(-79.01 -51.781)"/><path class="b" d="M572.668,307.979l-.266-250H79.987V290.8c.008-.024.035,17.892,0,17.853-.017-.071,0-.015,0,0s33.587-.1,33.637,0l457.781-.677Z" transform="translate(-79.358 -50.7)"/><rect class="c" width="492.41" height="13.066" transform="translate(0.634 0.722)"/></g><g transform="translate(232 2231.506)"><circle class="b" cx="3.378" cy="3.378" r="3.378" transform="translate(0 0)"/><circle class="b" cx="3.378" cy="3.378" r="3.378" transform="translate(9.095 0)"/><circle class="b" cx="3.378" cy="3.378" r="3.378" transform="translate(18.191 0)"/></g><g transform="translate(238.757 2270.133)"><rect class="d" width="81.339" height="51.111" transform="translate(112.622 0)"/><rect class="e" width="81.339" height="51.111" transform="translate(0 0)"/><rect class="e" width="81.339" height="51.111" transform="translate(225.244 0)"/><rect class="e" width="81.339" height="51.111" transform="translate(0 73.07)"/><rect class="e" width="81.339" height="51.111" transform="translate(112.622 73.07)"/><rect class="e" width="81.339" height="51.111" transform="translate(225.244 73.07)"/><rect class="e" width="81.339" height="51.111" transform="translate(0 146.135)"/><rect class="e" width="81.339" height="51.111" transform="translate(112.622 146.135)"/><rect class="e" width="81.339" height="51.111" transform="translate(225.244 146.135)"/></g><g transform="translate(332.486 2282.896)"><path class="f" d="M256.742,214.153s-14.61-26.7-12.146-31.049a59.179,59.179,0,0,0,4.277-10.634s5.395-3.69,5.395-5.2,4.272-4.995,6.523-6.512,1.123-8.685,0-9.553a19.8,19.8,0,0,1-2.905-3.908s1.559-4.34,0-5.644.229-2.6,0-3.908a52.457,52.457,0,0,1,0-6.076,9.794,9.794,0,0,0-5.748-4.158l-.166-.686-.962-4.049s4.678-8.965-2.911-13.659a12.681,12.681,0,0,0-1.679-.884,5.824,5.824,0,0,0-.042-.587,36.73,36.73,0,0,0-1.1-6.866c-.4-1.258-.91-2.1-1.559-1.913a1.04,1.04,0,0,0-.426.244,4.741,4.741,0,0,0-.806.951h0a.213.213,0,0,1-.036.057,16.3,16.3,0,0,0-1.788,4.963,28.668,28.668,0,0,0-.52,3.118,17.149,17.149,0,0,0-.868,1.928c-.92,2.386-2,6.518-.036,9.574,1.663,2.6,3.9,6.169,5.53,8.768l.052.083.1.161-.171.109v.4l.151,2.188,1.258,18.908a8.03,8.03,0,0,0-1.154-.244,10.48,10.48,0,0,0-1.679-.109c-1.1-4.309-4.106-8.316-4.678-12.817a11.879,11.879,0,0,1-.088-1.357c.047-2.833.754-5.676.7-8.5,0-.52,0-1.039-.052-1.559h0a4.162,4.162,0,0,0-.042-.431,12.78,12.78,0,0,0-6.949-9.683c-1.3-.65-2.718-1.081-3.986-1.793-2.931-1.642-4.808-4.6-7.469-6.637-1.98-1.512-4.938-2.323-7.146-1.559a32.992,32.992,0,0,0-3.477.717h0a31.367,31.367,0,0,0-7.957,3.306c-.338.2-.676.411-1,.65a4.4,4.4,0,0,0-1.606,1.876,4.917,4.917,0,0,0-.249,2.022c0,.494,0,1,.031,1.492-.146,8.316-9.106,14.75-9.844,22.868,0,.192-.031.385-.042.577v.889h0v.65c.13,3.56,1.98,6.876,2.318,10.421.031.317.047.629.052.946a15.716,15.716,0,0,1-.92,4.771,13.963,13.963,0,0,0-3.228,1.31c-2.723,1.752-7.64,4.776-9.433,10.561a15.469,15.469,0,0,0-.681,4.636,96.808,96.808,0,0,1-1.518,16.554,30.941,30.941,0,0,1-.956,4.07.956.956,0,0,0-.031.4l-1.081,14.033-.192,2.469-.27,3.513s.078.213.192.572a16.527,16.527,0,0,1,.426,1.622,8.721,8.721,0,0,1,.14,3.638,2.505,2.505,0,0,1-.759,1.336.562.562,0,0,0-.088.1,10.793,10.793,0,0,0-.821,3.576c-.094.728-.182,1.559-.27,2.422-.52,5.535-.842,13.82-1.039,20.67-.187,6.757-.255,12.094-.255,12.094a13.8,13.8,0,0,0,2.791,1.383c-.073.182-.151.369-.223.567a27.3,27.3,0,0,0-1.694,7.141c-.437,5.109.993,10.785,8.118,13.705a11.459,11.459,0,0,0,1.4.478,4.434,4.434,0,0,0,3.555-.218c0,.307.036.6.052.9.073,1.268.135,2.427.166,3.4.223,6.081,1.731,16.715,1.731,16.715s.52,4.345.068,5.644,0,6.512,0,6.512,1.559,2.6,0,3.908-2.022,7.8-1.559,8.685a.292.292,0,0,1,.026.1c.343,2.157-1.6,34.2-1.6,34.2s-1.835,4.906-3.3,10c-1.424,4.958-2.495,10.093-1.175,11.055a11.032,11.032,0,0,0,4.111,1.112c0,.213-.031.426-.052.644-.187,2.292-.483,4.761-.91,5.385-.618.884-1.268,7.734-1.585,11.434l-.031.411a38.3,38.3,0,0,0-1.674,4.854s-4.974,12.474-3.29,15.712a2.655,2.655,0,0,0,.619.764h0a1.4,1.4,0,0,0,.161.146c2.4,1.918,8.4,2.318,10.577,2.406l-.083,3.087v.114h2.833v-.078c0-.39.062-2.178.156-4.568,0-.426.031-.873.052-1.331,0-.359.036-.722.052-1.1a19.229,19.229,0,0,0,1.232-6.938,30.445,30.445,0,0,1,1.091-8.046,22.353,22.353,0,0,1,1.44-3.924s.884-4.678-.348-7.988a5.768,5.768,0,0,0-1.039-1.8c0-.109,0-.218,0-.333v-.707a29.982,29.982,0,0,1,.665-6.663.738.738,0,0,1,0-.1c.042-.182.088-.353.135-.52l.031-.114.92.031c2.822.078,4.9.078,4.9.078s2.25-11.507,2.027-16.5v-.676a64.254,64.254,0,0,1,1.362-11.7l1.814-17.593s-.9-3.046,0-5.2c.556-1.341,1.7-3.831,2.505-5.546.374-.8.67-1.419.8-1.689l.073-.146a3.365,3.365,0,0,1-.8-.4h0c-.733-.489-1.388-1.445.806-2.853,3.373-2.172,2.25-7.6,2.25-7.6a3.9,3.9,0,0,1,.177-3.69c1.169-1.736,0-8.248,0-8.248a27.27,27.27,0,0,0,2.308-5.431c.837-2.6,2.952-15.306,3.95-21.434.327-2.011.52-3.311.52-3.311l.031.317.031.343h0l.281,2.895.036.385.52,5.473s1.039,14.386.39,20.026v.1a6.663,6.663,0,0,1-.379,1.71c-1.2,2.7-.977,13.44-.915,15.816v.478a9.564,9.564,0,0,0-.634,3.669h0a2.355,2.355,0,0,0,.411,1.091,2.765,2.765,0,0,1,.4,1.689v.052a6.14,6.14,0,0,1-.062.748,14.272,14.272,0,0,1-.79,2.942s-1.206,3.17-.748,4.828h0a1.528,1.528,0,0,0,.3.587,1.388,1.388,0,0,1,.171.624.225.225,0,0,0,0,.057c.421,3.5-.665,18.939-1.31,27.39-.26,3.337-.447,5.582-.447,5.582l-1.783,18.451.177.125c.2.146.582.395,1.091.7v.042l-.078.556c-.255,1.777-.6,3.846-.972,5.426-.031.12-.057.234-.088.343a4.972,4.972,0,0,0-1.907.764c-3.784,6.72-2.11,12.048,0,13.6.6.437,1,1.658,1.273,3.176l.52,6.7v.769a2,2,0,0,0,.1.613l.161,2.032.218,2.827h1.726v-3.425h.094c2.723.094,7.115.208,9.028.057h.052a3.375,3.375,0,0,0,.52-.057,1.3,1.3,0,0,0,.3-.083c1.013-.489,3.539-7.651,1.263-9.277s-2.781-6.237-2.781-6.237c-.2-.6-.4-1.175-.6-1.72v-.353a28.588,28.588,0,0,1,.27-5.956,45.306,45.306,0,0,0,.592-7.115v-.66a8.858,8.858,0,0,0,1.159-.379l.083-.036a8.165,8.165,0,0,0,1.939-1.149l6.362-28.19.67-3.28,3.82-18.653s-1.346-6.512,0-7.593c.494-.395.629-2.079.6-4.028-.052-3.409-.6-7.7-.6-7.7s1.8-2.822,2.7-4.558,0-6.294,0-6.294l1.772-10.436s2.027-12.375,6.97-22.8c3.638-7.666,1.32-28.367-1.039-39.386-.062-.286-.125-.567-.187-.837v-.042c1.112-.551,2.474-1.216,3.929-1.913l.551-.26c1.845-.868,3.8-1.762,5.551-2.505l.114-.047a38.768,38.768,0,0,1,3.862-1.445,6.478,6.478,0,0,1,1.185-.244C266.186,230.649,256.742,214.153,256.742,214.153Zm-70.326,35.316h.936c-.109.2-.213.411-.317.618-.062.125-.125.244-.182.369-.343.712-.66,1.44-.92,2.152.1-.769.234-1.606.379-2.5C186.349,249.911,186.385,249.677,186.417,249.469Zm-2.526,13.55a.384.384,0,0,0,0-.073l-.078-.244c-.057-.166-.109-.333-.161-.52q.483-.146.982-.327h.068v.172c-.026.244-.057.489-.088.728h0a.52.52,0,0,1,0,.094,5.052,5.052,0,0,1-.068.572c-.047.374-.094.738-.135,1.086-.1-.327-.2-.65-.3-.967a2.463,2.463,0,0,1-.218-.52Z" transform="translate(-171.053 -98.842)"/><path class="g" d="M241.513,130.693l-5.613,1.985-2.037-3.378c-1.559-2.6-3.721-6.154-5.317-8.737-2.817-4.542.868-11.465.868-11.465s.665-6.949,3.035-9.09,3.03,9.09,3.03,9.09c9.516,4.324,4.418,14.5,4.418,14.5l.925,4.033Z" transform="translate(-161.214 -98.687)"/><path class="h" d="M240.566,126.58l-5.613,1.985-2.037-3.378v-.3a9.775,9.775,0,0,1,6.97-1.377Z" transform="translate(-160.267 -94.573)"/><path class="i" d="M231.712,149.248l2.812-2.38-1.409-21.424s7.276-4.979,12.661,2.812a54.669,54.669,0,0,0,0,6.06c.218,1.3-1.512,2.6,0,3.893s0,5.629,0,5.629a19.541,19.541,0,0,0,2.791,3.893c1.081.863,2.167,8.009,0,9.522s-6.232,4.979-6.232,6.492-5.2,5.2-5.2,5.2l-4.563-6.034Z" transform="translate(-160.476 -94.477)"/><path class="g" d="M181.1,260.32c-10.488-4.449-8.16-15.317-6.185-20.79a28.306,28.306,0,0,1,1.388-3.243l5.883-3.571s1.2,3.061,2.484,7.167C187.65,249.436,191.076,264.555,181.1,260.32Z" transform="translate(-170.676 -75.5)"/><path class="g" d="M194.247,341.076a17.67,17.67,0,0,0-1.559,4.376,31.6,31.6,0,0,0-.676,7.448c.042,1.731.187,2.864.187,2.864L180.515,363.8s.068-.941.182-2.323c.3-3.68.93-10.509,1.523-11.393.411-.613.7-3.077.878-5.364s.255-4.293.255-4.293S197.412,335.156,194.247,341.076Z" transform="translate(-169.403 -57.096)"/><path class="g" d="M217.4,345.724s0,2.235-.083,4.834a49.494,49.494,0,0,1-.567,7.094,29.205,29.205,0,0,0-.265,5.935c.078,2.6.265,4.938.265,4.938s-11.928-11.278-10.712-12.172a5.527,5.527,0,0,0,.946-2.479c.364-1.559.691-3.638.936-5.405.291-2.1.473-3.8.473-3.8Z" transform="translate(-164.967 -55.979)"/><path class="h" d="M193.859,341.076a17.669,17.669,0,0,0-1.559,4.376,95.494,95.494,0,0,1-9.563-.733c.177-2.235.255-4.293.255-4.293S197.025,335.156,193.859,341.076Z" transform="translate(-169.016 -57.096)"/><path class="h" d="M217.111,345.722s0,2.235-.083,4.834c-3.721.951-7.547-.951-9.4-2.079.291-2.1.473-3.8.473-3.8Z" transform="translate(-164.675 -55.978)"/><path class="j" d="M246.54,258.325c-4.761,10.395-6.71,22.723-6.71,22.723L238.1,291.443s.868,4.543,0,6.273-2.6,4.548-2.6,4.548,1.3,10.6,0,11.684,0,7.573,0,7.573l-4.329,21.829-6.06,28.128c-5.842,4.766-13.617-1.294-13.617-1.294l1.715-18.394s2.6-32.224,1.518-33.544.431-5.41.431-5.41,1.518-3.9.437-5.41.213-4.761.213-4.761-.431-13.2.868-16.231,0-21.772,0-21.772l-.52-5.837-.3-3.233-.026-.317s-.2,1.294-.52,3.3c-.956,6.107-2.994,18.763-3.8,21.366a27.826,27.826,0,0,1-2.219,5.41s1.123,6.492,0,8.222a4.025,4.025,0,0,0-.172,3.68s1.081,5.41-2.167,7.573,0,3.248,0,3.248-2.38,5.2-3.243,7.354,0,5.2,0,5.2l-1.731,17.526s-1.518,7.354-1.3,12.333-1.949,16.445-1.949,16.445-16.663,0-19.23-1.949,4.288-20.961,4.288-20.961,1.949-33.326,1.512-34.188,0-7.359,1.518-8.654,0-3.9,0-3.9-.431-5.2,0-6.492-.068-5.629-.068-5.629-1.45-10.6-1.663-16.663-1.3-19.688-1.3-19.688,1.133-8.43,1.3-12.443a14.131,14.131,0,0,1,1.559-5.057,45.118,45.118,0,0,1,3.222-5.655S241.145,210.5,243.3,212.006c.572.4,1.4,3.118,2.224,7.053C247.808,230.052,250.043,250.685,246.54,258.325Z" transform="translate(-169.681 -79.129)"/><circle class="k" cx="14.932" cy="14.932" r="14.932" transform="translate(30.337 17.075)"/><path class="h" d="M244.374,219.07c-1.72.884-2.874,1.492-2.874,1.492s-24.235,11.471-31.127,10.821c-5.333-.52-18.944-.223-24.875-.078a45.118,45.118,0,0,1,3.222-5.655S240,210.5,242.15,212.006C242.722,212.417,243.553,215.125,244.374,219.07Z" transform="translate(-168.534 -79.129)"/><path class="i" d="M205.1,146.968s-13.83,2.183-17.094,4.324-9.729,6.278-9.729,15.15-1.512,17.962-2.38,20.556,13.633,23.586,13.633,23.586l-5.2,31.813s20.79-.65,27.712,0,31.148-10.821,31.148-10.821,14.282-7.573,17.312-7.8-6.06-16.663-6.06-16.663-14.069-26.611-11.689-30.94a59.8,59.8,0,0,0,4.127-10.6l-2.6-22.068a8.49,8.49,0,0,0-7.141,1.081c-3.248,2.38-14.282,1.081-14.282,1.081Z" transform="translate(-170.216 -91.116)"/><path class="h" d="M182.145,180.791l-5.426,1.512-1.5,20.363s1.949,5.41,0,7.141-2.38,38.736-2.38,38.736a14.151,14.151,0,0,0,13.633,1.081s-1.081-4.111,2.167-19.043,3.243-22.5,3.243-22.5,0-18.612,1.518-21.642,0-10.6,0-10.6-3.03-4.111-2.817-5.624S182.145,180.791,182.145,180.791Z" transform="translate(-170.742 -86.421)"/><path class="h" d="M184.42,239.9a13.82,13.82,0,0,1-9.755-.353,28.308,28.308,0,0,1,1.388-3.243l5.883-3.571S183.157,235.791,184.42,239.9Z" transform="translate(-170.423 -75.497)"/><path class="i" d="M181.866,180.794l-5.41,1.512-1.512,20.363s1.949,5.41,0,7.141-2.38,38.736-2.38,38.736a14.134,14.134,0,0,0,13.633,1.06s-1.081-4.111,2.162-19.043,3.248-22.5,3.248-22.5,0-18.612,1.512-21.642,0-10.6,0-10.6-3.03-4.111-2.812-5.624S181.866,180.794,181.866,180.794Z" transform="translate(-170.79 -86.424)"/><path class="h" d="M229.3,181.962s-2.812,24.235-11.039,28.783C218.258,210.745,236.651,205.553,229.3,181.962Z" transform="translate(-162.822 -84.349)"/><path class="h" d="M192.465,183.808s10.166,4.974,7.8,8.435S192.465,183.808,192.465,183.808Z" transform="translate(-167.32 -84.027)"/><path class="h" d="M192.465,192.283s6.492,6.71,5.2,9.09S192.465,192.283,192.465,192.283Z" transform="translate(-167.32 -82.55)"/><path class="h" d="M237.053,144.928s2.547,4.324,2.791,7.141S237.053,144.928,237.053,144.928Z" transform="translate(-159.545 -90.807)"/><path class="h" d="M237.053,140.025s1.279-1.086,4.543,0S237.053,140.025,237.053,140.025Z" transform="translate(-159.545 -91.746)"/><path class="h" d="M229.214,248.34a30.093,30.093,0,0,1-15.826-2.027l-2.729,6.985-.3-3.233c.447-2.713,1.315-5.618,3.03-6.351A26.265,26.265,0,0,0,229.214,248.34Z" transform="translate(-164.2 -73.582)"/><path class="h" d="M188.614,255.394s13.31,2.76,17.042,2.271Z" transform="translate(-167.991 -71.545)"/><path class="h" d="M189.791,258.366s5.681-.244,8.518.894Z" transform="translate(-167.786 -71.031)"/><path class="h" d="M190.345,260.368a50.938,50.938,0,0,0,7.869,1.04Z" transform="translate(-167.689 -70.678)"/><path class="h" d="M190.066,285.96c.244-.161,11.361-2.76,12.744-.894Z" transform="translate(-167.738 -66.489)"/><path class="h" d="M190.066,288.706s9.657-1.138,9.9,0S190.066,288.706,190.066,288.706Z" transform="translate(-167.738 -65.825)"/><path class="h" d="M190.066,291.506s10.306-2.131,11.523-1.611S190.066,291.506,190.066,291.506Z" transform="translate(-167.738 -65.544)"/><path class="h" d="M192.217,353.814l-11.684,8.035s.068-.941.182-2.323a31.5,31.5,0,0,1,5.982-9.766c2.635-.686,4.3-.052,5.333,1.19C192.071,352.676,192.217,353.814,192.217,353.814Z" transform="translate(-169.4 -55.14)"/><path class="j" d="M194.093,360.986a29,29,0,0,0-2.438,11.954,18.539,18.539,0,0,1-2.474,9.62,9.483,9.483,0,0,1-.821,1.175s-8.118-.068-10.961-2.422a2.812,2.812,0,0,1-.764-.936c-1.627-3.243,3.165-15.66,3.165-15.66,2.516-9.574,7.625-14.688,7.625-14.688C196.526,347.675,194.093,360.986,194.093,360.986Z" transform="translate(-170.139 -55.093)"/><path class="h" d="M189.018,380.3a9.476,9.476,0,0,1-.821,1.175s-8.118-.068-10.961-2.422c1.4-4.626,5.857-18.622,7.947-16.242C187.147,365.049,188.514,375.8,189.018,380.3Z" transform="translate(-169.975 -52.862)"/><path class="j" d="M186.406,363.683l-.567,20.966h2.723s.442-18.394,1.658-20.966S186.406,363.683,186.406,363.683Z" transform="translate(-168.475 -52.863)"/><path class="h" d="M216.754,367.169S204.826,355.891,206.042,355a5.527,5.527,0,0,0,.946-2.479c2.292-.4,6.237.556,9.5,9.714C216.567,364.83,216.754,367.169,216.754,367.169Z" transform="translate(-164.967 -54.623)"/><path class="j" d="M218.99,379.7a1.213,1.213,0,0,1-.286.083,84.712,84.712,0,0,1-9.47,0,2.048,2.048,0,0,1-1.98-2.043c0-.78,0-1.731-.062-2.744-.135-3.2-.52-7.011-1.668-7.869-2.032-1.559-3.638-6.85,0-13.55,0,0,6.975-5.327,12.006,10.686,0,0,.489,4.568,2.677,6.19S219.967,379.235,218.99,379.7Z" transform="translate(-165.421 -54.574)"/><path class="h" d="M218.126,377.778a84.7,84.7,0,0,1-9.47,0,2.048,2.048,0,0,1-1.98-2.043c0-.78,0-1.731-.062-2.744.878-3.877,2.141-7.869,3.768-8.778C210.392,364.208,215.314,363.652,218.126,377.778Z" transform="translate(-164.853 -52.572)"/><path class="j" d="M187.41,354.533l1.31,17.448h1.663V353.046Z" transform="translate(-146.424 -43.365)"/><path class="h" d="M213.812,105.842a29.843,29.843,0,0,0-13.316,4.277,5.534,5.534,0,0,0-2.51,2.521,8.356,8.356,0,0,0-.2,3.118c.14,8.95-9.839,15.722-9.527,24.667.125,3.55,1.907,6.855,2.235,10.395.546,5.9-2.947,11.335-6.294,16.226a13.441,13.441,0,0,0,9.485-3.144,71.926,71.926,0,0,1,1.325,36.252h4.787a3.639,3.639,0,0,1,1.4.172,3.513,3.513,0,0,1,1.107.826c4.475,4.454,7.474,11.039,5.764,17.12l10.187-3.82a30.261,30.261,0,0,0,7.032-3.352,10.155,10.155,0,0,0,4.345-6.263c.275-1.559.187-3.42,1.471-4.324a8.006,8.006,0,0,1,2.006-.743c2.8-.987,4.033-4.22,4.6-7.131a41.062,41.062,0,0,0,.65-10.847c-.452-6.081-2.25-12.255-.769-18.191.837-3.332,2.7-6.434,2.848-9.875.244-5.67-4.189-10.556-4.849-16.2-.463-3.929.956-7.905.494-11.834a12.713,12.713,0,0,0-6.689-9.652c-1.253-.644-2.6-1.076-3.836-1.788-2.822-1.637-4.626-4.584-7.188-6.611s-6.829-2.791-8.758-.156Z" transform="translate(-168.761 -97.629)"/><path class="l" d="M213.812,105.29a29.843,29.843,0,0,0-13.316,4.277,5.534,5.534,0,0,0-2.51,2.521,8.356,8.356,0,0,0-.2,3.118c.14,8.95-9.839,15.722-9.527,24.672.125,3.545,1.907,6.85,2.235,10.395.546,5.9-2.947,11.335-6.294,16.231a13.513,13.513,0,0,0,9.485-3.144,71.9,71.9,0,0,1,1.325,36.241h4.787a3.639,3.639,0,0,1,1.4.177,3.42,3.42,0,0,1,1.107.821c4.475,4.459,7.474,11.039,5.764,17.12l10.187-3.82a30.261,30.261,0,0,0,7.032-3.352,10.155,10.155,0,0,0,4.345-6.263c.275-1.559.187-3.42,1.471-4.324a8,8,0,0,1,2.006-.743c2.8-.988,4.033-4.22,4.6-7.131a41.061,41.061,0,0,0,.665-10.857c-.452-6.081-2.251-12.255-.769-18.191.837-3.332,2.7-6.434,2.848-9.875.244-5.67-4.189-10.556-4.849-16.2-.463-3.929.956-7.9.494-11.834a12.723,12.723,0,0,0-6.689-9.652c-1.253-.644-2.6-1.076-3.836-1.783-2.822-1.642-4.626-4.589-7.188-6.616s-6.829-2.791-8.758-.156Z" transform="translate(-168.761 -97.727)"/><g class="m" transform="translate(15.436 15.318)"><path d="M195.762,111.886a5.786,5.786,0,0,0-.031.6C195.746,112.291,195.757,112.089,195.762,111.886Z" transform="translate(-182.186 -111.886)"/><path d="M227.93,130.829c.187-2.755.8-5.52.572-8.264C228.33,125.32,227.717,128.085,227.93,130.829Z" transform="translate(-176.58 -110.024)"/><path d="M189.89,142.667c-.3-3.222-1.8-6.237-2.157-9.454a11.849,11.849,0,0,0-.078,1.778c.125,3.508,1.866,6.788,2.219,10.28A14.029,14.029,0,0,0,189.89,142.667Z" transform="translate(-183.596 -108.167)"/><path d="M229.778,153.5a22.286,22.286,0,0,0-.52,6.455,19.572,19.572,0,0,1,.52-3.747c.837-3.332,2.7-6.434,2.848-9.875a10.709,10.709,0,0,0-.083-1.829C232.137,147.6,230.521,150.475,229.778,153.5Z" transform="translate(-176.349 -106.199)"/><path d="M193.683,152.4a13.513,13.513,0,0,1-7.671,3.118c-.593.925-1.206,1.829-1.814,2.723a13.513,13.513,0,0,0,9.485-3.144,71.725,71.725,0,0,1,3.025,19.464A71.887,71.887,0,0,0,193.683,152.4Z" transform="translate(-184.197 -104.821)"/><path d="M234.179,177.841c-.572,2.911-1.809,6.143-4.6,7.126a7.8,7.8,0,0,0-2.006.748c-1.284.9-1.2,2.775-1.471,4.324a10.025,10.025,0,0,1-4.345,6.237,31.245,31.245,0,0,1-7.032,3.357L205,203.271a13.413,13.413,0,0,1-.468,2.885l10.187-3.82a30.262,30.262,0,0,0,7.032-3.352,10.155,10.155,0,0,0,4.345-6.263c.275-1.559.187-3.42,1.471-4.324a8,8,0,0,1,2.006-.743c2.8-.988,4.033-4.22,4.6-7.131a40.758,40.758,0,0,0,.733-9.2A40.7,40.7,0,0,1,234.179,177.841Z" transform="translate(-180.652 -101.522)"/><path d="M200.7,184.259a3.435,3.435,0,0,0-1.107-.826,3.716,3.716,0,0,0-1.4-.177h-4.246c-.166.9-.343,1.809-.52,2.708h4.787a3.639,3.639,0,0,1,1.4.177,3.421,3.421,0,0,1,1.107.821,20.591,20.591,0,0,1,6.18,12.172C207.43,193.739,204.634,188.188,200.7,184.259Z" transform="translate(-182.587 -99.443)"/></g><path class="h" d="M179.4,199.3s3.867-1.622,4.73,0S179.4,199.3,179.4,199.3Z" transform="translate(-169.597 -81.452)"/><path class="h" d="M180.568,201.666s3.867-1.622,4.735,0S180.568,201.666,180.568,201.666Z" transform="translate(-169.394 -81.039)"/></g><path class="d" d="M415.009,199.134a7.437,7.437,0,1,0,7.437,7.437,7.437,7.437,0,0,0-7.437-7.437Zm-21.746-58.361v7.437H400.7l13.388,27.12-5.6,9.111a7.15,7.15,0,0,0-.93,3.534c0,4.979,3.4,7.437,8.02,7.437h43.486v-7.152H416.49a.878.878,0,0,1-.93-.93,4.677,4.677,0,0,1,.4-.925l3.716-5.868h27.707a7.276,7.276,0,0,0,6.507-3.9l13.394-23.03a4.319,4.319,0,0,0,.374-1.861,3.576,3.576,0,0,0-3.721-3.534H408.886l-3.534-7.437Zm58.361,58.361a7.437,7.437,0,1,0,7.443,7.439,7.437,7.437,0,0,0-7.443-7.439Z" transform="translate(200.178 2191.365)"/><path class="b" d="M418.858,149.722h-6.237v-6.237h-4.678v6.237h-6.237V154.4h6.237v6.237h4.678V154.4h6.237Z" transform="translate(223.428 2202.992)"/></g></svg>