<svg xmlns="http://www.w3.org/2000/svg" xmlns:xlink="http://www.w3.org/1999/xlink" width="421.785" height="408.104" viewBox="0 0 421.785 408.104"><defs><linearGradient id="a" x1="0.5" y1="1" x2="0.5" gradientUnits="objectBoundingBox"><stop offset="0" stop-color="gray" stop-opacity="0.251"/><stop offset="0.54" stop-color="gray" stop-opacity="0.122"/><stop offset="1" stop-color="gray" stop-opacity="0.102"/></linearGradient></defs><g transform="translate(-1299.991 -2671)"><g transform="translate(1299.991 2671)"><ellipse cx="161.001" cy="7.184" rx="161.001" ry="7.184" transform="translate(18.877 393.735)" fill="#6f42c1" opacity="0.1"/><path d="M342.732,396.681v4.342H214.339V397.5a42.2,42.2,0,0,0,2.9-77.935H341.86a42.2,42.2,0,0,0,.872,77.119Z" transform="translate(-67.296 -8.398)" fill="#c8cad7"/><path d="M341.311,319.562a42.258,42.258,0,0,0-23.319,27.977H240.018A42.268,42.268,0,0,0,216.7,319.562Z" transform="translate(-66.747 -8.398)" opacity="0.1"/><path d="M95.043,301.616V325.99c0,13.458,9.849,24.368,22,24.368H494.825c12.154,0,22-10.91,22-24.368V301.616Z" transform="translate(-95.043 -12.572)" fill="#c8cad7"/><path d="M342.732,382.97v4.342H214.339v-3.526a42.2,42.2,0,0,0,9.9-5.275H334.859A42.414,42.414,0,0,0,342.732,382.97Z" transform="translate(-67.296 5.314)" opacity="0.1"/><rect width="213.252" height="12.864" rx="4.279" transform="translate(104.613 385.18)" fill="#c8cad7"/><path d="M516.828,89.086a22,22,0,0,0-22-21.97H117.063a22,22,0,0,0-22.02,21.97V360.9H516.828Z" transform="translate(-95.043 -67.116)" fill="#474157"/><path d="M503.171,94.948V328.51a10.827,10.827,0,0,1-10.832,10.832H115.227a10.827,10.827,0,0,1-10.832-10.832V94.948a10.832,10.832,0,0,1,10.832-10.832H492.311a10.832,10.832,0,0,1,10.86,10.832Z" transform="translate(-92.868 -63.162)" fill="#f8f9fa"/><circle cx="5.08" cy="5.08" r="5.08" transform="translate(205.818 5.38)" fill="#fff"/><circle cx="12.526" cy="12.526" r="12.526" transform="translate(198.372 301.909)" fill="#fff"/><path d="M188.659,88.512V338.319H115.227a10.827,10.827,0,0,1-10.832-10.832V93.925l.394-1.471,1.055-3.942Z" transform="translate(-92.868 -62.139)" fill="#fff"/><path d="M182.316,84.526v22.486H88.629V86l.394-1.471Z" transform="translate(-77.103 -54.211)" fill="#f8f9fa"/><path d="M503.171,94.947H104.395A10.827,10.827,0,0,1,115.227,84.12H492.311a10.827,10.827,0,0,1,10.86,10.827Z" transform="translate(-92.868 -63.161)" fill="#c8cad7"/><circle cx="2.709" cy="2.709" r="2.709" transform="translate(19.649 23.663)" fill="#ededf4"/><circle cx="2.709" cy="2.709" r="2.709" transform="translate(27.772 23.663)" fill="#ededf4"/><circle cx="2.709" cy="2.709" r="2.709" transform="translate(35.895 23.663)" fill="#ededf4"/><rect width="56.26" height="5.18" transform="translate(25.529 40.214)" fill="#6f42c1"/><rect width="56.26" height="5.18" transform="translate(25.529 65.476)" fill="#6f42c1" opacity="0.5"/><rect width="56.26" height="5.18" transform="translate(25.529 83.338)" fill="#6f42c1" opacity="0.5"/><rect width="56.26" height="5.18" transform="translate(25.529 101.199)" fill="#6f42c1" opacity="0.5"/><rect width="56.26" height="5.18" transform="translate(25.529 119.055)" fill="#6f42c1" opacity="0.5"/><rect width="56.26" height="5.18" transform="translate(25.529 136.916)" fill="#6f42c1" opacity="0.5"/><rect width="56.26" height="5.18" transform="translate(25.529 154.777)" fill="#6f42c1" opacity="0.5"/><rect width="56.26" height="5.18" transform="translate(25.529 172.633)" fill="#6f42c1" opacity="0.5"/><rect width="249.297" height="0.833" transform="translate(141.852 59.264)" fill="#dce0ed" opacity="0.5"/><rect width="249.297" height="0.833" transform="translate(141.852 78.602)" fill="#dce0ed" opacity="0.5"/><rect width="249.297" height="0.833" transform="translate(141.852 97.945)" fill="#dce0ed" opacity="0.5"/><rect width="249.297" height="0.833" transform="translate(141.852 117.283)" fill="#dce0ed" opacity="0.5"/><rect width="249.297" height="0.833" transform="translate(141.852 136.621)" fill="#dce0ed" opacity="0.5"/><path d="M443.721,183.973H194.114V145.94l22.891,11.282,23.691,3.209,20.787-6.268,25.079-19.449,12.614-7.284,9.222-1.777,8.822.472,14.513,7.168,19.721,12.564,15.479,1.993,12.276-4.231,26.012-21.309,13.281-4.736,13.9,2.149,11.321,6.535Z" transform="translate(-52.567 -46.524)" fill="#6f42c1" opacity="0.5"/><path d="M253.386,167.65c-22.475,0-43.251-13.747-43.507-13.925l.616-.922c.322.217,32.291,21.37,59.458,10.771,9.916-3.859,16.956-9.872,23.8-15.679,7.123-6.068,13.853-11.8,23.019-14.291a34.437,34.437,0,0,1,30.748,6.907c7.462,6.135,22.331,15.99,38.038,13.042,8.006-1.5,14.758-7.351,21.9-13.542,13.68-11.882,27.872-24.146,52.351-6.535l-.65.9c-23.791-17.1-37.621-5.113-50.991,6.474-7.262,6.3-14.125,12.215-22.425,13.8-16.157,3.026-31.336-7.018-38.948-13.275a33.337,33.337,0,0,0-29.748-6.69c-8.933,2.421-15.546,8.073-22.592,14.058-6.89,5.869-14.019,11.943-24.1,15.874a46.571,46.571,0,0,1-16.973,3.037Z" transform="translate(-68.333 -53.731)" fill="#6f42c1"/><circle cx="6.18" cy="6.18" r="6.18" transform="translate(255.632 72.839)" fill="#6f42c1"/><path d="M196.233,248.636c-8.445-4.864-11.659-6.068-11.659-6.074l-.172-.122a7.029,7.029,0,0,1-2.132-2.693v-.5c.139-2.576,1.965-4.914,3.7-6.957q2.221-2.615,4.442-5.225a5.1,5.1,0,0,0,1.144-1.854,4.16,4.16,0,0,0,.122-1.11v-.455c0-1.3-.061-2.6-.105-3.887-.044-1.138-.333-2.565-1.471-2.776-.589-.122-1.366.089-1.666-.416a.933.933,0,0,1-.078-.672v.05a.285.285,0,0,1,0-.061,15.348,15.348,0,0,0,.422-2.671,3.831,3.831,0,0,0-.183-1.349c-.661-1.882-2.92-2.654-4.919-3.009s-4.242-.661-5.5-2.221a18.168,18.168,0,0,0-1.11-1.5,4.375,4.375,0,0,0-2.049-1.01,11.5,11.5,0,0,0-7.429.65,6.692,6.692,0,0,1-3,.949c-1.06-.061-2.043-.833-3.131-1.016-1.754-.3-3.437.994-4.3,2.521a6.107,6.107,0,0,0-.794,2.97v.172h0a4.364,4.364,0,0,0,1.144,3.031c.755.788,1.882,1.327,2.221,2.36.128.422.1.877.211,1.3a.6.6,0,0,0,.05.161l-.061.072a13.2,13.2,0,0,0-2.776,8.117,13.469,13.469,0,0,0,9.439,12.77v.4a5.741,5.741,0,0,1-1.832,4.469l-11.982,4.808s-7.218-.855-9.816,9.688a17.856,17.856,0,0,0-.444,5.347,15.7,15.7,0,0,1-1.977,8.012c-2.959,5.8-2.287,19.094,3.764,20.41,5.713,1.244,7.951.727,8.184.666v.233c-.094,2.5-1,24.019-4.292,26.65-.916.716-.744,1.2,0,1.532v.389c-.1,1.577-.611,7.568-2.815,10.982-2.532,3.936-2.243,26.7-2.243,26.7L141.4,371.893s1.072,8.295,0,9.744c-.961,1.294-2.221,31.986-2.51,38.637h-.111a3.237,3.237,0,0,0-2.587,1.577c-1.432,2.3-6.374,6.535-6.374,6.535-1.072,1.527-5.047,2.987-7.146,3.676a4.584,4.584,0,0,0-.811.35,4.264,4.264,0,0,0-1.8,1.9,2.032,2.032,0,0,0-.189,1.582c.555,1.316,11.7,2.221,14.519.922,2.221-1.033,11.015-2.4,14.669-2.932a3.009,3.009,0,0,0,2.609-2.61,1.721,1.721,0,0,0-.333-1.3h0c-.7-.866-1.06-3.231-1.221-4.775a3.248,3.248,0,0,0,.822-.489,35.028,35.028,0,0,1,2.015-14.091c2.687-7.107,3.5-20.276,2.826-28.838,0,0,8.2-35.295,14.658-38.587h0c.1.122,3.231,4.142,3.631,16.59.4,12.642,4.969,20.937,4.969,20.937s-2.015,21.465,0,29.5l-2.648,12.653a4.113,4.113,0,0,1-.316-.289s.078.355.189.916l-.056.266.111.028a24.487,24.487,0,0,1,.555,5.963c-.105.927-.361,2.188-.555,3.431-.278,1.949-.355,3.842.672,4.253,1.666.677,11.565,1.6,13.247-.555a3.115,3.115,0,0,0,.489-3.254,3.334,3.334,0,0,0-.489-.827s-2.626-4.292-1.882-7.318a2.221,2.221,0,0,0-.316-1.732,89.43,89.43,0,0,1,2.3-14.208c1.666-6.335,5.23-20.226,2.621-29.365h0c-.1-.355-.211-.711-.333-1.055a39.42,39.42,0,0,1-1.482-15.407,31.32,31.32,0,0,1,0-13.431c1.6-7.368,2.726-14.585,2.726-14.585s.888-9.744.111-15.718l-.05-.383.422-.094s-2.282-10.138-3.093-16.59c-.189-1.527-.439-3.453-.711-5.513a14.564,14.564,0,0,0,2.193-.555c7.262-2.5,9.544-25.157,9.544-25.157V264.5S204.706,253.527,196.233,248.636ZM142.139,423.528l-.355-.189h0Z" transform="translate(-89.288 -35.328)" fill="url(#a)"/><path d="M188.16,358.356c3.148,9.056-.555,23.752-2.221,30.315a92,92,0,0,0-2.221,14.436,30.537,30.537,0,0,1-11.548-.267l2.776-13.514c-1.965-8.006,0-29.4,0-29.4s-4.442-8.273-4.853-20.871c-.389-12.4-3.442-16.407-3.542-16.534h0c-6.346,3.3-14.33,38.46-14.33,38.46.655,8.528-.133,21.653-2.776,28.743a35.561,35.561,0,0,0-1.971,14.041,4.331,4.331,0,0,1-3.57.683c-3.748-.605-8.239-3.836-8.239-3.836s1.444-38.31,2.493-39.764,0-9.711,0-9.711l1.7-13.386s-.261-22.7,2.221-26.65c2.154-3.4,2.648-9.378,2.748-10.943v-.389l3.8-4.547s36.75-2.776,39.5,0c.677.677,1.11,2.221,1.344,4.153.755,5.952-.111,15.663-.111,15.663s-1.11,7.218-2.676,14.563a31.869,31.869,0,0,0,0,13.386,39.975,39.975,0,0,0,1.471,15.368Z" transform="translate(-85.595 -14.346)" fill="#65617d"/><path d="M179,395.964c-1.638,2.165-11.282,1.249-12.925.555-1-.416-.927-2.3-.655-4.242.172-1.238.422-2.5.522-3.415.267-2.365-.783-7.157-.783-7.157s2.165,2.3,2.687,0a2.5,2.5,0,0,1,1.871-1.777,4.908,4.908,0,0,1,3.409.211c1.7.738,4.547,2.315,4.036,4.442-.722,3.015,1.838,7.29,1.838,7.29a3.291,3.291,0,0,1,.477.827A3.148,3.148,0,0,1,179,395.964Z" transform="translate(-78.735 5.594)" fill="#a27772"/><path d="M178.985,393.594c-1.638,2.165-11.282,1.249-12.925.555-1-.416-.927-2.3-.655-4.242a11.121,11.121,0,0,0,5.73.616,16.064,16.064,0,0,1,2.065-.067,47.223,47.223,0,0,0,6.263-.122,3.148,3.148,0,0,1-.478,3.259Z" transform="translate(-78.719 7.964)" opacity="0.1"/><path d="M150.666,356.074c.655,8.528-.133,21.653-2.776,28.743a35.561,35.561,0,0,0-1.971,14.041,4.331,4.331,0,0,1-3.57.683c.794-5.552,4.164-29.387,6.329-48.226a78.857,78.857,0,0,1,13.975-36.222l2.3,2.526C158.65,320.912,150.666,356.074,150.666,356.074Z" transform="translate(-84.04 -9.437)" opacity="0.1"/><path d="M178.242,239.409l-1.6,7.873-7.845,13.192-9.677-4.136s-13.159-13.78-4.891-15.746a7.289,7.289,0,0,0,2.748-1.221,5.694,5.694,0,0,0,2.143-4.747,14.6,14.6,0,0,0-1.344-5.647l16.928-5.313a26.938,26.938,0,0,0-1.216,6.857c-.128,4.608,1.582,6.885,2.987,7.967a5.031,5.031,0,0,0,1.771.922Z" transform="translate(-81.913 -30.704)" fill="#fbbebe"/><path d="M173.516,223.663a26.939,26.939,0,0,0-1.216,6.857,13.381,13.381,0,0,1-14.369,4.1,14.6,14.6,0,0,0-1.344-5.647Z" transform="translate(-80.728 -30.704)" opacity="0.1"/><path d="M176.945,224.432a13.353,13.353,0,1,1-3.911-9.475A13.386,13.386,0,0,1,176.945,224.432Z" transform="translate(-82.22 -33.638)" fill="#fbbebe"/><path d="M178.242,236.611l-1.6,7.873-7.845,13.192-9.677-4.136s-13.159-13.78-4.891-15.746a7.289,7.289,0,0,0,2.748-1.221c-1.494,4.1,4.669,12.637,4.669,12.637.716,1.055,2.365.394,2.365.394,3.964-.6,11.276-12.015,12.465-13.914A5.029,5.029,0,0,0,178.242,236.611Z" transform="translate(-81.913 -27.906)" opacity="0.1"/><path d="M187.771,299.381c-2.332.555-15.224,3.381-20.11,2.671-5.38-.788-15.846-1.31-15.846-1.31s-6.663.355-8.706-.555V299.8l3.8-4.547s36.75-2.776,39.5,0C187.133,295.905,187.522,297.443,187.771,299.381Z" transform="translate(-83.863 -14.34)" opacity="0.1"/><path d="M165.315,249.583s-6.924-9.589-4.314-13.325l-11.7,4.8s-7.04-.855-9.577,9.65a18.323,18.323,0,0,0-.439,5.336,15.874,15.874,0,0,1-1.927,7.978c-2.887,5.774-2.221,19.033,3.676,20.343s8.006.655,8.006.655-.788,24.019-4.2,26.772,8.7,2.1,8.7,2.1,10.46.555,15.84,1.316,20.471-2.776,20.471-2.776-2.221-10.1-3.02-16.534-2.621-20.121-2.621-20.121L197.6,257.639s2.36-10.96-5.907-15.812-11.382-6.052-11.382-6.052-8.328,13.531-12.637,14.186C167.675,249.972,166.032,250.638,165.315,249.583Z" transform="translate(-85.587 -27.886)" fill="#fd7e14"/><path d="M147.688,250.068s-.128,4.331.661,6.035,3.67,11.154,3.67,11.154h-6.557s3.542-3.8,3.281-5.641S147.688,250.068,147.688,250.068Z" transform="translate(-83.316 -24.562)" opacity="0.1"/><path d="M166.975,280.043s-14.491-3.542-15.84-6.557-5.075-9.777-5.075-9.777l1.527-2.06,7.051,5.552s8.4,6.663,12.337,7.351S166.975,280.043,166.975,280.043Z" transform="translate(-83.177 -21.868)" fill="#fbbebe"/><path d="M166.975,280.043s-14.491-3.542-15.84-6.557-5.075-9.777-5.075-9.777l1.527-2.06,7.051,5.552s8.4,6.663,12.337,7.351S166.975,280.043,166.975,280.043Z" transform="translate(-83.177 -21.868)" opacity="0.05"/><path d="M178.136,262.754v7.862H176.87a36.777,36.777,0,0,0-17.844,4.619l-2.365,1.31-.638.355-4.07-9.161,3.809-3.415h.194c.933.089,4.958.422,6.663-.15s3.637-2.3,8.406-1.077c2.354.6,4.358,3.237,6.663,2.415Z" transform="translate(-81.807 -21.63)" fill="#fbbebe"/><path d="M188.862,252.815l2.626,2.954v7.151s-2.221,22.575-9.316,25.068-19.738-1.444-19.738-1.444-3.27-8.661-1.743-9.189,13.514-3.687,13.514-3.687-.172-13.242,2.454-17.178c0,0-1.7-12.337,4.2-12.6S188.862,252.815,188.862,252.815Z" transform="translate(-79.868 -25.999)" opacity="0.1"/><path d="M189.173,252.815l2.626,2.954v7.151s-2.221,22.575-9.322,25.068-19.732-1.444-19.732-1.444-3.27-8.661-1.743-9.189,13.508-3.687,13.508-3.687-.167-13.242,2.46-17.178c0,0-1.71-12.337,4.2-12.6S189.173,252.815,189.173,252.815Z" transform="translate(-79.796 -25.999)" fill="#fd7e14"/><path d="M172.758,230.121a5.169,5.169,0,0,0-.3-2.554,1.96,1.96,0,0,0-2.077-1.2c-1.11.261-1.61,1.721-2.709,2.071a2.151,2.151,0,0,1-2.387-1.227,6.274,6.274,0,0,1-.455-2.854v-3.292a5.424,5.424,0,0,0-.777-3.42c-.916-1.166-3.065-1.666-4.5-1.627a3.815,3.815,0,0,0-2.571,1.033,3.331,3.331,0,0,1-2.7.966,2.337,2.337,0,0,1-1.882-1.632.132.132,0,0,1,0-.044,13.386,13.386,0,1,1,19.91,17.767,37.075,37.075,0,0,0,.45-3.986Z" transform="translate(-81.703 -33.642)" opacity="0.1"/><path d="M154.931,219.16a2.354,2.354,0,0,1-1.888-1.632c-.105-.422-.078-.877-.205-1.294-.305-1.033-1.4-1.571-2.143-2.354-1.477-1.566-1.382-4.147-.339-6.035.849-1.521,2.487-2.8,4.2-2.51,1.06.189,1.977.944,3.054,1.01a6.2,6.2,0,0,0,2.926-.944,11.016,11.016,0,0,1,7.251-.644,4.2,4.2,0,0,1,2,1,16.99,16.99,0,0,1,1.066,1.5c1.221,1.56,3.415,1.866,5.363,2.221s4.159,1.11,4.8,3c.428,1.244,0,2.593-.228,3.887a1.11,1.11,0,0,0,.05.805c.305.505,1.066.294,1.666.411,1.11.233,1.388,1.666,1.427,2.776q.078,1.932.106,3.886a5,5,0,0,1-.111,1.438,5.091,5.091,0,0,1-1.11,1.8l-4.336,5.208c-1.921,2.31-3.959,5-3.576,7.978a1.851,1.851,0,0,1-2.287-1.333,5.883,5.883,0,0,1,.144-2.954,36.281,36.281,0,0,0,.683-5.125,5.186,5.186,0,0,0-.3-2.56,1.965,1.965,0,0,0-2.082-1.2c-1.11.261-1.6,1.721-2.7,2.071a2.144,2.144,0,0,1-2.387-1.227,6.346,6.346,0,0,1-.455-2.854v-3.292a5.423,5.423,0,0,0-.777-3.42c-.911-1.166-3.065-1.666-4.5-1.627a3.814,3.814,0,0,0-2.571,1.033,3.331,3.331,0,0,1-2.737.966Z" transform="translate(-82.359 -35.179)" fill="#7c5c5c"/><path d="M156.371,249.8l4.114,16.879S163.722,266.664,156.371,249.8Z" transform="translate(-80.779 -24.624)" opacity="0.1"/><path d="M168.479,247.509s-5.386,8.817-3.281,17.928l1,.072S164.409,261.289,168.479,247.509Z" transform="translate(-78.839 -25.157)" opacity="0.1"/><path d="M170.533,288.061s6.607-2.188,7.09,2.887C177.623,290.948,176.374,287.467,170.533,288.061Z" transform="translate(-77.485 -15.834)" opacity="0.1"/><path d="M157.172,264.333s-1.31,9.189,1.049,12.864a28.839,28.839,0,0,1-11.548,1.571l-.788-14.436Z" transform="translate(-83.218 -21.244)" opacity="0.1"/><path d="M156.66,276.234l-.638.355-4.07-9.161,3.809-3.415h.194C155.894,264.457,154.834,272.347,156.66,276.234Z" transform="translate(-81.807 -21.318)" opacity="0.1"/><path d="M157.89,264.013s-1.31,9.189,1.049,12.864a28.839,28.839,0,0,1-11.548,1.571L142.8,264.013Z" transform="translate(-83.936 -21.318)" fill="#fd7e14"/><path d="M151.7,390.433a2.965,2.965,0,0,1-2.548,2.6c-3.559.555-12.148,1.888-14.313,2.92-2.776,1.316-13.647.394-14.175-.916a2.082,2.082,0,0,1,.189-1.582,4.325,4.325,0,0,1,2.548-2.221c2.054-.688,5.93-2.138,6.973-3.659,0,0,4.83-4.231,6.207-6.513a3.142,3.142,0,0,1,2.526-1.571c1.149-.056,2.426.527,2.954,3.043,0,0,6.3,3.592,8,.444,0,0,.261,4.836,1.3,6.163h0a1.738,1.738,0,0,1,.333,1.294Z" transform="translate(-89.102 5.54)" fill="#a27772"/><path d="M151.7,388.614a2.965,2.965,0,0,1-2.548,2.6c-3.559.555-12.148,1.888-14.313,2.92-2.776,1.316-13.647.394-14.175-.916a2.082,2.082,0,0,1,.189-1.582,4.2,4.2,0,0,1,1.76-1.888c1.777,1.177,5.719,2.332,14.391.977,8.273-1.294,12.365-2.56,14.363-3.42h0A1.738,1.738,0,0,1,151.7,388.614Z" transform="translate(-89.102 7.359)" opacity="0.1"/><g transform="translate(67.214 175.459)" opacity="0.1"><path d="M174.891,214.836a.28.28,0,0,0,0-.067,11.966,11.966,0,0,0,.405-2.976,18.82,18.82,0,0,1-.405,2.387A1.455,1.455,0,0,0,174.891,214.836Z" transform="translate(-143.694 -208.923)"/><path d="M173.115,227.659a3.886,3.886,0,0,1,.322,1.5,4.5,4.5,0,0,0-.322-2.088,1.971,1.971,0,0,0-2.082-1.2c-1.11.261-1.6,1.727-2.7,2.076a2.155,2.155,0,0,1-2.387-1.233,6.2,6.2,0,0,1-.455-2.854v-3.287a5.423,5.423,0,0,0-.777-3.42c-.916-1.171-3.065-1.666-4.5-1.632a3.792,3.792,0,0,0-2.565,1.038,3.331,3.331,0,0,1-2.7.961,2.326,2.326,0,0,1-1.888-1.632c-.111-.422-.078-.872-.205-1.294-.305-1.033-1.4-1.566-2.143-2.349a4.32,4.32,0,0,1-1.11-2.776,4.492,4.492,0,0,0,1.11,3.365c.738.783,1.838,1.321,2.143,2.354.128.416.094.872.205,1.294a2.349,2.349,0,0,0,1.888,1.632,3.331,3.331,0,0,0,2.7-.966,3.847,3.847,0,0,1,2.56-1.027c1.438-.044,3.587.466,4.5,1.632a5.451,5.451,0,0,1,.777,3.42v3.287a6.213,6.213,0,0,0,.455,2.859,2.151,2.151,0,0,0,2.387,1.227c1.11-.35,1.582-1.81,2.7-2.076a1.982,1.982,0,0,1,2.088,1.194Z" transform="translate(-149.574 -209.465)"/><path d="M179.136,221.454a5.164,5.164,0,0,1-1.11,1.81q-2.176,2.6-4.336,5.2c-1.821,2.193-3.753,4.73-3.614,7.529.133-2.565,1.921-4.9,3.614-6.935l4.336-5.208a5.141,5.141,0,0,0,1.11-1.8,5,5,0,0,0,.111-1.444,3.6,3.6,0,0,1-.111.849Z" transform="translate(-144.807 -206.874)"/><path d="M168.272,232.512a3.1,3.1,0,0,1-.133-.705,3.515,3.515,0,0,0,.133,1.294,1.849,1.849,0,0,0,2.287,1.333c0-.194-.039-.389-.044-.555A1.873,1.873,0,0,1,168.272,232.512Z" transform="translate(-145.258 -204.268)"/></g><path d="M132.881,381.714s1.371,2.41,6.346.283" transform="translate(-86.243 6.058)" opacity="0.1"/><path d="M166.957,382.182s4.292,5.047,9.694,1.666" transform="translate(-78.317 6.167)" opacity="0.1"/><path d="M177.674,333.751s-3.031,1.893-3.131,2.976,1.566-.788,1.566-.788Z" transform="translate(-76.553 -5.098)" opacity="0.1"/><path d="M179.077,345.525a6.29,6.29,0,0,1-3.731,1.455c-2.265.1-2.076,3.054-.594,2.165A37.277,37.277,0,0,0,179.077,345.525Z" transform="translate(-76.762 -2.359)" opacity="0.1"/><path d="M179.017,347.061s-1.455,7.14-2.637,5.763" transform="translate(-76.125 -2.002)" opacity="0.1"/><g transform="translate(163.882 180.778)" opacity="0.5"><rect width="36.644" height="7.773" fill="#fd7e14"/><rect width="36.644" height="7.773" transform="translate(84.143)" fill="#fd7e14"/><rect width="36.644" height="7.773" transform="translate(168.285)" fill="#fd7e14"/></g><path d="M226.871,262.581c0-11.349,9.233-20.065,20.587-20.065h.161v-5.163h-.161c-14.2,0-25.751,11.032-25.751,25.229a25.686,25.686,0,0,0,8.825,19.379l3.657-3.661A20.543,20.543,0,0,1,226.871,262.581Z" transform="translate(-65.582 -27.52)" fill="#6f42c1"/><path d="M246.376,237.356v5.163a20.582,20.582,0,1,1-13.431,36.294l-3.67,3.659a25.74,25.74,0,1,0,17.089-45.117Z" transform="translate(-63.821 -27.519)" fill="#6f42c1" opacity="0.5"/><path d="M383.74,242.3c11.349,0,20.065,9.233,20.065,20.587v.161h5.164v-.161c0-14.2-11.032-25.751-25.229-25.751a25.673,25.673,0,0,0-19.377,8.822l3.659,3.659A20.543,20.543,0,0,1,383.74,242.3Z" transform="translate(-32.401 -27.569)" fill="#6f42c1" opacity="0.5"/><path d="M410.258,261.806h-5.163A20.582,20.582,0,1,1,368.8,248.375l-3.642-3.659a25.74,25.74,0,1,0,45.117,17.089Z" transform="translate(-33.695 -25.807)" fill="#6f42c1"/><path d="M325.957,238.581l-1.027,5.141c7.556,3.048,12.387,10.455,12.387,19.088a20.582,20.582,0,1,1-28.832-18.849l-2.287-4.636A25.74,25.74,0,1,0,342.5,262.811C342.5,251.668,335.906,242.162,325.957,238.581Z" transform="translate(-49.46 -27.234)" fill="#6f42c1" opacity="0.5"/><path d="M314.413,242.272a17.978,17.978,0,0,1,7.168,1.488l1.027-5.136a22.707,22.707,0,0,0-8.195-1.516,25.635,25.635,0,0,0-10.55,2.271l2.31,4.625A20.371,20.371,0,0,1,314.413,242.272Z" transform="translate(-46.473 -27.576)" fill="#6f42c1"/></g></g></svg>