<svg id="Logo_Main" data-name="Logo Main" xmlns="http://www.w3.org/2000/svg" viewBox="0 0 731 121"><defs><style>.cls-1{fill:#fd7e14;}.cls-2{fill:#f8f9fa;}.cls-3{fill:#09f;}</style></defs><title>Main Logo copy</title><path class="cls-1" d="M112.36,102c-10.07,0-18.48-2.24-23.25-5.69V87.63h9.42V92.2c3,1.87,7.08,2.62,13.83,2.62s10.74-1.12,13.84-3.18V82.78a35.79,35.79,0,0,1-14.94,2.89c-9.08,0-16.39-2.24-22.15-7V40h9.42V74.85c3.43,2.24,8.52,3.36,13.83,3.36S122.77,77,126.2,74.85V40h9.42V95.84C131.19,99.2,123.44,102,112.36,102Z"/><path class="cls-1" d="M177.13,85.92c-11.07,0-19.27-3.58-23.81-7.52V18.94h9.42V43A38,38,0,0,1,177.68,40c9.52,0,17.83,2.76,23.25,7.53V78.4C196.28,82.53,187.87,85.92,177.13,85.92Zm14.39-34.5c-3-2.38-8-4-14.39-4-6.64,0-11.29,1.56-14.39,3.67v23.4c3.1,2.39,8.08,4.13,14.39,4.13,6.64,0,11.62-1.93,14.39-4.13Z"/><path class="cls-1" d="M239.24,85.92c-8.2,0-16.17-1.84-22.15-6.33V46.83c5.32-4.31,13-6.79,22-6.79,8.85,0,16.6,2.39,22.14,6.79V66.19H226.06v9.45c3.43,2.11,7.86,2.85,13.18,2.94,5.09,0,9.08-.64,12.73-2.94V70.78h9.41v8.81C255.51,83.81,247.65,85.92,239.24,85.92Zm12.84-35.23c-3.1-2-6.86-3.31-13-3.31-5.76,0-9.64,1.11-13.07,3.31V59.4h26Z"/><path class="cls-1" d="M298.13,48a18.53,18.53,0,0,0-10.51,3.28V86h-9.41V47.07a32.29,32.29,0,0,1,19.92-6.57h9.19V48Z"/><path class="cls-2" d="M429.33,85.92c-10.74,0-19.16-3.3-23.81-7.62V47.57c4.43-4,12.74-7.53,23.81-7.53,10.74,0,19,3.31,23.8,7.53V78.3C448.59,82.34,440.4,85.92,429.33,85.92Zm14.39-34.5c-2.88-2.29-7.86-4-14.39-4-6.31,0-11.41,1.66-14.4,4v23c2.77,2.2,7.75,4.13,14.4,4.13,6.31,0,11.29-1.74,14.39-4.13Z"/><path class="cls-2" d="M493,85.92c-10.74,0-19.16-3.39-23.81-7.52V47.57C474.61,42.8,482.91,40,492.43,40A38,38,0,0,1,507.38,43v-24h9.41V78.4C512.25,82.34,504.06,85.92,493,85.92Zm14.39-34.87c-3.1-2.11-7.75-3.67-14.39-3.67-6.43,0-11.41,1.66-14.4,4v23c2.77,2.2,7.75,4.13,14.4,4.13,6.31,0,11.29-1.74,14.39-4.13Z"/><path class="cls-1" d="M565.87,85.92c-8.2,0-16.17-1.84-22.15-6.33V46.83c5.32-4.31,13-6.79,22-6.79,8.85,0,16.6,2.39,22.14,6.79V66.19H552.69v9.45c3.44,2.11,7.86,2.85,13.18,2.94,5.09,0,9.08-.64,12.73-2.94V70.78H588v8.81C582.14,83.81,574.28,85.92,565.87,85.92Zm12.84-35.23c-3.1-2-6.86-3.31-13-3.31-5.76,0-9.63,1.11-13.07,3.31V59.4h26Z"/><path class="cls-3" d="M529.5,91.54V28.79c5.31-5.12,14.38-9.35,24.1-9.79v5c-7.13.55-14.25,3.56-18.14,7.23V89.09c3.89,3.68,11,6.68,18.14,7.24v5C543.88,100.89,534.81,96.66,529.5,91.54Z"/><path class="cls-3" d="M578.06,101.33v-5c7.26-.56,14.38-3.56,18.14-7.24V31.24c-3.76-3.67-10.88-6.68-18.14-7.23V19c9.72.44,18.78,4.67,24.09,9.79V91.54C596.84,96.66,587.78,100.89,578.06,101.33Z"/><path class="cls-2" d="M615.4,57.07v-7h37.51v7Zm0,17.15v-7h37.51v7Z"/><path class="cls-2" d="M668.3,86V78L700,63,668.3,47.91V40L709,59.23v7.41Z"/><path class="cls-2" d="M387,39.37V27.88C378.49,21.54,368.07,19,358.79,19c-.62,0-1.24,0-1.87,0v0a47.21,47.21,0,0,0-20.59,5.31,41.43,41.43,0,0,0-5.76,3.57V45c-2.15,2.64-5.81,4-9.58,4v7.15c3.95,0,7.52,1.41,9.58,4V77.13A48.48,48.48,0,0,0,358.79,86c9.66,0,20-2.72,28.21-8.87V65.63h-8.61v7a34.69,34.69,0,0,1-19.6,5.61,35.16,35.16,0,0,1-19.33-5.44V58.22c-.09-.1-.19-.2-.27-.3a17.48,17.48,0,0,0-8.61-5.19l-.78-.22.78-.24a17.47,17.47,0,0,0,8.61-5.17,4,4,0,0,1,.27-.31V32.22l.26-.23a37.56,37.56,0,0,1,38.67.32v7.06Z"/><path class="cls-1" d="M49.39,85.38a42,42,0,0,1-21.81-5.89l-.18-.11V68.11a9.88,9.88,0,0,0-7-2.38h-.37V60.28h.37a10,10,0,0,0,7-2.39V46.62l.18-.11A34.72,34.72,0,0,1,32,44.14,41.58,41.58,0,0,1,48,40.63h1.42A41,41,0,0,1,71.2,46.51l.18.11v8.13H64V50a30.54,30.54,0,0,0-14.64-3.47A30.72,30.72,0,0,0,35,49.86v9.53l-.09.11-.22.21a13.6,13.6,0,0,1-6,3.29,13.66,13.66,0,0,1,6,3.29l.21.21.1.11v9.48a30.15,30.15,0,0,0,14.44,3.42A29.62,29.62,0,0,0,64,76V71.25h7.35v8.13l-.18.11C65.29,83.28,57.54,85.38,49.39,85.38Z"/><path class="cls-1" d="M48,41v0l1.43,0C56.5,41,64.48,42.67,71,46.83v7.55H64.41V49.74a30.82,30.82,0,0,0-15-3.63,31.13,31.13,0,0,0-14.61,3.42l-.2.15v9.57l-.21.2a13.89,13.89,0,0,1-6.59,3.4c-.2,0-.39.11-.6.15l.6.15a14,14,0,0,1,6.59,3.41l.21.2v9.55a30.3,30.3,0,0,0,14.81,3.58,29.9,29.9,0,0,0,15-3.69V71.62H71v7.55C64.7,83.22,56.79,85,49.39,85a41.47,41.47,0,0,1-21.61-5.83V68c-1.58-1.68-4.32-2.61-7.34-2.61V60.66c2.89,0,5.69-.88,7.34-2.61V46.83a32.59,32.59,0,0,1,4.41-2.34A41.1,41.1,0,0,1,48,41m0-.75a42,42,0,0,0-16.1,3.56,32.92,32.92,0,0,0-4.49,2.39l-.35.22V57.73a9.72,9.72,0,0,1-6.59,2.18h-.75V66.1h.75A9.7,9.7,0,0,1,27,68.27V79.59l.36.22a42.43,42.43,0,0,0,22,5.94c8.22,0,16-2.11,22-6l.34-.22V70.87H63.66v4.89a29.37,29.37,0,0,1-14.27,3.38,29.9,29.9,0,0,1-14.06-3.27v-9.4l-.2-.22L35,66.1,34.91,66a13.2,13.2,0,0,0-5-3,13.22,13.22,0,0,0,5-3l.07-.07.15-.16.2-.21V50.09a30.41,30.41,0,0,1,14.06-3.23,30.39,30.39,0,0,1,14.27,3.32v5h8.09V46.42l-.35-.22a41.25,41.25,0,0,0-22-6H48Zm0,1.5Z"/></svg>