<svg xmlns="http://www.w3.org/2000/svg" width="839.13" height="584.84" viewBox="0 0 839.13 584.84"><defs><style>.a{fill:#6f42c1;opacity:0.1;}</style></defs><path class="a" d="M556.1,635.747c-71.833,0-135.426-1.793-194.413-5.482-29.05-1.815-51.237-3.821-71.937-6.506-26.137-3.39-48.951-7.807-69.746-13.5V57.271a130.206,130.206,0,0,1,22.358-4.887,181.38,181.38,0,0,1,23.683-1.478,274.971,274.971,0,0,1,46.829,4.385c12.182,2.145,24.432,4.8,37.45,8.1,11.594,2.946,23.532,6.349,36.5,10.4,24.078,7.528,48.1,16.21,71.326,24.605l.009,0,.073.026c8.29,3,16.862,6.095,25.3,9.092,16.251,5.77,29.688,10.312,42.288,14.3,15.512,4.9,29.671,8.928,43.288,12.3,32.283,8,61.628,12.323,89.713,13.213,3.147.1,6.355.151,9.533.151,59.806,0,113.464-16.708,143.535-44.693a87.931,87.931,0,0,1,17.163-12.365,111.211,111.211,0,0,1,20.195-8.648,139.189,139.189,0,0,1,22.3-5.079,163.989,163.989,0,0,1,23.475-1.66,176.734,176.734,0,0,1,33.3,3.178,160.811,160.811,0,0,1,31.2,9.256A137.073,137.073,0,0,1,982.2,99.464a126.452,126.452,0,0,1,19.057,15.3,112.545,112.545,0,0,1,14.89,17.892,97.116,97.116,0,0,1,10.184,19.754,83.963,83.963,0,0,1,4.439,16.913,77.1,77.1,0,0,1,.795,15.953c-.136,2.516-.4,5.144-.795,7.813a94.093,94.093,0,0,1-3.052,13.555,111.372,111.372,0,0,1-4.931,13.121,158.924,158.924,0,0,1-14.428,25.192c-11.293,16.414-25.709,32.457-39.651,47.972-12.91,14.367-26.26,29.223-37.176,44.409-9.507,13.221-15.991,25.935-19.272,37.79-3.965,14.326-3.263,27.5,2.086,39.17a57.126,57.126,0,0,0,4.987,8.7,68.7,68.7,0,0,0,6.429,7.886,102.762,102.762,0,0,0,16.376,13.8c12.211,8.485,26.926,15.883,41.157,23.037,16.617,8.355,33.8,16.993,47.456,27.536a86.731,86.731,0,0,1,18.265,18.481,54.472,54.472,0,0,1,9.092,42.137,59.615,59.615,0,0,1-8.288,20.7,67.266,67.266,0,0,1-16.285,17.563c-.349.251-.691.5-1.022.745l-.039.029c-.571.42-1.111.816-1.684,1.214a93.106,93.106,0,0,1-10.723,6.45,149.6,149.6,0,0,1-31.97,11.755,323.64,323.64,0,0,1-34.9,6.68c-52.636,7.569-106.868,9.031-159.313,10.444C716.055,633.567,635.574,635.746,556.1,635.747Z" transform="translate(-220 -50.907)"/></svg>