<svg xmlns="http://www.w3.org/2000/svg" width="957.013" height="716.56" viewBox="0 0 957.013 716.56"><defs><style>.a{fill:#6f42c1;opacity:0.1;}</style></defs><path class="a" d="M304.523,830.581c-6.032,0-12-.288-17.725-.855a156.611,156.611,0,0,1-27.218-5.118,137.721,137.721,0,0,1-24.221-9.354A115.8,115.8,0,0,1,214.9,802.213a94.194,94.194,0,0,1-15.94-16.179,77.954,77.954,0,0,1-9.1-15.073,70.181,70.181,0,0,1-4.974-15.182,78.4,78.4,0,0,1-1.176-7.772,86.8,86.8,0,0,1-.263-13.963,105.144,105.144,0,0,1,1.846-14.078,155.806,155.806,0,0,1,8.818-28.444,317.528,317.528,0,0,1,13.653-28.731c5.087-9.608,10.675-19.41,16.078-28.889l.007-.012c10.007-17.556,20.355-35.709,28.03-53.488,6.686-15.478,10.288-29.607,10.708-41.993.507-14.967-3.65-27.5-12.355-37.241a56.015,56.015,0,0,0-7.553-6.983A70.512,70.512,0,0,0,233.8,488.4a111.16,111.16,0,0,0-20.983-8.668c-15.18-4.718-32.738-7.671-49.718-10.528h-.007c-9.9-1.666-20.134-3.388-29.857-5.447a205.222,205.222,0,0,1-27.716-7.631,91.465,91.465,0,0,1-24.2-12.649A52.649,52.649,0,0,1,67.188,427.52a49.653,49.653,0,0,1-6.207-19.285,53.516,53.516,0,0,1,.045-11.8,58.712,58.712,0,0,1,2.669-11.959,69.672,69.672,0,0,1,13.279-23.071c.3-.339.6-.677.887-1l.031-.036.011-.012c.5-.568.969-1.1,1.474-1.65a105.115,105.115,0,0,1,9.73-9.285c8.4-7.117,18.518-13.81,30.946-20.462a388.181,388.181,0,0,1,35.376-16.394c54.009-22.308,111.283-39.168,166.67-55.472,74.735-22.009,152.014-44.768,228.789-65.69,41.2-11.228,78.861-21.013,115.125-29.912,40.7-9.988,78.609-18.613,115.888-26.365,33.145-6.9,58.523-11.459,82.287-14.8,30.2-4.244,56.88-6.307,81.561-6.307,6.82,0,13.578.162,20.086.483,8.475.409,16.984,1.127,25.288,2.133a241.827,241.827,0,0,1,26.566,4.667V671.239c-10.961,2.265-22.763,4.069-35.078,5.364a668.3,668.3,0,0,1-69.188,3.3c-32.368,0-64.928-1.808-96.415-3.558H817c-9.588-.533-19.5-1.084-29.342-1.579-26.451-1.33-46.878-1.924-66.232-1.924-23.685,0-45.011.931-65.2,2.845-11.172,1.06-22.159,2.448-32.656,4.126-11.11,1.776-22.07,3.941-32.576,6.434a370.678,370.678,0,0,0-43.921,13.36,331.024,331.024,0,0,0-42.342,19.175,238.2,238.2,0,0,0-37.012,24.564,147.85,147.85,0,0,0-27.929,29.53,104.249,104.249,0,0,1-24.716,24.608,157.6,157.6,0,0,1-33.212,18.1A204.139,204.139,0,0,1,343.8,826.76,208.182,208.182,0,0,1,304.523,830.581Z" transform="translate(-60.677 -114.021)"/></svg>