<svg xmlns="http://www.w3.org/2000/svg" width="904.679" height="575.082" viewBox="0 0 904.679 575.082"><defs><style>.a{fill:#6f42c1;opacity:0.1;}</style></defs><path class="a" d="M764.473,789.61h0c-3.643,0-7.334-.079-10.972-.235v-535.6c27.064-2.84,54.433-5.216,80.9-7.514h.016c82.7-7.19,168.211-14.624,253.161-20.428,45.494-3.108,87-5.5,126.884-7.3,44.762-2.026,86.335-3.271,127.093-3.8,10.757-.135,20.412-.2,29.514-.2,39.329,0,71.159,1.258,100.168,3.957,17.091,1.591,33.422,3.733,48.541,6.367a450.678,450.678,0,0,1,46.516,10.556c18.539,5.314,34.628,11.609,47.82,18.711a126.774,126.774,0,0,1,19.345,12.622,76.1,76.1,0,0,1,14.44,15,55.377,55.377,0,0,1,10.234,34.947c-.436,11.393-3.9,23.484-10.284,35.939a192.235,192.235,0,0,1-15.081,24.147c-5.666,7.894-11.916,15.8-17.96,23.451l-.006.008c-4.891,6.189-9.948,12.589-14.67,18.947-25.295,34.141-60.442,98.778-11.634,148.09A219.74,219.74,0,0,0,1605.4,582.1c8.113,6.648,16.5,13.522,22.545,21.166a62.776,62.776,0,0,1,12.8,30.339,99.872,99.872,0,0,1,1.032,16.061c-.045,4.729-.342,9.847-.935,16.105a173.082,173.082,0,0,1-3.262,21.515,103.671,103.671,0,0,1-7.021,21.175,83.925,83.925,0,0,1-5.513,10.059,79.033,79.033,0,0,1-7.165,9.494,80.946,80.946,0,0,1-9.054,8.769,90.4,90.4,0,0,1-11.18,7.884,116.322,116.322,0,0,1-21.2,9.793,169.576,169.576,0,0,1-24.036,6.38,281.655,281.655,0,0,1-52.74,4.508c-10.714,0-22.075-.462-33.766-1.372-14.557-1.137-29.252-2.757-44.925-4.952-13.961-1.955-28.379-4.325-44.079-7.245-29.161-5.423-58.382-11.964-86.641-18.289-10.042-2.248-20.425-4.572-30.656-6.812-60.266-13.2-125.067-25.406-190.593-25.406-6.611,0-13.237.125-19.693.372a434.349,434.349,0,0,0-48.718,4.618,377.042,377.042,0,0,0-48,10.42,259.648,259.648,0,0,0-43.232,16.52c-13.636,6.79-25.217,14.5-34.421,22.916a100.174,100.174,0,0,1-21.749,14.819,149.365,149.365,0,0,1-26.768,10.447,204.818,204.818,0,0,1-30.13,6.187A246.133,246.133,0,0,1,764.473,789.61Z" transform="translate(-753.5 -214.529)"/></svg>