<svg xmlns="http://www.w3.org/2000/svg" width="940.806" height="612.244" viewBox="0 0 940.806 612.244"><g transform="translate(-139.671)"><rect width="452" height="93" transform="translate(476.902 96.25)" fill="none" stroke="#3f3d56" stroke-miterlimit="10" stroke-width="1"/><path d="M250.224,372.229C263.113,352.088,287.517,338.5,315.5,338.5c41.421,0,75,29.773,75,66.5,0,23.482-13.726,44.121-34.453,55.953" transform="translate(-43.056 -143.875)" fill="none" stroke="#3f3d56" stroke-miterlimit="10" stroke-width="1"/><rect width="452" height="93" transform="translate(444.902 114.25)" fill="#6f42c1"/><circle cx="7" cy="7" r="7" transform="translate(152.171 11.5)" fill="#6f42c1"/><circle cx="7" cy="7" r="7" transform="translate(176.171 11.5)" fill="#6f42c1"/><circle cx="7" cy="7" r="7" transform="translate(200.171 11.5)" fill="#6f42c1"/><rect width="840" height="546" transform="translate(140.171 0.5)" fill="none" stroke="#3f3d56" stroke-miterlimit="10" stroke-width="1"/><line x2="840" transform="translate(140.171 30.835)" fill="none" stroke="#3f3d56" stroke-miterlimit="10" stroke-width="1"/><circle cx="7" cy="7" r="7" transform="translate(154.171 8.5)" fill="none" stroke="#3f3d56" stroke-miterlimit="10" stroke-width="1"/><circle cx="7" cy="7" r="7" transform="translate(178.171 8.5)" fill="none" stroke="#3f3d56" stroke-miterlimit="10" stroke-width="1"/><circle cx="7" cy="7" r="7" transform="translate(202.171 8.5)" fill="none" stroke="#3f3d56" stroke-miterlimit="10" stroke-width="1"/><line y2="516.441" transform="translate(403.898 30.835)" fill="none" stroke="#3f3d56" stroke-miterlimit="10" stroke-width="1"/><rect width="147" height="20" transform="translate(498.402 284.75)" fill="#f2f2f2"/><rect width="147" height="20" transform="translate(729.402 284.75)" fill="#f2f2f2"/><rect width="147" height="20" transform="translate(506.402 274.75)" fill="none" stroke="#3f3d56" stroke-miterlimit="10" stroke-width="1"/><rect width="147" height="20" transform="translate(498.402 439.75)" fill="#f2f2f2"/><rect width="147" height="20" transform="translate(506.402 429.75)" fill="none" stroke="#3f3d56" stroke-miterlimit="10" stroke-width="1"/><rect width="378" height="20" transform="translate(498.902 360.25)" fill="#f2f2f2"/><rect width="378" height="20" transform="translate(506.902 352.25)" fill="none" stroke="#3f3d56" stroke-miterlimit="10" stroke-width="1"/><rect width="147" height="20" transform="translate(737.402 274.75)" fill="none" stroke="#3f3d56" stroke-miterlimit="10" stroke-width="1"/><path d="M974.123,360.062a20.526,20.526,0,0,0,1.2,3.143,52.964,52.964,0,0,1,.653,39.866c3.588-.225,7.171.356,10.756.633s7.295.232,10.628-1.171,6.233-4.409,6.719-8.117c.656-5.007-2.988-9.374-6.187-13.174-3.26-3.872-6.409-8.143-7.374-13.194-1.06-5.551.449-12.061-3.058-16.385a3.388,3.388,0,0,0-1.166-.994c-1.884-.863-6.788-.836-8.684.233C974.693,352.548,973.406,356.888,974.123,360.062Z" transform="translate(-43.056 -143.875)" fill="#3f3d56"/><path d="M1073.43,722.2a25.212,25.212,0,0,1-1.178,4.907s-3.633,8.362-18.577,6.107c-9.762-1.474-9.7-6.05-8.078-9.592a22.854,22.854,0,0,1,2.665-4.148c1.453-1.963,1.309-9.452,1.819-16.283s3.594-7.184,3.594-7.184l.183,7.69c5.819-7.633,9.888,1.309,9.888,1.309s8.274.172,7.263-4.07c-1.078-4.518-2.687-11.672-2.687-11.672s4,1.858,4.728,3.167-.144,18.83-.8,20.5,0,6.181.947,7.489A2.854,2.854,0,0,1,1073.43,722.2Z" transform="translate(-43.056 -143.875)" fill="#3f3d56"/><path d="M1070.67,700.489a8.148,8.148,0,0,1-5.7,7.764,10.973,10.973,0,0,1-9.583-1.461,5.625,5.625,0,0,1-2.369-5.274l.231-1.932.838-7.044,1.151-9.705s12.383-6.307,11.559-3.926c-.31.89.375,4.894,1.357,9.561.7,3.337,1.544,7.01,2.29,10.124a8.058,8.058,0,0,1,.223,1.893Z" transform="translate(-43.056 -143.875)" fill="#fbbebe"/><path d="M1052.26,699.957s10.723-12.595,19.5,1.145l-1.472,8.8H1052.26Z" transform="translate(-43.056 -143.875)" opacity="0.1"/><path d="M1052.26,700.83s10.723-12.595,19.5,1.145l-1.472,8.8H1052.26Z" transform="translate(-43.056 -143.875)" fill="#3f3d56"/><circle cx="1.09" cy="1.09" r="1.09" transform="translate(1022.05 562.541)" fill="#f2f2f2"/><circle cx="1.09" cy="1.09" r="1.09" transform="translate(1008.11 560.793)" fill="#f2f2f2"/><circle cx="1.09" cy="1.09" r="1.09" transform="translate(1018.29 569.932)" fill="#f2f2f2"/><circle cx="1.09" cy="1.09" r="1.09" transform="translate(1008.77 568.65)" fill="#f2f2f2"/><circle cx="1.09" cy="1.09" r="1.09" transform="translate(1020.4 566.469)" fill="#f2f2f2"/><circle cx="1.09" cy="1.09" r="1.09" transform="translate(1008.11 564.722)" fill="#f2f2f2"/><circle cx="1.09" cy="1.09" r="1.09" transform="translate(1017.2 573.987)" fill="#f2f2f2"/><circle cx="1.091" cy="1.091" r="1.091" transform="translate(1008.769 572.578)" fill="#f2f2f2"/><path d="M980.432,735.4,965.6,740.414s-7.851-7.851-5.67-10.25c.929-1.025,1.74-4.427,2.36-8,.2-1.125.379-2.273.536-3.363.515-3.546.811-6.525.811-6.525s17.229-8.288,14.394,0a20.413,20.413,0,0,0-.816,7.249,48.109,48.109,0,0,0,.92,7.258A69.129,69.129,0,0,0,980.432,735.4Z" transform="translate(-43.056 -143.875)" fill="#fbbebe"/><path d="M980.432,735.4,965.6,740.414s-7.851-7.851-5.67-10.25c.929-1.025,1.74-4.427,2.36-8A15.5,15.5,0,0,1,964.022,727c12.811,7.036,13.029,2.835,13.029,2.835a7.788,7.788,0,0,1,1.086-3.049,69.138,69.138,0,0,0,2.294,8.61Z" transform="translate(-43.056 -143.875)" opacity="0.1"/><path d="M983.7,746.848s-2.565,1.906-10.085,2.181a39.658,39.658,0,0,0-5.866.661,73.289,73.289,0,0,1-24.058.65,52.174,52.174,0,0,1-6.118-1.2c-7.742-2.129-1.854-7.031-1.854-7.031s.371-.323,1.012-.807c1.64-1.23,5.042-3.5,8.532-4.048,4.85-.763,9.321-9.378,9.321-9.378l3.053-5.509c4.741-4.087,6.381,5.509,6.381,5.509,12.811,7.036,13.029,2.835,13.029,2.835.711-3.764,2.02-3.764,2.02-3.764s3.193,8.6,4.349,10.743a2.125,2.125,0,0,0,.284.436C984.466,738.887,983.7,746.848,983.7,746.848Z" transform="translate(-43.056 -143.875)" fill="#3f3d56"/><circle cx="1.09" cy="1.09" r="1.09" transform="translate(919.819 586.507)" fill="#f2f2f2"/><circle cx="1.09" cy="1.09" r="1.09" transform="translate(913.574 589.56)" fill="#f2f2f2"/><circle cx="1.09" cy="1.09" r="1.09" transform="translate(916.931 587.996)" fill="#f2f2f2"/><circle cx="1.09" cy="1.09" r="1.09" transform="translate(910.06 591.36)" fill="#f2f2f2"/><path d="M978.033,712.28a20.412,20.412,0,0,0-.816,7.25c-3.869-1.3-10.207-1.073-14.39-.724.515-3.546.811-6.525.811-6.525S980.868,703.992,978.033,712.28Z" transform="translate(-43.056 -143.875)" opacity="0.1"/><path d="M1068.15,688.472c-5.361,5.256-10.486,5.583-14.067,4.07l1.151-9.705s12.383-6.307,11.559-3.926C1066.49,679.8,1067.17,683.8,1068.15,688.472Z" transform="translate(-43.056 -143.875)" opacity="0.1"/><path d="M974.108,509.451s-8.507,4.8-10.033,14.176-4.144,21.373-6.107,23.554-8.07,9.16-5.67,12.868,2.835,16.357,2.835,16.357-.872,11.341,1.527,15.049,4.362,27.262-.872,34.241c0,0-1.745,16.139-1.09,17.666s-2.835,5.452-1.745,8.724,6.325,63.466,5.67,65.865c0,0,16.575-2.4,20.937,1.527,0,0,.872-6.543,0-11.123s.654-22.682,2.617-27.262,2.4-22.028,1.745-23.772c0,0,3.49-15.485,2.181-18.538s5.67-31.188,5.67-31.188,3.49-6.761,2.617-7.633c0,0,5.67-3.708,5.016-6.543s5.234-6.107,5.234-6.107,5.234,12.868,6.979,14.831,1.813,14.612,3.96,17.229,4.982,16.357,7.817,20.065,14.176,13.522,15.921,24.645c0,0,10.25,15.921,9.814,20.937s11.559,14.176,23.118-2.835a15.113,15.113,0,0,1-6.107-12.431c0-8.506-9.16-35.768-9.16-35.768s-5.234-7.633-3.271-11.341.218-14.612.218-14.612l4.144-6.761s.654-6.543,1.309-13.3-3.926-14.176-1.745-17.448-.872-19.617-.872-19.617-2.714-28.175-6.761-29.891S974.108,509.451,974.108,509.451Z" transform="translate(-43.056 -143.875)" fill="#3f3d56"/><path d="M993.98,469.976s-4.48.51-9.919,1.025c-7.869.742-17.749,1.492-18.926.72-1.989-1.309,0-17.884,0-17.884s.685-18.1.031-30.751c-.532-10.264,6.264-17.8,8.842-20.279.6-.576.973-.877.973-.877l2.181,1.745,12.431,21.155Z" transform="translate(-43.056 -143.875)" fill="#fbbebe"/><path d="M1042.59,400.4l-12.213,7.415-20.065,15.267s-20.719-10.9-15.485-17.229a9.806,9.806,0,0,0,1.915-4.279c1.575-7.284-1.915-17.749-1.915-17.749s27.3-36.862,25.735-8.288c-.628,11.48,2.8,17.749,7.136,21.142C1034.15,401.734,1042.59,400.4,1042.59,400.4Z" transform="translate(-43.056 -143.875)" fill="#fbbebe"/><path d="M1042.59,400.4l-12.213,7.415-20.065,15.267s-20.719-10.9-15.485-17.229a9.806,9.806,0,0,0,1.915-4.279c1.575-7.284-1.915-17.749-1.915-17.749s27.3-36.862,25.735-8.288c-.628,11.48,2.8,17.749,7.136,21.142C1034.15,401.734,1042.59,400.4,1042.59,400.4Z" transform="translate(-43.056 -143.875)" opacity="0.1"/><ellipse cx="25.258" cy="26.76" rx="25.258" ry="26.76" transform="translate(936.803 196.988)" opacity="0.1"/><ellipse cx="25.258" cy="26.76" rx="25.258" ry="26.76" transform="translate(936.803 196.116)" fill="#fbbebe"/><path d="M1042.59,400.4l-12.213,7.415-20.065,15.267s-20.719-10.9-15.485-17.229a9.806,9.806,0,0,0,1.915-4.279c22.856,19.541,29.8-.685,30.956-4.894C1034.15,401.734,1042.59,400.4,1042.59,400.4Z" transform="translate(-43.056 -143.875)" opacity="0.1"/><path d="M993.98,469.976s-4.48.51-9.919,1.025c-.214-4.693-.925-10-.794-13.238.218-5.452.218-6.107-1.527-9.16s-1.527-5.452-1.309-9.378c.209-3.76-.785-4.519-4.323-10.525l-.475-.816c-1.736-2.992-2.233-8.405-2.251-13.517a.124.124,0,0,0,0-.057c0-1.217.017-2.417.061-3.559,0-.048,0-.1,0-.144.127-3.455.41-6.4.558-7.8.6-.576.973-.877.973-.877l2.181,1.745,12.431,21.155Z" transform="translate(-43.056 -143.875)" opacity="0.1"/><path d="M1058.46,403.625c-.017-.009,2.634,2,2.617,1.991-7.9-3.407-12.375,13.753-13.574,19.153-.222.995-.332,1.588-.332,1.588s.14,1.448.314,3.751c.589,7.712,1.6,24.981-.75,29.181a6.511,6.511,0,0,0-.563,1.4c-.741,2.552-.654,6.386-.27,10.111a101.291,101.291,0,0,0,1.924,11.389s5.234,13.3,3.053,22.028a32.359,32.359,0,0,0-.637,9.893,58.516,58.516,0,0,0,1.383,9.025c.2.868.344,1.365.344,1.365q-4.933,1.688-9.644,2.8a93.555,93.555,0,0,1-18.651,2.526c-29.491.938-49.128-13.195-53.765-17.046-.366-.305-.641-.545-.816-.711-3.053-2.835,2.835-5.016,2.181-6.979s2.984-6.325,2.984-6.325-.8-7.2,2.469-8.724,5.67-6.761,7.516-11.123-.318-15.7-.1-21.155.218-6.107-1.527-9.16-1.527-5.452-1.309-9.378c.209-3.76-.785-4.519-4.323-10.525l-.475-.816c-1.736-2.992.969-8.147.952-13.259,0-.017,1,.017,1,0,0-1.217-2.044-2.857-2-4,0-.048-1-.952-1-1a32.4,32.4,0,0,0-.479-7.694c17.448-8.942,21.591.375,21.591.375,25.517,21.962,31.31-5.483,31.31-5.483,13.888-4.746,32.156,8.039,33.2,8.781Z" transform="translate(-43.056 -143.875)" fill="#fd7e14"/><path d="M964.838,467.753s-2.183,11.647,4.13,18.146a7.1,7.1,0,0,0,8.213,1.411c2.1-1.031,4.442-2.561,5.322-4.523C984.238,478.918,978.8,460.01,964.838,467.753Z" transform="translate(-43.056 -143.875)" fill="#fbbebe"/><path d="M1046.73,459.289a6.512,6.512,0,0,0-.563,1.4l1-25.5.314-5.082C1048.07,437.82,1049.08,455.089,1046.73,459.289Z" transform="translate(-43.056 -143.875)" opacity="0.1"/><path d="M1050.88,504.217a32.359,32.359,0,0,0-.637,9.893c-1.413,2.56-2.621,4.733-3.407,6.146-.615,1.1-.973,1.736-.973,1.736a41.192,41.192,0,0,0-3.537,5.308,10.264,10.264,0,0,0-1.479,4.314c0,3.354-3.381,25.709-19.411,20.148-10.351-3.59-3.742-14.591,2.238-21.936a82.137,82.137,0,0,1,6.377-6.962s1.849-2.355,3.625-4.82a29.267,29.267,0,0,0,3.136-4.994c.763-2.181,5.8-11.777,5.8-11.777s5-10.578,3.908-15.485c-.611-2.748-.676-9.539-.615-14.987a101.294,101.294,0,0,0,1.924,11.389S1053.06,495.493,1050.88,504.217Z" transform="translate(-43.056 -143.875)" opacity="0.1"/><path d="M1061.13,405.638s7.851,5.452,7.633,19.629-2.835,38.712-2.835,38.712l-1.636,15.267s-2.072,6.216-1.745,8.07-17.128,32.933-17.128,32.933-5.016,6.272-5.016,9.624-3.38,25.707-19.41,20.146,8.615-28.9,8.615-28.9,6-7.633,6.761-9.814,5.8-11.777,5.8-11.777,5-10.578,3.906-15.485-.436-22.723-.436-22.723l1.09-27.875.436-7.088S1051.2,402.8,1061.13,405.638Z" transform="translate(-43.056 -143.875)" fill="#fbbebe"/><path d="M977.842,457.674l11.9-4.323a5.633,5.633,0,0,1,5.791,1.2l15.794,14.917s.872,2.394-.291,2.288-18.175-17.118-18.175-17.118L976,460.307h0a2.8,2.8,0,0,1,1.845-2.633Z" transform="translate(-43.056 -143.875)" fill="#6f42c1"/><path d="M951.624,333.807l16.357-5.927-18.174-17.118-16.866,5.67Z" fill="#4b4b5b"/><circle cx="1.454" cy="1.454" r="1.454" transform="translate(925.598 379.898)" fill="#f2f2f2"/><circle cx="1.454" cy="1.454" r="1.454" transform="translate(915.711 398.58)" fill="#f2f2f2"/><circle cx="1.454" cy="1.454" r="1.454" transform="translate(994.692 405.372)" fill="#f2f2f2"/><circle cx="1.454" cy="1.454" r="1.454" transform="translate(1002.916 431.765)" fill="#f2f2f2"/><circle cx="1.454" cy="1.454" r="1.454" transform="translate(999.716 424.337)" fill="#f2f2f2"/><circle cx="1.454" cy="1.454" r="1.454" transform="translate(996.933 414.854)" fill="#f2f2f2"/><circle cx="1.454" cy="1.454" r="1.454" transform="translate(920.327 388.742)" fill="#f2f2f2"/><circle cx="1.454" cy="1.454" r="1.454" transform="translate(909.944 408.28)" fill="#f2f2f2"/><path d="M1061.08,405.6l0,.013c-7.9-3.407-12.375,13.753-13.574,19.153l-12.4-17.749s-5.086,8.139-21.517,9.378-20.427-12.506-20.427-12.506c-2.255-.174-12.466,18.207-16.174,24.806l-.475-.816c-1.736-2.992-2.233-8.405-2.251-13.517a.124.124,0,0,0,0-.057c.013-1.186.035-2.377.061-3.559,0-.048,0-.1,0-.144.179-4.842.659-8.676.659-8.676,17.448-8.942,21.591.375,21.591.375,25.517,21.962,31.31-5.483,31.31-5.483C1041.77,392.077,1060.04,404.862,1061.08,405.6Z" transform="translate(-43.056 -143.875)" fill="#fd7e14"/><path d="M964.293,565.065c.218.545,18.538,21.7,25.3,22.791S964.293,565.065,964.293,565.065Z" transform="translate(-43.056 -143.875)" opacity="0.1"/><path d="M977.411,532.617s.186,14.916-4.394,18.284S977.411,532.617,977.411,532.617Z" transform="translate(-43.056 -143.875)" opacity="0.1"/><path d="M985.884,537.913s-.436,17.557,6.107,21.7C991.991,559.613,980,547.945,985.884,537.913Z" transform="translate(-43.056 -143.875)" opacity="0.1"/><path d="M977.815,628.095s-12.213,9.051-15.594,9.705S977.815,628.095,977.815,628.095Z" transform="translate(-43.056 -143.875)" opacity="0.1"/><path d="M974.766,351.146c-2.631,2.217-1.684,6.82,1,8.968s6.364,2.477,9.8,2.566c6.621.171,13.349-.213,19.769,1.415a16.026,16.026,0,0,1,7.583,3.885,17.067,17.067,0,0,1,3.941,7.84,42.937,42.937,0,0,1,1.348,13.143c-.156,2.974-.622,5.966-.2,8.913a28.5,28.5,0,0,0,2.782,7.93,329.42,329.42,0,0,0,16.848,31.254,5.817,5.817,0,0,0,2.2,2.4c1.575.76,3.427-.011,5-.775a37.543,37.543,0,0,1-1.543-9.471,4.233,4.233,0,0,0,4.475-1.563,12.418,12.418,0,0,0,2.039-4.583l2.935-10.111c.907-3.127,2.253-6.715,5.376-7.636a19.468,19.468,0,0,0,3.3-.769,4.222,4.222,0,0,0,2.037-4.16,8.985,8.985,0,0,0-1.969-4.44c-4.415-5.94-11.777-9.463-15.224-16.013-2.96-5.625-2.446-12.394-1.469-18.674s2.335-12.737.833-18.913a25.059,25.059,0,0,0-9.726-13.932,39.23,39.23,0,0,0-15.907-6.54,15.882,15.882,0,0,0-8.04.055c-1.983.67-3.681,1.993-5.617,2.79-4.4,1.81-9.466.729-14.08,1.881a18.934,18.934,0,0,0-10.414,7.524,39.94,39.94,0,0,0-5.454,11.861c-.85,2.773.513,3.882-1.964,5.39" transform="translate(-43.056 -143.875)" opacity="0.1"/><path d="M975.2,350.274c-2.631,2.217-1.684,6.82,1,8.968s6.364,2.477,9.8,2.566c6.621.171,13.349-.213,19.769,1.415a16.027,16.027,0,0,1,7.583,3.885,17.067,17.067,0,0,1,3.941,7.84,42.937,42.937,0,0,1,1.348,13.143c-.156,2.974-.622,5.966-.2,8.913a28.5,28.5,0,0,0,2.782,7.929,329.459,329.459,0,0,0,16.848,31.254,5.817,5.817,0,0,0,2.195,2.4c1.575.76,3.427-.011,5-.775a37.543,37.543,0,0,1-1.543-9.471,4.233,4.233,0,0,0,4.475-1.563,12.419,12.419,0,0,0,2.039-4.583l2.935-10.111c.907-3.127,2.253-6.715,5.376-7.636a19.47,19.47,0,0,0,3.3-.769,4.222,4.222,0,0,0,2.037-4.16,8.984,8.984,0,0,0-1.969-4.44c-4.415-5.94-11.777-9.463-15.224-16.013-2.96-5.625-2.446-12.394-1.469-18.674s2.335-12.737.833-18.913a25.059,25.059,0,0,0-9.726-13.932,39.231,39.231,0,0,0-15.907-6.54,15.883,15.883,0,0,0-8.04.055c-1.983.67-3.681,1.993-5.617,2.79-4.4,1.81-9.466.729-14.08,1.881a18.934,18.934,0,0,0-10.414,7.524,39.943,39.943,0,0,0-5.453,11.861c-.85,2.773.513,3.882-1.964,5.39" transform="translate(-43.056 -143.875)" fill="#3f3d56"/><path d="M972.471,469.1s19.956-13.3,25.626-5.125-17.557,18.211-17.557,18.211Z" transform="translate(-43.056 -143.875)" fill="#fbbebe"/><path d="M978.994,405.884c-.073,1.283-.319,2.855-1.034,3.088,1.862-.044,3.7,1.326,5.546.916,1.376-.3,2.67-1.64,3.5-3.61a1.683,1.683,0,0,1,.469-.77c.194-.114.4,0,.6.114a58.219,58.219,0,0,1,10.039,7.578c1.022.952,2.157,1.984,3.277,1.486a25.023,25.023,0,0,0-2.142-10.494,13.41,13.41,0,0,0-5.717-6.254,17.509,17.509,0,0,0-6.723-1.75,6.735,6.735,0,0,1-2.9-.721c-.991-.583-4.157-4.365-4.867-1.611-.343,1.33.1,4.163.11,5.634C979.168,401.625,979.115,403.76,978.994,405.884Z" transform="translate(-43.056 -143.875)" fill="#3f3d56"/><g opacity="0.1"><path d="M1042.15,436.409a5.818,5.818,0,0,1-2.195-2.4,329.445,329.445,0,0,1-16.848-31.254,28.5,28.5,0,0,1-2.782-7.93c-.427-2.947.039-5.939.2-8.913a42.933,42.933,0,0,0-1.348-13.143,17.068,17.068,0,0,0-3.941-7.84,16.027,16.027,0,0,0-7.583-3.885c-6.42-1.629-13.148-1.245-19.769-1.415-3.44-.089-7.116-.418-9.8-2.566a6.774,6.774,0,0,1-2.24-7.185,4.325,4.325,0,0,1-.557.445c-2.567,2.234-1.618,6.787,1.053,8.921,2.688,2.148,6.364,2.477,9.8,2.566,6.621.171,13.349-.213,19.769,1.415a16.026,16.026,0,0,1,7.583,3.885,17.066,17.066,0,0,1,3.941,7.84,42.937,42.937,0,0,1,1.348,13.143c-.156,2.974-.622,5.966-.2,8.913a28.5,28.5,0,0,0,2.782,7.929,329.416,329.416,0,0,0,16.848,31.254,5.817,5.817,0,0,0,2.2,2.4c1.575.76,3.427-.01,5-.775-.131-.439-.251-.88-.366-1.323a3.984,3.984,0,0,1-2.889-.083Z" transform="translate(-43.056 -143.875)"/><path d="M974.989,350.511c.106-.064.2-.127.287-.19.017-.015.031-.032.048-.047Z" transform="translate(-43.056 -143.875)"/><path d="M977.021,348.14c-.092.063-.182.126-.287.19l.335-.237c-.017.015-.031.032-.048.047,2.069-1.415.864-2.545,1.677-5.2a40.348,40.348,0,0,1,5.323-11.668,23.135,23.135,0,0,0-1.614,1.988,39.944,39.944,0,0,0-5.453,11.861,18.559,18.559,0,0,0-.427,3.535A4.175,4.175,0,0,1,977.021,348.14Z" transform="translate(-43.056 -143.875)"/><path d="M1063.73,401.5a19.47,19.47,0,0,1-3.3.769,6.36,6.36,0,0,0-3.648,3.221,5.238,5.238,0,0,1,1.9-1.04,19.47,19.47,0,0,0,3.3-.769,3.72,3.72,0,0,0,1.808-2.216C1063.77,401.477,1063.75,401.49,1063.73,401.5Z" transform="translate(-43.056 -143.875)"/><path d="M1045.61,426.163q.038,1.134.146,2.264a4.912,4.912,0,0,0,2.584-1.647,7.284,7.284,0,0,0,.867-1.349A3.888,3.888,0,0,1,1045.61,426.163Z" transform="translate(-43.056 -143.875)"/></g><path d="M967.644,466.508s5.262-2.13,8.353-1.657" transform="translate(-43.056 -143.875)" opacity="0.1"/><path d="M982.816,490.477s2.671,4.144,16.173,5.889S982.816,490.477,982.816,490.477Z" transform="translate(-43.056 -143.875)" opacity="0.1"/><path d="M977.96,505.962s12.145,10.687,31.626,6.761S977.96,505.962,977.96,505.962Z" transform="translate(-43.056 -143.875)" opacity="0.1"/><line y1="31" x2="199.998" transform="translate(880.402 580.75)" fill="none" stroke="#3f3d56" stroke-miterlimit="10" stroke-width="1"/><path d="M224.367,419c0,26.132,17.168,48.713,42.064,59.416l-35.6-86.283A59.386,59.386,0,0,0,224.367,419Zm125.019-3.331c0-8.159-3.313-13.809-6.155-18.207-3.783-5.438-7.328-10.043-7.328-15.481,0-6.069,5.2-11.718,12.531-11.718.331,0,.645.036.969.053a79.973,79.973,0,0,0-50.4-17.33c-26.074,0-49.014,11.833-62.359,29.756,1.751.046,3.4.078,4.8.078,7.807,0,19.891-.838,19.891-.838,4.023-.21,4.5,5.017.48,5.438,0,0-4.045.421-8.544.629l27.179,71.508,16.334-43.329-11.63-28.18c-4.019-.209-7.826-.629-7.826-.629-4.022-.209-3.55-5.648.471-5.438,0,0,12.326.838,19.659.838,7.805,0,19.891-.838,19.891-.838,4.026-.21,4.5,5.017.479,5.438,0,0-4.052.421-8.542.629l26.971,70.966,7.443-22c3.228-9.131,5.683-15.69,5.683-21.341Z" transform="translate(-43.056 -143.875)" fill="#6f42c1"/><path d="M300.311,424.773l-22.393,57.555a83.947,83.947,0,0,0,45.868-1.051,5.388,5.388,0,0,1-.531-.91Zm64.179-37.448a44.908,44.908,0,0,1,.5,6.788c0,6.7-1.415,14.23-5.675,23.646l-22.8,58.3c22.189-11.445,37.113-32.708,37.113-57.064a59.783,59.783,0,0,0-9.143-31.673Z" transform="translate(-43.056 -143.875)" fill="#6f42c1"/></g></svg>