<svg xmlns="http://www.w3.org/2000/svg" xmlns:xlink="http://www.w3.org/1999/xlink" width="378" height="97" viewBox="0 0 378 97"><defs><filter id="a" x="0" y="0" width="378" height="97" filterUnits="userSpaceOnUse"><feOffset dy="3" input="SourceAlpha"/><feGaussianBlur stdDeviation="3" result="b"/><feFlood flood-opacity="0.161"/><feComposite operator="in" in2="b"/><feComposite in="SourceGraphic"/></filter></defs><g transform="translate(-155 -5138)"><g transform="matrix(1, 0, 0, 1, 155, 5138)" filter="url(#a)"><rect width="360" height="79" rx="20" transform="translate(9 6)" fill="#fff"/></g><g transform="translate(53)"><g transform="translate(-41)"><g transform="translate(264 5154)"><path d="M89.74,9.636c-.082,1.044-.158,2.088-.246,3.132-.131,1.538-.27,3.075-.406,4.613q-.273,3.1-.544,6.208c-.166,1.918-.325,3.836-.49,5.753-.177,2.05-.359,4.1-.536,6.15-.169,1.956-.332,3.912-.5,5.868q-.26,3.018-.526,6.036-.193,2.221-.382,4.443-.269,3.1-.541,6.208c-.128,1.481-.256,2.962-.376,4.444-.05.616-.039.619-.651.79L69.3,67.539c-1.815.507-3.632,1.009-5.444,1.527a1.651,1.651,0,0,1-.946,0q-10.339-2.9-20.681-5.785a1.905,1.905,0,0,0-.273-.082c-.26-.031-.333-.183-.352-.428-.108-1.368-.229-2.735-.349-4.1q-.268-3.075-.539-6.15-.25-2.877-.493-5.754-.268-3.1-.541-6.207-.19-2.193-.374-4.387-.255-2.99-.512-5.98c-.134-1.557-.273-3.114-.408-4.671q-.253-2.933-.5-5.867c-.13-1.5-.266-3-.4-4.5q-.22-2.506-.435-5.012c-.008-.094,0-.189,0-.284.031-.162.09-.289.292-.278.152.008.3,0,.457,0q25.631,0,51.262,0A1.4,1.4,0,0,1,89.74,9.636Z" transform="translate(-37.026 -9.461)" fill="#006eba"/><path d="M89.554,8.873q-25.986,0-51.973,0c-.257,0-.545-.077-.713.22-.062-.219-.043-.38.247-.363.133.008.267,0,.4,0q25.69,0,51.381.008C89.113,8.739,89.387,8.585,89.554,8.873Z" transform="translate(-36.84 -8.698)" fill="#0369b7"/><path d="M133.022,116.834c-.228-.01-.456-.029-.683-.029q-6.717,0-13.433,0c-.133,0-.267-.008-.4,0-.229.016-.341-.059-.362-.313-.141-1.727-.3-3.453-.447-5.179-.027-.3-.05-.607-.082-.91-.058-.539-.061-.542.419-.782q3.549-1.776,7.1-3.549,2.324-1.161,4.647-2.324a1,1,0,0,0,.43-.3H117.782a3.268,3.268,0,0,0-.4,0c-.306.038-.377-.114-.4-.391-.165-1.954-.347-3.907-.517-5.861-.012-.14-.085-.307.087-.414a1.728,1.728,0,0,1,.623-.038c5.109,0,10.221.1,15.327-.03,5.316-.137,10.63-.019,15.944-.086,1.172-.015,1.188,0,1.112,1.162-.111,1.692-.293,3.377-.438,5.066a1.188,1.188,0,0,1-.746,1.047c-4.029,2-8.044,4.034-12.074,6.022a.089.089,0,0,0-.044.1c3.685.006,7.362,0,11.039,0q.314,0,.629.005c.386.006.529.191.514.579-.028.743-.109,1.482-.173,2.221q-.446,5.177-.9,10.353c-.186,2.162-.381,4.323-.565,6.486a.819.819,0,0,1-.71.771q-2.534.7-5.069,1.4-3.608,1-7.217,1.994c-.286.079-.575.236-.881.059l-8.74-2.429c-1.484-.412-2.966-.835-4.455-1.228a.5.5,0,0,1-.442-.537c-.2-2.5-.434-5.007-.653-7.51-.055-.626-.089-1.254-.151-1.879-.026-.263.079-.326.318-.325,2.038.005,4.076,0,6.115,0,.377,0,.386.013.415.437.091,1.311.182,2.621.26,3.933.05.838.04.837.836,1.057q2.942.813,5.884,1.628c.146.04.3.066.444.1,2.18-.663,4.387-1.23,6.581-1.843.729-.2.8-.312.837-1.073.1-2.071.281-4.135.437-6.2.009-.114.018-.228.019-.342.007-.624-.046-.688-.678-.69-2.038-.006-4.075,0-6.113-.006C133.561,116.99,133.263,117.05,133.022,116.834Z" transform="translate(-106.596 -85.757)" fill="#fff"/><path d="M133.725,89.689,144.4,86.743c.881-.243,1.757-.5,2.643-.726a.446.446,0,0,0,.382-.474q.23-2.848.478-5.694c.209-2.391.43-4.781.638-7.172.184-2.125.351-4.252.543-6.377.026-.291-.06-.373-.33-.362-.323.013-.648,0-.972,0H137.033a1.251,1.251,0,0,1-.445-.035c-.066-.026.026-.111.1-.124a4.358,4.358,0,0,0,.912.029q5.52,0,11.04,0a.253.253,0,0,1,.209.059v-.062q-5.839,0-11.677,0a.561.561,0,0,1-.386-.061c.936-.549,1.925-.995,2.893-1.481,3.165-1.589,6.331-3.178,9.509-4.743a.9.9,0,0,0,.569-.862c.144-1.9.326-3.795.5-5.691.024-.261-.023-.406-.322-.376-.151.015-.3,0-.457,0l-31.449.006c-.228,0-.456-.015-.684-.023.2-.166.44-.089.661-.089q7.491-.007,14.981,0c.756,0,.722.055.722-.7q0-2.43,0-4.86c0-.133,0-.267.006-.4a.31.31,0,0,1,.322-.328c.133-.006.267,0,.4,0h19.785c.1,0,.191.007.286,0,.269-.019.371.1.368.37-.006.685-.109,1.362-.162,2.043-.049.64-.112,1.282-.178,1.922-.076.734-.123,1.471-.209,2.205-.064.545-.068,1.1-.133,1.644-.139,1.185-.22,2.376-.325,3.564-.055.622-.132,1.244-.154,1.872s-.126,1.28-.191,1.92c-.055.547-.057,1.1-.125,1.645-.149,1.2-.233,2.413-.332,3.621-.053.641-.113,1.286-.163,1.928a16.951,16.951,0,0,1-.176,1.865,9.771,9.771,0,0,0-.119,1.415c-.045,1.064-.188,2.117-.278,3.174s-.169,2.113-.289,3.168c-.07.617-.092,1.25-.161,1.87-.076.678-.063,1.362-.182,2.037a10.481,10.481,0,0,0-.124,1.358c-.048,1.1-.2,2.191-.27,3.289-.088,1.322-.267,2.639-.333,3.965-.046.922-.062.914-.977,1.162q-4.038,1.093-8.074,2.2l-7.578,2.068c-.055.015-.111.027-.167.038-.421.084-.462.061-.464-.375-.007-1.391,0-2.783,0-4.174C133.715,91.214,133.721,90.452,133.725,89.689Z" transform="translate(-107.395 -41.549)" fill="#16a1dc"/><path d="M248.677,259.822c.608-.01,1.216-.026,1.824-.027q2.769-.005,5.538,0c.432,0,.45.009.424.441-.08,1.348-.173,2.7-.263,4.043-.068,1.006-.14,2.011-.21,3.017-.005.076-.006.152-.012.228-.053.684-.053.685-.712.866q-3.132.864-6.265,1.724c-.188.051-.387.205-.589.021.244-.161.154-.412.154-.627q.008-4.482,0-8.964A1.25,1.25,0,0,1,248.677,259.822Z" transform="translate(-222.25 -228.745)" fill="#16a1dc"/><path d="M273.865,204.367h12.226c-.116.148-.259.116-.392.116q-5.69,0-11.379,0c-.185,0-.384.056-.551-.081A.1.1,0,0,1,273.865,204.367Z" transform="translate(-244.473 -180.171)" fill="#1099d9"/></g></g><g transform="translate(-42.475 -206)"><text transform="translate(340.475 5405.752)" fill="#006eba" font-size="36" font-family="Impact" letter-spacing="0.051em"><tspan x="0" y="0">CSS</tspan></text></g></g></g></svg>