<svg xmlns="http://www.w3.org/2000/svg" xmlns:xlink="http://www.w3.org/1999/xlink" width="378" height="97" viewBox="0 0 378 97"><defs><style>.a{fill:#fff;}.b{fill:#2484fc;}.c{fill:#2485fc;}.d{fill:#2585fc;}.e{fill:#197ffc;}.f{fill:#2082fc;}.g{fill:#147bfc;}.h{fill:#1079fc;}.i{fill:#2183fc;}.j{fill:#147cfc;}.k{fill:#127bfc;}.l{fill:#0d78fc;}.m{fill:#1b80fc;}.n{fill:#137bfc;}.o{fill:#0f79fc;}.p{fill:#127afc;}.q{fill:#1a7ffc;}.r{fill:#107afc;}.s{fill:#117afc;}.t{fill:#177dfc;}.u{fill:#157dfc;}.v{fill:#177efc;}.w{fill:#fefefe;}.x{fill:#1f81fc;}.y{fill:#fcfdfe;}.z{fill:#157cfc;}.aa{fill:#167dfc;}.ab{fill:#1d81fc;}.ac{filter:url(#a);}</style><filter id="a" x="0" y="0" width="378" height="97" filterUnits="userSpaceOnUse"><feOffset dy="3" input="SourceAlpha"/><feGaussianBlur stdDeviation="3" result="b"/><feFlood flood-opacity="0.161"/><feComposite operator="in" in2="b"/><feComposite in="SourceGraphic"/></filter></defs><g transform="translate(-1391 -5034)"><g class="ac" transform="matrix(1, 0, 0, 1, 1391, 5034)"><rect class="a" width="360" height="79" rx="20" transform="translate(9 6)"/></g><g transform="translate(1417.854 1758.544)"><path class="b" d="M25.146,3318.627a22.415,22.415,0,0,1,10.346-17.534,17.088,17.088,0,0,1,7.092-2.927,20.785,20.785,0,0,1,3.727-.708,12.7,12.7,0,0,0,3.6,0,8.587,8.587,0,0,1,3.147.485c-.066.128-.234.106-.314.213.255-.1.552.042.793-.139,8.366,1.489,15.352,8.68,17.17,17.677a23.126,23.126,0,0,1-17.913,27.338,9.587,9.587,0,0,1-2.885.355c-.481-.314-1.207.216-1.585-.46-.154-2.537-.044-5.075-.061-7.612a1.006,1.006,0,0,1,.266-.762c8.122-.741,13.781-6.728,13.65-14.442a13.822,13.822,0,0,0-13.616-13.768,14.059,14.059,0,0,0-14.475,12.925c-.078,1.055-.407,1.307-1.4,1.272-2.133-.075-4.271-.009-6.407-.037-.371,0-.839.252-1.123-.237A2.855,2.855,0,0,0,25.146,3318.627Z"/><path class="c" d="M1179.841,3381.846c-1.729-6.353,2.742-13.691,9.548-15.67a13.727,13.727,0,1,1,6.344,26.678c-7.314,1.386-14.806-3.709-15.86-10.786.056-.177.018.07.085-.1.082-.208.017-.427.082-.632C1179.944,3381.494,1180.05,3381.73,1179.841,3381.846Z" transform="translate(-984.674 -58.157)"/><path class="c" d="M459.37,3367.979c4.765-.208,9.559-.6,14.2.852a10.754,10.754,0,0,1,7.961,8.962,17.642,17.642,0,0,1-.325,7.871c-1.492,5.194-5.343,7.609-10.333,8.514-3.632.659-7.325.172-10.987.3-1.044.037-.77-.71-.771-1.248q-.02-7.875-.008-15.75c0-2.741-.012-5.482.012-8.224,0-.427-.232-.936.253-1.281a1.4,1.4,0,0,1,.144.94q.006,11.9,0,23.8c0,.25.093.515.013.6,0-8.173,0-16.5,0-24.823A.759.759,0,0,0,459.37,3367.979Z" transform="translate(-370.15 -59.979)"/><path class="b" d="M700.913,3445.382c-3.025.014-5.257-1.531-7.212-3.644a.667.667,0,0,1,.1-1.148c.11-.084.211-.182.313-.277.745-.7,1.4-1.8,2.257-1.976.836-.174,1.329,1.2,2.094,1.767a5.45,5.45,0,0,0,5.659.448,4.3,4.3,0,0,0,2.058-4.353c-3.29,1.688-6.5,1.754-9.566-.216a8.172,8.172,0,0,1-3.774-6.487,6.393,6.393,0,0,0,0-2.774c.462-6.933,8.472-10.164,12.741-6.687.251.2.518.406.875.226.265-.285.28-.846.866-.781,3.869-.014,3.318-.35,3.336,3.3.027,5.308.007,10.617.006,15.925a8.126,8.126,0,0,1-8.092,6.676A2.36,2.36,0,0,0,700.913,3445.382Z" transform="translate(-569.565 -103.362)"/><path class="c" d="M1647.906,3426.3c.458.047.919.071,1.372.146,1.237.2,1.482-.067,1.154-1.313-.424-1.612-2.623-2.461-4.69-1.809a4.154,4.154,0,0,0-2.329,1.679c-.535.837-.934.651-1.441.023a7.124,7.124,0,0,0-.8-.772c-1.714-1.548-1.708-1.842.088-3.376a10.105,10.105,0,0,1,10.877-1c2.469,1.428,3.2,3.743,3.234,6.376.042,3.576-.011,7.154.03,10.73.01.845-.329,1.027-1.073.979a20.321,20.321,0,0,0-2.368,0c-.878.046-1.666.055-1.15-1.578a8.481,8.481,0,0,1-5.9,1.939,5.711,5.711,0,0,1-5.531-4.619,5.8,5.8,0,0,1,3.392-6.638,7.239,7.239,0,0,1,3.5-.765A2.959,2.959,0,0,0,1647.906,3426.3Z" transform="translate(-1376.882 -103.457)"/><path class="c" d="M1517.6,3430.1c-1.672,0-3.347.051-5.016-.017-1.181-.048-1.213.421-.84,1.327,1.106,2.692,4.795,3.461,7.344,1.554.6-.448.962-1.53,1.781-1.275.678.211,1.184,1,1.746,1.552,1.3,1.279,1.316,1.3-.089,2.585a9.547,9.547,0,0,1-10.512,1.785c-3.669-1.422-5.272-4.486-5.469-8.328a11.683,11.683,0,0,1,.522-4.257c1.417-4.36,4.933-6.719,9.341-6.229,4.145.461,7.035,3.63,7.409,8.125.264,3.177.265,3.177-2.872,3.177Z" transform="translate(-1263.668 -103.45)"/><path class="c" d="M1002.033,3425.444c-.953-3.2-5.466-2.918-7.029-.7-.717,1.016-1.2.832-1.837.031a6.147,6.147,0,0,0-.694-.682c-1.6-1.457-1.6-1.61-.011-3.07a9.946,9.946,0,0,1,11.182-1.119,5.6,5.6,0,0,1,2.906,4.625,17.2,17.2,0,0,0-.134,4c-.04,2.791-.012,5.582-.008,8.373,0-3.427,0-6.854.013-10.28,0-.447-.16-.93.171-1.341a31.662,31.662,0,0,1,.157,5.537c.047,2.04-.011,4.083.022,6.124.011.7-.184,1.021-.941.969a14.137,14.137,0,0,0-2.5.006c-.991.111-1.489-.179-1.245-1.464a8.691,8.691,0,0,1-5.468,1.828c-3.206-.167-5.369-1.92-5.856-4.889a5.784,5.784,0,0,1,4.034-6.634,6.735,6.735,0,0,1,2.85-.514,7.039,7.039,0,0,0,1.591.116c.575.069,1.134.356,1.732.134l1.086-.069A.657.657,0,0,0,1002.033,3425.444Z" transform="translate(-823.622 -103.405)"/><path class="c" d="M1788.4,3437.775c-1.4.587-2.867.229-4.3.206-.544-.009-.334-.678-.337-1.054-.018-3.018,0-6.035-.015-9.053a11.435,11.435,0,0,0-.112-1.8,3.1,3.1,0,0,0-2.676-2.8,3.418,3.418,0,0,0-3.854,2.07,6.384,6.384,0,0,0-.428,2.59c.007,2.971-.021,5.942.017,8.913.011.833-.113,1.226-1.109,1.234-3.635.029-3.635.07-3.635-3.573,0-4.642.032-9.285-.024-13.927-.013-1.066.32-1.4,1.349-1.308.875.08,2.077-.348,2.584.088,1.364,1.174,2.246-.176,3.326-.311a7.237,7.237,0,0,1,3.418.031,6.1,6.1,0,0,1-2.235.153c.743-.08,1.5.187,2.233-.156,3.3.356,5.576,3,5.788,6.732C1788.22,3429.8,1788.2,3433.787,1788.4,3437.775Z" transform="translate(-1490.059 -103.556)"/><path class="c" d="M1383.115,3427.454a9.248,9.248,0,0,1,6.222-8.11,9.606,9.606,0,0,1,10.18,2.646c.427.511.582.923-.022,1.383a6.33,6.33,0,0,0-.5.487c-.6.576-1.124,1.428-1.839,1.651-.832.26-1.24-.871-1.9-1.312-2.851-1.907-6.067-.86-7.129,2.409a6.348,6.348,0,0,0,.189,4.623,4.56,4.56,0,0,0,7.487,1.555c1.634-1.437,1.634-1.437,3.209.11,1.6,1.569,1.626,1.6-.09,3.12a9.243,9.243,0,0,1-10.123,1.716,8.6,8.6,0,0,1-5.677-7.748A4.187,4.187,0,0,0,1383.115,3427.454Z" transform="translate(-1158.392 -103.556)"/><path class="c" d="M902.44,3405.081c.586,2.26.825,2.481,3.266,2.349.948-.052,1.175.228,1.181,1.138.023,3.428.054,3.428-3.371,3.279-3.793-.165-5.508-1.829-5.627-5.614-.079-2.5-.062-5.013,0-7.518.025-1.015-.24-1.5-1.312-1.319-1.122.193-1.653-.219-1.46-1.41a3.179,3.179,0,0,0,0-.972c-.213-1.4.123-2.248,1.779-1.952.7.125,1.011-.206.981-.943-.042-1.019-.025-2.042,0-3.062.008-.332-.182-.773.335-.938,1.27.4,2.582.021,3.862.211.408,1.009.072,2.065.2,3.091.057.477-.209.991.156,1.433a9.269,9.269,0,0,0,3.417.2c.77.013,1.019.242,1.043,1.031.1,3.282.129,3.279-3.144,3.32-.45.005-.932-.111-1.315.258A38.874,38.874,0,0,0,902.44,3405.081Z" transform="translate(-742.066 -77.338)"/><path class="c" d="M1129.531,3381.385c0,3.99-.025,7.98.019,11.97.01.908-.145,1.292-1.187,1.289-3.613-.011-3.613.033-3.613-3.594,0-7.191.02-14.383-.022-21.574-.006-1.086.19-1.558,1.422-1.542,3.381.045,3.382-.012,3.382,3.429Q1129.531,3376.374,1129.531,3381.385Z" transform="translate(-937.979 -60.119)"/><path class="d" d="M843,3431.032c0-2.736.032-5.472-.018-8.207-.017-.9.253-1.266,1.179-1.193a14.883,14.883,0,0,0,2.5,0c1.023-.093,1.228.366,1.222,1.291q-.052,8.137,0,16.275c.008.983-.288,1.241-1.251,1.24-3.637,0-3.637.03-3.637-3.561Z" transform="translate(-697.639 -105.915)"/><path class="d" d="M640.919,3431.079c0,2.694-.033,5.389.018,8.082.018.929-.2,1.289-1.221,1.288-3.644,0-3.644.039-3.644-3.561,0-4.645.032-9.291-.024-13.936-.013-1.057.306-1.329,1.339-1.321,3.532.028,3.533-.012,3.533,3.455Q640.92,3428.083,640.919,3431.079Z" transform="translate(-521.119 -105.926)"/><path class="b" d="M130.7,3499.117v8.593a.385.385,0,0,1-.264.219c-.493-1.756-.174-3.548-.2-5.32-.06-3.455-.018-3.446-3.465-3.459-1.757-.007-3.514-.055-5.272-.084l.007.007-.026-.272c.38-1.737.06-3.5.165-5.241a16.213,16.213,0,0,1,.108-2.9c1.87-.509,3.776-.175,5.664-.21,3.079-.057,2.547-.194,2.579,2.6.019,1.671.034,3.344-.009,4.766.177-2.308-.2-4.88.172-7.433.433,2.4.065,4.824.2,7.232C130.393,3498.12,130.094,3498.73,130.7,3499.117Z" transform="translate(-82.177 -164.56)"/><path class="d" d="M79.368,3549.079c-.01,1.947-.055,3.895-.012,5.841.018.823-.188,1.164-1.077,1.129-1.62-.064-3.246-.054-4.867,0-.811.025-1.038-.284-1.014-1.053.047-1.529.021-3.06.01-4.59,0-.448.132-.943-.317-1.286l.12-.116.14.092,7.024-.005Z" transform="translate(-40.046 -214.574)"/><path class="c" d="M37.2,3510.92a35.583,35.583,0,0,1,5.009,0,28.86,28.86,0,0,1,.064,5.547l-.089.089-4.986-.017A23.6,23.6,0,0,1,37.2,3510.92Z" transform="translate(-10.138 -182.017)"/><path class="d" d="M636.2,3372.118a2.815,2.815,0,0,1-2.913-3.008,2.885,2.885,0,0,1,3-2.8,2.95,2.95,0,0,1,2.881,2.962A2.9,2.9,0,0,1,636.2,3372.118Z" transform="translate(-518.767 -58.734)"/><path class="d" d="M843.095,3372.11a2.751,2.751,0,0,1-2.811-2.935,2.847,2.847,0,0,1,2.9-2.873,2.928,2.928,0,0,1,2.929,2.892A2.883,2.883,0,0,1,843.095,3372.11Z" transform="translate(-695.339 -58.727)"/><path class="e" d="M130.378,3488.9v8.054l-.292,0c0-2.12-.061-4.242.025-6.358.046-1.128-.341-1.436-1.425-1.4-2.225.075-4.455.024-6.683.024a.719.719,0,0,1-.266-.278c.5-.5,1.125-.257,1.676-.235C125.733,3488.8,128.068,3488.419,130.378,3488.9Z" transform="translate(-82.394 -163.078)"/><path class="b" d="M787.254,3421.836c1.107-.023,2.215-.029,3.322-.076.634-.026.918.188.914.866-.027,5.778-.026,11.556-.054,17.334a6.1,6.1,0,0,1-.25,1.208c-.321-.464-.158-.989-.159-1.482-.013-5.365-.033-10.731.014-16.1.009-1-.2-1.455-1.287-1.335a13.912,13.912,0,0,1-2.356,0A.254.254,0,0,1,787.254,3421.836Z" transform="translate(-650.053 -106.034)"/><path class="f" d="M787.119,3423.513c1.235.095,2.808-.527,3.622.264s.257,2.378.268,3.611c.045,5.052.036,10.1.047,15.155a.161.161,0,0,1-.034.209c-.455-.411-.268-.956-.27-1.443-.013-5.333-.048-10.667.022-16,.016-1.247-.349-1.682-1.567-1.532a17.259,17.259,0,0,1-2.085.016.166.166,0,0,1-.071-.186C787.072,3423.544,787.1,3423.513,787.119,3423.513Z" transform="translate(-649.921 -107.408)"/><path class="g" d="M1097.4,3459.242v12.06h-.279q0-6.241.01-12.483c0-.111.148-.222.228-.333Q1097.381,3458.863,1097.4,3459.242Z" transform="translate(-914.431 -137.363)"/><path class="h" d="M1882.551,3478.146a1.935,1.935,0,0,1-.238-.622q-.023-5.359,0-10.718a2.008,2.008,0,0,1,.229-.626Q1882.545,3472.163,1882.551,3478.146Z" transform="translate(-1584.214 -143.927)"/><path class="i" d="M943.456,3460.383l-.069.546-.244.029q0-.777,0-1.555,0-3.172.007-6.345c0-.037.034-.1.059-.105a1.252,1.252,0,0,1,.234.008Q943.449,3456.672,943.456,3460.383Z" transform="translate(-783.082 -132.641)"/><path class="j" d="M121.072,3490.766l.266.278c0,2.222.009,4.444-.011,6.665,0,.485.188,1.033-.292,1.429C120.963,3496.347,120.889,3493.556,121.072,3490.766Z" transform="translate(-81.73 -164.9)"/><path class="k" d="M35.3,3511.432q0,2.81,0,5.619c-.866-1.034-.28-2.243-.342-3.359C34.918,3512.962,34.483,3512.067,35.3,3511.432Z" transform="translate(-8.241 -182.528)"/><path class="l" d="M72.327,3516.98q-.032-2.774-.064-5.547c.667.744.256,1.637.3,2.456.06,1.047-.038,2.1-.068,3.157Z" transform="translate(-40.192 -182.529)"/><path class="m" d="M943.032,3394.2c-.668-.5-.21-1.19-.274-1.781a25.217,25.217,0,0,1-.026-2.646.171.171,0,0,1,.282,0Z" transform="translate(-782.673 -78.683)"/><path class="n" d="M920.7,3387.766l-.282,0c-1.3-.159-2.652.338-3.914-.307C917.9,3387.543,919.348,3386.993,920.7,3387.766Z" transform="translate(-760.356 -76.68)"/><path class="o" d="M172.753,3297.471a5.656,5.656,0,0,1-3.6,0Z" transform="translate(-122.845 -0.009)"/><path class="p" d="M692.166,3473.717a3.325,3.325,0,0,1,0,2.774A8.316,8.316,0,0,1,692.166,3473.717Z" transform="translate(-568.89 -150.356)"/><path class="q" d="M1050.426,3470.3a1.269,1.269,0,0,1-1.671-.03c-.095-.048-.126-.1-.094-.143s.063-.071.1-.071A3.512,3.512,0,0,1,1050.426,3470.3Z" transform="translate(-873.081 -147.209)"/><path class="r" d="M1382.569,3477.378a2.394,2.394,0,0,1,.011,2.531A8.094,8.094,0,0,1,1382.569,3477.378Z" transform="translate(-1157.846 -153.479)"/><path class="s" d="M1039.782,3470.206q0,.107,0,.214c-.553-.058-1.148.206-1.652-.219Z" transform="translate(-864.108 -147.357)"/><path class="t" d="M1068,3464.721c.622.22.274.676.251,1.051a.2.2,0,0,1-.123.016c-.041-.012-.072-.053-.108-.081Q1068.008,3465.214,1068,3464.721Z" transform="translate(-889.587 -142.682)"/><path class="s" d="M1688.633,3470.2a1.393,1.393,0,0,1-1.64,0Z" transform="translate(-1417.61 -147.354)"/><path class="s" d="M25.146,3441.51a1.365,1.365,0,0,1,.005,1.642Q25.149,3442.331,25.146,3441.51Z" transform="translate(0 -122.883)"/><path class="l" d="M747.772,3598.937a1.3,1.3,0,0,1,1.66,0Z" transform="translate(-616.424 -256.918)"/><path class="h" d="M182.443,3608.534l.264-.218c.462.066.977-.17,1.379.241A3.782,3.782,0,0,1,182.443,3608.534Z" transform="translate(-134.179 -265.166)"/><path class="u" d="M785.376,3422.59q0,.14,0,.28c-.147.145.307.65-.308.515.021-.389-.315-.878.309-1.1Q785.378,3422.439,785.376,3422.59Z" transform="translate(-648.179 -106.486)"/><path class="v" d="M211.864,3300.874a1.022,1.022,0,0,1-1.11.159c.144-.317.438-.141.63-.233Z" transform="translate(-158.33 -2.853)"/><path class="n" d="M1181.875,3469.719l.124-1.074c.247.587.274.966-.093,1.3A.189.189,0,0,1,1181.875,3469.719Z" transform="translate(-986.709 -146.03)"/><path class="w" d="M1221.75,3399.2a8.795,8.795,0,1,1-8.812,8.755A8.833,8.833,0,0,1,1221.75,3399.2Z" transform="translate(-1013.225 -86.791)"/><path class="w" d="M492.926,3407.932q0-3.758,0-7.517c0-.5-.1-1.029.718-1.035a20.7,20.7,0,0,1,7.276.9,6.6,6.6,0,0,1,4.552,5.631,13.926,13.926,0,0,1-.016,4.3c-.634,3.9-3.215,6.122-7.542,6.5-1.291.114-2.6.029-3.893.106-.843.05-1.13-.232-1.114-1.094C492.957,3413.13,492.926,3410.531,492.926,3407.932Z" transform="translate(-399.016 -86.942)"/><path class="x" d="M461.117,3369.193c.352.266.3.654.3,1.02q0,12.249,0,24.5c0,.13-.05.26-.286.387v-25.906Z" transform="translate(-371.897 -61.193)"/><path class="i" d="M498.339,3396.54h-4.667q0-.07,0-.139h4.63Z" transform="translate(-399.667 -84.403)"/><path class="w" d="M724.868,3453.922c-.025-3.956,2.44-6.18,5.53-5.391,2.6.663,4,4.033,2.907,6.99a4.2,4.2,0,0,1-4.113,2.938,4.142,4.142,0,0,1-4.076-3.159A9.482,9.482,0,0,1,724.868,3453.922Z" transform="translate(-596.885 -128.737)"/><path class="e" d="M721.509,3479.277v-1.563l.137,0v1.591Z" transform="translate(-594.02 -153.762)"/><path class="y" d="M1674.541,3501.1a2.979,2.979,0,0,1-1.474-.262,1.712,1.712,0,0,1-.16-3.092c1.014-.648,4.312-.594,5.24.084a1.672,1.672,0,0,1-.212,2.3A5.407,5.407,0,0,1,1674.541,3501.1Z" transform="translate(-1404.824 -170.463)"/><path class="z" d="M1746.5,3470.212v10.966l-.131,0v-11.015Z" transform="translate(-1468.255 -147.326)"/><path class="y" d="M1542.685,3451.846a3.311,3.311,0,0,1,3.249-3.1c2.154-.094,3.245.8,3.71,3.038A29.338,29.338,0,0,1,1542.685,3451.846Z" transform="translate(-1294.51 -129.053)"/><path class="u" d="M1554.084,3493.24h-11.345c0-.045,0-.09,0-.135h11.355Z" transform="translate(-1294.556 -166.896)"/><path class="r" d="M1542.685,3469.516l6.959-.059c-.265.461-.721.36-1.112.332C1546.585,3469.647,1544.609,3470.136,1542.685,3469.516Z" transform="translate(-1294.51 -146.722)"/><path class="y" d="M1028.542,3499.491a5.877,5.877,0,0,1-3.893,1.457,2.946,2.946,0,0,1-2.625-1.18c-.384-.331-.263-.7-.084-1.075.767-1.475,2.111-1.682,3.563-1.576a7.14,7.14,0,0,1,3.073.781A1.473,1.473,0,0,1,1028.542,3499.491Z" transform="translate(-850.153 -170.297)"/><path class="aa" d="M1067.844,3504.164q.017-.8.034-1.593C1068.475,3503.115,1068.325,3503.643,1067.844,3504.164Z" transform="translate(-889.455 -174.97)"/><path class="h" d="M1021.035,3507.974l.083,1.075C1020.685,3508.722,1020.507,3508.376,1021.035,3507.974Z" transform="translate(-849.248 -179.579)"/><path class="ab" d="M1774.422,3444.241v-17.382h.138V3444.3Z" transform="translate(-1492.19 -110.384)"/><path class="aa" d="M1854.15,3481.472v-10.966h.134v11.023Z" transform="translate(-1560.2 -147.616)"/><path class="v" d="M1830.024,3420.375c-.792.577-1.658.2-2.5,0h2.505Z" transform="translate(-1537.485 -104.854)"/><path class="v" d="M638,3444.25v-17.38h.135V3444.3Z" transform="translate(-522.783 -110.393)"/></g></g></svg>