<svg xmlns="http://www.w3.org/2000/svg" xmlns:xlink="http://www.w3.org/1999/xlink" width="196" height="196" viewBox="0 0 196 196"><defs><style>.a{fill:#152a49;}.b{fill:url(#c);}.c{fill:#f8f9fa;}.d{fill:#64ffda;}.e{opacity:0.7;}.f{opacity:0.6;}.g{opacity:0.5;}.h{opacity:0.4;}.i{opacity:0.3;}.j{fill:#fd7e14;}.k{fill:url(#d);}.l{fill:url(#e);}.m{fill:url(#f);}.n,.o,.p,.q{fill:none;stroke:#fd7e14;stroke-linecap:round;stroke-linejoin:round;stroke-width:1.44px;}.o{stroke-dasharray:12.52 33.38;}.p{stroke-dasharray:11.93 31.8;}.q{stroke-dasharray:11.55 30.79;}.r{fill:#e0e0e0;}.s{fill:url(#g);}.t{fill:#f5f5f5;}.u{fill:url(#h);}.v{fill:#fff;opacity:0.2;}.w{filter:url(#a);}</style><filter id="a" x="0" y="0" width="196" height="196" filterUnits="userSpaceOnUse"><feOffset dy="3" input="SourceAlpha"/><feGaussianBlur stdDeviation="3" result="b"/><feFlood flood-opacity="0.161"/><feComposite operator="in" in2="b"/><feComposite in="SourceGraphic"/></filter><linearGradient id="c" x1="0.5" y1="-0.623" x2="0.5" y2="0.377" gradientUnits="objectBoundingBox"><stop offset="0" stop-color="gray" stop-opacity="0.251"/><stop offset="0.54" stop-color="gray" stop-opacity="0.122"/><stop offset="1" stop-color="gray" stop-opacity="0.102"/></linearGradient><linearGradient id="d" x1="0.5" y1="0.158" x2="0.5" y2="1.158" xlink:href="#c"/><linearGradient id="e" x1="0.5" y1="-3.561" x2="0.5" y2="-2.561" xlink:href="#c"/><linearGradient id="f" x1="0.5" y1="-7.254" x2="0.5" y2="-6.254" xlink:href="#c"/><linearGradient id="g" x1="0.5" y1="-77.687" x2="0.5" y2="-76.685" xlink:href="#c"/><linearGradient id="h" x1="1.347" y1="-3.277" x2="1.347" y2="-2.277" xlink:href="#c"/></defs><g transform="translate(-1057.5 -4130)"><g transform="translate(1061.911 4131.411)"><g class="w" transform="matrix(1, 0, 0, 1, -4.41, -1.41)"><circle class="a" cx="89" cy="89" r="89" transform="translate(9 6)"/></g><rect class="b" width="53.386" height="59.584" transform="translate(34.88 44.57)"/><rect class="c" width="51.618" height="18.506" transform="translate(35.762 84.353)"/><rect class="d" width="2.001" height="9.481" transform="translate(39.999 88.741)"/><g class="e"><rect class="d" width="2.001" height="9.481" transform="translate(43.947 88.741)"/></g><g class="f"><rect class="d" width="2.001" height="9.481" transform="translate(47.896 88.741)"/></g><g class="g"><rect class="d" width="2.001" height="9.481" transform="translate(51.845 88.741)"/></g><g class="g"><rect class="d" width="2.001" height="9.481" transform="translate(55.794 88.741)"/></g><g class="h"><rect class="d" width="2.001" height="9.481" transform="translate(59.742 88.741)"/></g><g class="i"><rect class="d" width="2.001" height="9.481" transform="translate(63.691 88.741)"/></g><circle class="j" cx="4.827" cy="4.827" r="4.827" transform="translate(75.246 88.593)"/><rect class="c" width="51.618" height="18.506" transform="translate(35.762 65.127)"/><rect class="d" width="2.001" height="9.481" transform="translate(39.999 69.515)"/><g class="e"><rect class="d" width="2.001" height="9.481" transform="translate(43.947 69.515)"/></g><g class="f"><rect class="d" width="2.001" height="9.481" transform="translate(47.896 69.515)"/></g><g class="g"><rect class="d" width="2.001" height="9.481" transform="translate(51.845 69.515)"/></g><g class="g"><rect class="d" width="2.001" height="9.481" transform="translate(55.794 69.515)"/></g><g class="h"><rect class="d" width="2.001" height="9.481" transform="translate(59.742 69.515)"/></g><g class="i"><rect class="d" width="2.001" height="9.481" transform="translate(63.691 69.515)"/></g><circle class="j" cx="4.827" cy="4.827" r="4.827" transform="translate(75.246 69.371)"/><rect class="c" width="51.618" height="18.506" transform="translate(35.762 45.902)"/><rect class="d" width="2.001" height="9.481" transform="translate(39.999 50.294)"/><g class="e"><rect class="d" width="2.001" height="9.481" transform="translate(43.947 50.294)"/></g><g class="f"><rect class="d" width="2.001" height="9.481" transform="translate(47.896 50.294)"/></g><g class="g"><rect class="d" width="2.001" height="9.481" transform="translate(51.845 50.294)"/></g><g class="g"><rect class="d" width="2.001" height="9.481" transform="translate(55.794 50.294)"/></g><g class="h"><rect class="d" width="2.001" height="9.481" transform="translate(59.742 50.294)"/></g><g class="i"><rect class="d" width="2.001" height="9.481" transform="translate(63.691 50.294)"/></g><circle class="k" cx="5.205" cy="5.205" r="5.205" transform="translate(74.868 49.768)"/><circle class="l" cx="5.205" cy="5.205" r="5.205" transform="translate(74.868 69.123)"/><circle class="m" cx="5.205" cy="5.205" r="5.205" transform="translate(74.868 88.345)"/><circle class="j" cx="4.827" cy="4.827" r="4.827" transform="translate(75.246 50.146)"/><g class="e"><line class="n" x2="0.778" transform="translate(94.759 65.181)"/><line class="o" x2="21.68" transform="translate(99.874 65.181)"/><path class="n" d="M123.722,65.181h.781v.778"/><line class="p" y2="14.974" transform="translate(124.503 70.091)"/><line class="n" y2="0.781" transform="translate(124.503 87.132)"/></g><g class="e"><line class="n" x1="0.781" y1="0.004" transform="translate(81.844 124.017)"/><line class="o" x1="21.68" y1="0.104" transform="translate(55.83 123.891)"/><path class="n" d="M53.659,123.884l-.778,0,0-.781"/><line class="q" y1="8.995" x2="0.061" transform="translate(52.91 110.104)"/><line class="n" y1="0.781" x2="0.007" transform="translate(52.982 107.322)"/></g><path class="r" d="M128.556,126.461S130.1,136.9,139.243,140.4H102.229c9.136-3.484,10.687-13.938,10.687-13.938Z"/><rect class="s" width="37.364" height="2.207" transform="translate(102.045 140.399)"/><rect class="t" width="37.015" height="1.703" transform="translate(102.229 140.399)"/><path class="u" d="M150.9,89.3H90.829a1.4,1.4,0,0,0-1.4,1.4h0v37.85a1.67,1.67,0,0,0,1.67,1.67h59.526a1.67,1.67,0,0,0,1.67-1.67V90.71a1.4,1.4,0,0,0-1.4-1.4Z"/><path class="c" d="M91.585,89.875H149.9a1.4,1.4,0,0,1,1.4,1.4h0v32.4H90.188v-32.4a1.4,1.4,0,0,1,1.4-1.4Z"/><path class="t" d="M149.614,129.247H91.858a1.67,1.67,0,0,1-1.67-1.67v-3.9h61.1v3.9A1.67,1.67,0,0,1,149.614,129.247Z"/><rect class="j" width="55.286" height="27.285" transform="translate(93.208 92.61)"/><path class="v" d="M95.4,94.421H148.53V92.6H93.244v27.285H95.4Z"/></g></g></svg>