<svg xmlns="http://www.w3.org/2000/svg" xmlns:xlink="http://www.w3.org/1999/xlink" width="196" height="196" viewBox="0 0 196 196"><defs><style>.a{fill:#152a49;}.b{opacity:0.1;}.c{fill:#ffb9b9;}.d{fill:#fd7e14;}.e{filter:url(#a);}</style><filter id="a" x="0" y="0" width="196" height="196" filterUnits="userSpaceOnUse"><feOffset dy="3" input="SourceAlpha"/><feGaussianBlur stdDeviation="3" result="b"/><feFlood flood-opacity="0.161"/><feComposite operator="in" in2="b"/><feComposite in="SourceGraphic"/></filter></defs><g transform="translate(-657.5 -4130)"><g transform="translate(661.911 4131.411)"><g class="e" transform="matrix(1, 0, 0, 1, -4.41, -1.41)"><circle class="a" cx="89" cy="89" r="89" transform="translate(9 6)"/></g><path class="b" d="M133.315,119.211l23.322-23.253-23.322-23.25,7.109-7.088,30.435,30.337L140.424,126.3l-7.109-7.088Z"/><path class="b" d="M66.711,97.617h9.481V88.14H66.711Zm47.594-9.478h-9.481v9.478h9.481ZM85.768,97.617h9.481V88.14H85.768Z"/><path class="b" d="M53.864,118.974,30.517,95.724,53.839,72.471,46.73,65.383,16.321,95.724l30.435,30.337Z"/><path class="c" d="M167.9,89.691s-7.3-5.536-7.851-3.506,5.356,6.638,5.356,6.638Z"/><path class="b" d="M167.9,89.691s-7.3-5.536-7.851-3.506,5.356,6.638,5.356,6.638Z"/><path class="d" d="M133.315,114.708l23.322-23.253-23.322-23.25,7.109-7.088,30.435,30.337L140.424,121.8l-7.109-7.088Z"/><path class="d" d="M66.711,93.114h9.481V83.633H66.711Zm47.594-9.481h-9.481v9.481h9.481ZM85.768,93.114h9.481V83.633H85.768Z"/><path class="d" d="M53.864,114.471,30.517,91.217l23.322-23.25L46.73,60.88,16.321,91.217l30.435,30.341Z"/></g></g></svg>