<svg xmlns="http://www.w3.org/2000/svg" xmlns:xlink="http://www.w3.org/1999/xlink" width="378" height="97" viewBox="0 0 378 97"><defs><style>.a{fill:#fff;}.b{fill:#222;}.c{filter:url(#a);}</style><filter id="a" x="0" y="0" width="378" height="97" filterUnits="userSpaceOnUse"><feOffset dy="3" input="SourceAlpha"/><feGaussianBlur stdDeviation="3" result="b"/><feFlood flood-opacity="0.161"/><feComposite operator="in" in2="b"/><feComposite in="SourceGraphic"/></filter></defs><g transform="translate(-563 -5138)"><g class="c" transform="matrix(1, 0, 0, 1, 563, 5138)"><rect class="a" width="360" height="79" rx="20" transform="translate(9 6)"/></g><path class="b" d="M39.59,3860.826v-18.641H62.863v-1.09H39.59v-17H64.335V3823H38.5v38.915H64.552v-1.089H39.59ZM85.537,3833.9l-9.647,12.7-9.429-12.7H65.043l10.192,13.517-11.173,14.5h1.309l10.519-13.681,10.574,13.681h1.362l-11.228-14.5L86.845,3833.9Zm5.559,37.608v-17.441h.109a11.191,11.191,0,0,0,3.87,6.132,11.389,11.389,0,0,0,7.358,2.316,10.643,10.643,0,0,0,8.857-4.36,14.839,14.839,0,0,0,2.29-4.688,20.769,20.769,0,0,0-.028-11.445,13.956,13.956,0,0,0-2.371-4.633,10.9,10.9,0,0,0-3.761-3.052,11.113,11.113,0,0,0-4.987-1.09,12.106,12.106,0,0,0-3.952.626,10.567,10.567,0,0,0-3.242,1.771,12,12,0,0,0-2.453,2.7,12.435,12.435,0,0,0-1.581,3.407H91.1V3833.9H90.008v37.607H91.1Zm11.337-10.029a10.445,10.445,0,0,1-8.23-3.515q-3.106-3.516-3.107-10.11a17.344,17.344,0,0,1,.764-5.178,13.405,13.405,0,0,1,2.207-4.305,10.6,10.6,0,0,1,3.57-2.943,10.355,10.355,0,0,1,4.8-1.09,9.98,9.98,0,0,1,4.77,1.09,9.674,9.674,0,0,1,3.379,2.97,13.838,13.838,0,0,1,2.016,4.306,18.97,18.97,0,0,1,.681,5.151,19.408,19.408,0,0,1-.627,4.878,13.945,13.945,0,0,1-1.935,4.36,10.527,10.527,0,0,1-3.351,3.162,9.42,9.42,0,0,1-4.933,1.226Zm17.932.437v-15.86a15.452,15.452,0,0,1,.654-4.469,10.938,10.938,0,0,1,2.016-3.843,9.448,9.448,0,0,1,3.461-2.617,10.507,10.507,0,0,1,4.987-.79v-1.09a13.5,13.5,0,0,0-4.387.544,10.638,10.638,0,0,0-3.244,1.635,8.35,8.35,0,0,0-2.18,2.425,10.846,10.846,0,0,0-1.2,2.97h-.109V3833.9h-1.09v28.015h1.089Zm12.481-13.79h23.436a19.421,19.421,0,0,0-.572-5.559,13.833,13.833,0,0,0-2.18-4.742,11.1,11.1,0,0,0-3.87-3.325,11.917,11.917,0,0,0-5.641-1.253,11.27,11.27,0,0,0-4.578.981,11.389,11.389,0,0,0-3.924,2.861,14.515,14.515,0,0,0-2.725,4.605,17.408,17.408,0,0,0-1.036,6.213,22.791,22.791,0,0,0,.709,5.8,13.609,13.609,0,0,0,2.18,4.688,9.85,9.85,0,0,0,3.788,3.079,12.534,12.534,0,0,0,5.587,1.036,12.259,12.259,0,0,0,8.066-2.7,11.168,11.168,0,0,0,3.87-7.6h-1.09a10.479,10.479,0,0,1-3.625,6.949,11.419,11.419,0,0,1-7.331,2.316,11.25,11.25,0,0,1-5.069-1.035,9.183,9.183,0,0,1-3.379-2.834,12.361,12.361,0,0,1-1.935-4.224,22.69,22.69,0,0,1-.682-5.259Zm22.346-1.09H132.846a16.86,16.86,0,0,1,1.09-5.287,13.107,13.107,0,0,1,2.426-4.006,10.134,10.134,0,0,1,3.488-2.535,10.544,10.544,0,0,1,4.279-.872,10.826,10.826,0,0,1,4.8,1.009,9.9,9.9,0,0,1,3.461,2.752,12.139,12.139,0,0,1,2.1,4.06,16.575,16.575,0,0,1,.709,4.878Zm23.71-4.851h1.09q0-4.687-2.725-6.813a11.756,11.756,0,0,0-7.413-2.125,13.017,13.017,0,0,0-4.415.653,8.839,8.839,0,0,0-2.943,1.69,6.078,6.078,0,0,0-1.635,2.289,6.579,6.579,0,0,0-.491,2.4,7.061,7.061,0,0,0,.818,3.652,5.383,5.383,0,0,0,2.561,2.125,19.762,19.762,0,0,0,2.725.981q1.526.436,3.543.926,1.8.437,3.543.873a12.81,12.81,0,0,1,3.08,1.171,6.659,6.659,0,0,1,2.18,1.881,4.925,4.925,0,0,1,.845,3,5.335,5.335,0,0,1-.845,3.052,6.819,6.819,0,0,1-2.152,2.044,9.6,9.6,0,0,1-2.916,1.144,14.568,14.568,0,0,1-3.134.354q-4.961,0-7.6-2.207t-2.643-6.949h-1.09q0,5.287,2.861,7.74t8.476,2.453a16.551,16.551,0,0,0,3.624-.409,10.079,10.079,0,0,0,3.27-1.335,7.382,7.382,0,0,0,2.344-2.4,6.78,6.78,0,0,0,.9-3.6,6.055,6.055,0,0,0-.79-3.271,6.618,6.618,0,0,0-2.071-2.071,10.96,10.96,0,0,0-2.889-1.281q-1.607-.464-3.243-.9-2.289-.6-4.006-1.036a24.34,24.34,0,0,1-3.188-1.035,5.4,5.4,0,0,1-2.262-1.717,5.2,5.2,0,0,1-.845-3.188,7.517,7.517,0,0,1,.218-1.362,4.882,4.882,0,0,1,1.036-1.989,6.972,6.972,0,0,1,2.507-1.8,11.148,11.148,0,0,1,4.633-.79,14.521,14.521,0,0,1,3.679.436,7.662,7.662,0,0,1,2.861,1.391,6.326,6.326,0,0,1,1.853,2.425,8.842,8.842,0,0,1,.654,3.6Zm25.235,0h1.09q0-4.687-2.725-6.813a11.755,11.755,0,0,0-7.413-2.125,13.016,13.016,0,0,0-4.415.653,8.831,8.831,0,0,0-2.943,1.69,6.076,6.076,0,0,0-1.636,2.289,6.592,6.592,0,0,0-.49,2.4,7.062,7.062,0,0,0,.818,3.652,5.382,5.382,0,0,0,2.561,2.125,19.768,19.768,0,0,0,2.725.981q1.526.436,3.543.926,1.8.437,3.543.873a12.814,12.814,0,0,1,3.08,1.171,6.65,6.65,0,0,1,2.18,1.881,4.92,4.92,0,0,1,.845,3,5.333,5.333,0,0,1-.845,3.052,6.81,6.81,0,0,1-2.153,2.044,9.589,9.589,0,0,1-2.916,1.144,14.562,14.562,0,0,1-3.134.354q-4.96,0-7.6-2.207t-2.643-6.949h-1.09q0,5.287,2.861,7.74t8.475,2.453a16.549,16.549,0,0,0,3.624-.409,10.082,10.082,0,0,0,3.27-1.335,7.391,7.391,0,0,0,2.344-2.4,6.774,6.774,0,0,0,.9-3.6,6.052,6.052,0,0,0-.79-3.271,6.622,6.622,0,0,0-2.071-2.071,10.969,10.969,0,0,0-2.889-1.281q-1.608-.464-3.243-.9-2.289-.6-4.006-1.036a24.306,24.306,0,0,1-3.188-1.035,5.4,5.4,0,0,1-2.262-1.717,5.2,5.2,0,0,1-.845-3.188,7.447,7.447,0,0,1,.218-1.362,4.883,4.883,0,0,1,1.035-1.989,6.979,6.979,0,0,1,2.507-1.8,11.149,11.149,0,0,1,4.633-.79,14.522,14.522,0,0,1,3.679.436,7.666,7.666,0,0,1,2.861,1.391,6.318,6.318,0,0,1,1.853,2.425,8.842,8.842,0,0,1,.654,3.6Z" transform="translate(629.5 1336)"/></g></svg>