<svg xmlns="http://www.w3.org/2000/svg" xmlns:xlink="http://www.w3.org/1999/xlink" width="378" height="97" viewBox="0 0 378 97"><defs><filter id="a" x="0" y="0" width="378" height="97" filterUnits="userSpaceOnUse"><feOffset dy="3" input="SourceAlpha"/><feGaussianBlur stdDeviation="3" result="b"/><feFlood flood-opacity="0.161"/><feComposite operator="in" in2="b"/><feComposite in="SourceGraphic"/></filter></defs><g transform="translate(-155 -5034)"><g transform="matrix(1, 0, 0, 1, 155, 5034)" filter="url(#a)"><rect width="360" height="79" rx="20" transform="translate(9 6)" fill="#fff"/></g><g transform="translate(43 0.266)"><g transform="translate(-8)"><g transform="translate(231 5049.734)"><path d="M64.853,10.631q12.811,0,25.622,0c.732,0,.705-.116.627.71-.144,1.514-.26,3.03-.392,4.545-.214,2.443-.434,4.885-.646,7.328-.169,1.95-.324,3.9-.493,5.851-.176,2.026-.364,4.052-.54,6.078-.168,1.931-.322,3.864-.489,5.8-.177,2.045-.364,4.089-.542,6.134-.128,1.477-.244,2.956-.372,4.433-.175,2.026-.357,4.051-.534,6.077q-.193,2.216-.378,4.432c-.047.549-.088,1.1-.133,1.648-.039.477-.038.48-.5.61q-3.944,1.11-7.888,2.216Q71.731,68.3,65.265,70.11a1.545,1.545,0,0,1-.886-.007q-10.327-2.9-20.658-5.779l-.329-.089a.358.358,0,0,1-.288-.364c-.108-1.345-.226-2.69-.344-4.034q-.263-3.01-.529-6.02c-.13-1.5-.253-2.993-.382-4.49q-.263-3.039-.531-6.077c-.133-1.534-.258-3.069-.391-4.6q-.258-2.982-.521-5.963-.2-2.244-.387-4.489-.266-3.067-.535-6.134-.19-2.188-.375-4.376c-.175-2.026-.343-4.052-.53-6.077-.09-.978-.106-.976.88-.976Z" transform="translate(-38.54 -10.627)" fill="#e54d26"/><path d="M126.292,121.225c.164.841.131,1.7.216,2.546.075.753.111,1.511.143,2.268a.473.473,0,0,0,.388.525c2.225.6,4.447,1.218,6.67,1.829a.542.542,0,0,0,.113.007c2.154-.727,4.37-1.24,6.55-1.875.665-.194.775-.274.8-.977.072-1.876.306-3.741.367-5.617.01-.3.073-.6.1-.905.052-.639-.03-.738-.67-.74-2.069-.006-4.138,0-6.206,0a2.437,2.437,0,0,1-.9-.114q-6.949,0-13.9,0c-.2,0-.418.073-.605-.07a.412.412,0,0,1-.15-.35q-.221-2.585-.447-5.17c-.216-2.443-.441-4.885-.654-7.329-.169-1.932-.326-3.864-.488-5.8q-.055-.653-.11-1.307a1.084,1.084,0,0,1,.613-.059c5.132,0,10.268.112,15.4-.035,5.3-.152,10.6-.022,15.9-.1,1.218-.017,1.244,0,1.146,1.192-.141,1.7-.3,3.406-.451,5.109a.642.642,0,0,1-.727.681c-.057,0-.114,0-.171,0q-7.527,0-15.055,0c-.057,0-.114-.009-.17-.014-2.678-.018-5.357,0-8.036-.013-.454,0-.643.144-.523.6.081,1.712.2,3.421.352,5.128.016.189.014.381.191.507a1.388,1.388,0,0,0,.671.068q3.656,0,7.312,0,7.154.006,14.307,0a2.574,2.574,0,0,1,.9.067c.336.25.258.622.231.945-.127,1.5-.243,2.992-.379,4.487-.18,1.968-.343,3.937-.52,5.9-.221,2.46-.459,4.919-.629,7.382-.125,1.815-.373,1.536-1.652,1.893-3.81,1.066-7.619,2.133-11.441,3.157a1.067,1.067,0,0,1-.721.074L120.9,131.49c-.5-.139-.5-.141-.546-.671q-.384-4.315-.765-8.631a3.507,3.507,0,0,1-.02-.966c.085-.107.206-.079.316-.079q3.047,0,6.093,0C126.088,121.144,126.209,121.114,126.292,121.225Z" transform="translate(-107.691 -87.092)" fill="#fff"/><path d="M133.945,61.069c.209-.006.417-.018.626-.018h14.711c.609,0,.6,0,.655-.594q.258-2.978.523-5.946c-.139-.133-.3-.094-.446-.094q-16.108,0-32.216.008c-.095,0-.19.011-.284.017.18-.216.426-.119.64-.119q7.5-.009,15.005-.005c.873,0,.788.087.789-.8,0-1.636,0-3.271,0-4.907,0-.561.005-.566.568-.566h19.969c.076,0,.152,0,.228,0,.231-.012.364.075.351.327-.006.114.009.229,0,.342-.107,1.051-.222,2.1-.325,3.154-.048.489-.069.982-.1,1.47-.071,1.019-.172,2.036-.273,3.05-.106,1.051-.167,2.107-.291,3.158-.073.614-.089,1.247-.16,1.864-.08.694-.055,1.4-.191,2.087a12.321,12.321,0,0,0-.107,1.355c-.048.583-.107,1.171-.17,1.75a17.006,17.006,0,0,1-.176,1.918,10.374,10.374,0,0,0-.105,1.412c-.052.62-.127,1.242-.164,1.865s-.089,1.279-.177,1.916c-.078.56-.068,1.131-.143,1.7-.094.71-.108,1.43-.216,2.141-.073.485-.076.982-.107,1.469-.069,1.1-.2,2.185-.279,3.278-.074.975-.164,1.955-.288,2.929-.073.576-.094,1.168-.149,1.751-.07.733-.081,1.47-.2,2.2a11.893,11.893,0,0,0-.1,1.355c-.034.681-.172,1.353-.155,2.039a6.41,6.41,0,0,1-.113.955c-.027.208-.173.256-.354.3-.915.239-1.827.495-2.74.743l-6.245,1.7-7.506,2.039c-.053.014-.108.019-.156.028-.158-.093-.111-.24-.111-.364,0-2,0-3.994,0-5.991a1.046,1.046,0,0,1,.11-.551c1.053-.377,2.145-.622,3.22-.923q4.9-1.371,9.805-2.721c.5-.14.5-.143.547-.641.2-2.4.4-4.8.612-7.206.245-2.8.5-5.6.749-8.394.1-1.1.178-2.194.265-3.292a1.542,1.542,0,0,0-.012-.566c-.191-.128-.406-.064-.609-.064q-7.027-.006-14.053-.005a1.637,1.637,0,0,1-.62-.04.628.628,0,0,1-.186-.519c-.009-1.878-.033-3.755.011-5.633a.785.785,0,0,1,.037-.166A.589.589,0,0,1,133.945,61.069Z" transform="translate(-107.691 -43.388)" fill="#f66b3a"/><path d="M248.77,259.745c.113-.009.226-.025.339-.025q3.5,0,7,0c.548,0,.561.005.526.515-.133,1.911-.276,3.822-.415,5.733-.044.605-.1,1.211-.12,1.817a.4.4,0,0,1-.358.423q-3.342.914-6.682,1.834c-.136.037-.283.147-.426.005.21-.181.122-.426.122-.643q.008-4.764,0-9.527Q248.671,259.807,248.77,259.745Z" transform="translate(-222.509 -228.738)" fill="#f66b3a"/><path d="M146.751,259.744l0,.131q-7.056,0-14.111,0a1.088,1.088,0,0,1-.494-.035c-.009,0-.014-.033-.01-.048a.173.173,0,0,1,.03-.048c.151-.008.3-.024.454-.024q6.841,0,13.682,0C146.448,259.719,146.6,259.735,146.751,259.744Z" transform="translate(-120.489 -228.737)" fill="#e4441c"/><path d="M140.765,284.063l-6.723,0c.092-.169.255-.138.4-.138q2.96,0,5.921,0C140.512,283.922,140.676,283.891,140.765,284.063Z" transform="translate(-122.164 -249.929)" fill="#e44016"/><path d="M188.508,153.176q0,3.195.008,6.39l-.1.051c-2.5.015-5,0-7.506.009a1.617,1.617,0,0,0-.619.041c-.052-.024-.1-.051-.1-.118q-.184-2.789-.368-5.578a.536.536,0,0,1,.016-.113.557.557,0,0,0,.025-.387c-.032-.238.067-.353.313-.351,2.76.019,5.519-.039,8.279.032C188.474,153.152,188.491,153.167,188.508,153.176Z" transform="translate(-162.251 -135.394)" fill="#e54d26"/><path d="M249.355,204.881q7.323,0,14.645.007c.216,0,.461-.093.642.119l-15.126.006a1.388,1.388,0,0,1-.169-.02c-.038-.023-.05-.047-.039-.072s.024-.037.036-.037Z" transform="translate(-223.091 -180.709)" fill="#f55d28"/><path d="M188.027,152.721h-7.8c-.114,0-.228.008-.342,0-.274-.022-.445.059-.419.374a.325.325,0,0,1-.1.309,2.43,2.43,0,0,1-.077-.729c.134-.113.292-.07.438-.07q3.982,0,7.964,0c.113,0,.227.011.34.017A.942.942,0,0,1,188.027,152.721Z" transform="translate(-161.771 -134.939)" fill="#ea4820"/><path d="M191.814,204.912q0,.054,0,.109c-.907.008-1.813.02-2.72.022q-2.466.005-4.933,0c-.188,0-.375-.021-.563-.033.177-.167.4-.095.6-.095Q188.006,204.908,191.814,204.912Z" transform="translate(-165.559 -180.737)" fill="#e33c13"/></g></g><g transform="translate(-42.475 -318)"><text transform="translate(340.475 5405.752)" fill="#e54d26" font-size="36" font-family="Impact" letter-spacing="0.051em"><tspan x="0" y="0">HTML</tspan></text></g></g></g></svg>