<svg xmlns="http://www.w3.org/2000/svg" xmlns:xlink="http://www.w3.org/1999/xlink" width="378" height="97" viewBox="0 0 378 97"><defs><style>.a{fill:#fff;}.b,.e{fill:#e9ca32;}.c{fill:#e8c82a;}.d{fill:#ffde24;}.e{font-size:36px;font-family:Impact;letter-spacing:0.051em;}.f{filter:url(#a);}</style><filter id="a" x="0" y="0" width="378" height="97" filterUnits="userSpaceOnUse"><feOffset dy="3" input="SourceAlpha"/><feGaussianBlur stdDeviation="3" result="b"/><feFlood flood-opacity="0.161"/><feComposite operator="in" in2="b"/><feComposite in="SourceGraphic"/></filter></defs><g transform="translate(-155 -5346)"><g class="f" transform="matrix(1, 0, 0, 1, 155, 5346)"><rect class="a" width="360" height="79" rx="20" transform="translate(9 6)"/></g><g transform="translate(-8 -1.734)"><g transform="translate(230 5363.734)"><path class="b" d="M91.406-1057.557c.136.065.106.188.1.3q-.184,2.16-.374,4.318c-.095,1.079-.2,2.157-.291,3.236q-.215,2.414-.426,4.829c-.089,1.022-.17,2.046-.258,3.068-.142,1.648-.289,3.3-.431,4.943-.127,1.477-.247,2.955-.375,4.432-.136,1.572-.28,3.142-.418,4.714-.087.985-.17,1.97-.255,2.955-.148,1.7-.3,3.408-.445,5.112-.129,1.516-.246,3.032-.377,4.548-.134,1.553-.282,3.1-.417,4.656-.129,1.477-.25,2.956-.374,4.433-.043.511-.1,1.023-.117,1.535-.009.329-.151.454-.455.536-1.667.452-3.329.927-4.992,1.392q-7.926,2.218-15.85,4.44a1.562,1.562,0,0,1-.89.016q-10.364-2.909-20.732-5.8c-.575-.161-.562-.164-.612-.756-.132-1.572-.279-3.143-.415-4.715-.132-1.534-.254-3.069-.387-4.6s-.274-3.067-.409-4.6c-.093-1.061-.179-2.122-.271-3.182-.139-1.59-.283-3.18-.42-4.771-.129-1.5-.25-2.994-.38-4.49-.136-1.571-.279-3.142-.416-4.713-.091-1.042-.173-2.085-.264-3.127-.139-1.59-.283-3.18-.421-4.771-.128-1.477-.249-2.955-.377-4.433-.139-1.609-.286-3.218-.424-4.827-.091-1.061-.174-2.122-.263-3.183-.033-.4-.076-.8-.108-1.193-.009-.108-.034-.233.1-.3.168.139.367.071.549.071q25.672.005,51.344,0C91.038-1057.489,91.236-1057.425,91.406-1057.557Z" transform="translate(-38.851 1057.583)"/><path class="c" d="M92.176-1057.72a.291.291,0,0,1-.243.124q-.257,0-.514,0-25.466,0-50.932-.005c-.252,0-.537.11-.756-.124.209-.008.417-.022.626-.022q25.6,0,51.193,0C91.759-1057.745,91.968-1057.729,92.176-1057.72Z" transform="translate(-39.621 1057.746)"/><path class="d" d="M250.478-970.5a1.538,1.538,0,0,1-.047-.6q0-24.474,0-48.947c0-.807-.059-.746.735-.746h19.59c.717,0,.781.011.675.725-.094.639-.033,1.285-.181,1.92a8.407,8.407,0,0,0-.11,1.355c-.042.642-.125,1.282-.167,1.924a15.239,15.239,0,0,1-.18,1.861,10.877,10.877,0,0,0-.115,1.412c-.035.624-.1,1.253-.172,1.865a19.241,19.241,0,0,1-.173,1.921,8.9,8.9,0,0,0-.115,1.468c-.056,1.022-.185,2.037-.277,3.053-.1,1.09-.129,2.188-.3,3.274a11.415,11.415,0,0,0-.109,1.356c-.043,1.137-.189,2.265-.279,3.4-.076.956-.178,1.918-.282,2.875-.067.617-.122,1.243-.162,1.867a16.052,16.052,0,0,1-.182,1.917,14.973,14.973,0,0,0-.113,1.527c-.052.64-.134,1.281-.168,1.924a10.927,10.927,0,0,1-.174,1.689,10.228,10.228,0,0,0-.114,1.412c-.045.641-.1,1.286-.164,1.924-.1,1.071-.128,2.15-.3,3.216-.076.465-.048.941-.115,1.414a.585.585,0,0,1-.5.577c-1.044.274-2.086.559-3.128.841q-3.044.826-6.087,1.653-2.441.661-4.883,1.318c-.695.188-1.388.383-2.083.571A2.391,2.391,0,0,1,250.478-970.5Z" transform="translate(-224.04 1025.406)"/><path class="a" d="M106-942.968l10.076,2.744a1.593,1.593,0,0,0,.062-.7q0-13.957,0-27.914c0-.836-.106-.739.715-.741,1.5,0,3.006,0,4.51,0,.574,0,.575,0,.576.6q0,1.855,0,3.711,0,15.983,0,31.967a2.139,2.139,0,0,1-.05.722c-.712-.189-1.425-.373-2.136-.567q-6.619-1.809-13.236-3.621c-.517-.142-.519-.143-.519-.686q0-2.483,0-4.966Z" transform="translate(-97.624 980.576)"/><path class="a" d="M266.157-932.573v-2.119c0-1.161,0-2.322,0-3.483,0-.446.005-.45.439-.571q3.841-1.07,7.683-2.136c.512-.142.5-.144.555-.68.207-1.947.426-3.893.636-5.839.036-.336.052-.674.078-1.024a3.623,3.623,0,0,0-1.322.124c-2.516.383-5.027.794-7.54,1.194a2.431,2.431,0,0,1-.341.029.161.161,0,0,1-.182-.17q-.008-.228-.008-.456,0-10.621,0-21.242c0-.7-.067-.639.649-.639h15.246c.076,0,.152,0,.228,0,.393.014.39.014.353.434q-.2,2.3-.4,4.6c0,.038-.006.076-.01.114-.064.6-.064.6-.69.6H272.8c-.114,0-.228,0-.343,0-.492.008-.5.008-.5.509q0,4.568,0,9.136c0,.057,0,.115,0,.171-.021.251.08.338.335.293.486-.086.976-.15,1.464-.225l7.094-1.092c.056-.009.113-.015.17-.019.439-.036.464-.028.43.412-.084,1.061-.184,2.122-.282,3.182q-.2,2.215-.412,4.429-.2,2.129-.4,4.259-.2,2.158-.4,4.317c-.05.549-.087,1.1-.139,1.648-.045.476-.049.479-.517.609l-12.3,3.406C266.755-932.729,266.5-932.664,266.157-932.573Z" transform="translate(-237.811 980.581)"/></g><text class="e" transform="translate(304 5405.752)"><tspan x="0" y="0">JavaScript</tspan></text></g></g></svg>