<svg xmlns="http://www.w3.org/2000/svg" xmlns:xlink="http://www.w3.org/1999/xlink" width="196" height="196" viewBox="0 0 196 196"><defs><style>.a{fill:#152a49;}.b{fill:#d0d2d5;}.c,.g{opacity:0.1;}.d{fill:#3f3d56;}.e{fill:#fff;}.f,.h{fill:#fd7e14;}.g{fill:#444053;}.h{opacity:0.3;}.i{fill:#fa5959;}.i,.j,.k{opacity:0.8;}.j{fill:#fed253;}.k{fill:#8ccf4d;}.l{fill:#454b69;}.m{filter:url(#a);}</style><filter id="a" x="0" y="0" width="196" height="196" filterUnits="userSpaceOnUse"><feOffset dy="3" input="SourceAlpha"/><feGaussianBlur stdDeviation="3" result="b"/><feFlood flood-opacity="0.161"/><feComposite operator="in" in2="b"/><feComposite in="SourceGraphic"/></filter></defs><g transform="translate(-1465.5 -4130)"><g transform="translate(1469.911 4131.411)"><g class="m" transform="matrix(1, 0, 0, 1, -4.41, -1.41)"><circle class="a" cx="89" cy="89" r="89" transform="translate(9 6)"/></g><path class="b" d="M109.777,142.609l-31.763-.41.094-.814,1.533-13.441h27.9l2.052,13.441.158,1.019Z"/><path class="c" d="M109.748,142.4H93.9L78.014,142.2l.094-.814H109.59Z"/><rect class="b" width="42.148" height="1.019" transform="translate(72.719 141.59)"/><path class="d" d="M155.081,47.23a2.653,2.653,0,0,0-2.639-2.66H34.736A2.649,2.649,0,0,0,32.1,47.234h0v71.348H155.081Z"/><path class="b" d="M32.1,117.869v8.358a2.638,2.638,0,0,0,2.639,2.638H152.443a2.639,2.639,0,0,0,2.638-2.639v-8.358Z"/><rect class="e" width="113.412" height="64.138" transform="translate(37.187 49.044)"/><path class="f" d="M94.2,125.694a2.757,2.757,0,0,0,2.16-1.051h0a3.674,3.674,0,0,0,.212-.313l-1.508-.256H96.7a2.757,2.757,0,0,0,.05-2.178l-2.189,1.134,2.019-1.483a2.75,2.75,0,0,0-4.751,2.764,2.518,2.518,0,0,0,.212.313h0a2.747,2.747,0,0,0,2.163,1.069Z"/><path class="c" d="M96.948,128.862l12.674,12.728-1.944-12.728Z"/><rect class="g" width="113.535" height="3.747" transform="translate(37.101 49.052)"/><rect class="h" width="34.207" height="2.279" rx="0.104" transform="translate(76.52 49.707)"/><path class="d" d="M109.712,51.082h-.086l-.029-.029a.646.646,0,1,0-.518.238.684.684,0,0,0,.443-.162l.032.025v.083l.522.526.155-.158Zm-.626,0a.472.472,0,1,1,.468-.472h0a.468.468,0,0,1-.464.472Z"/><circle class="i" cx="0.688" cy="0.688" r="0.688" transform="translate(38.454 50.24)"/><circle class="j" cx="0.688" cy="0.688" r="0.688" transform="translate(40.341 50.24)"/><circle class="k" cx="0.688" cy="0.688" r="0.688" transform="translate(42.23 50.24)"/><path class="f" d="M99.9,76.567a7.6,7.6,0,0,0-12.635,0,6.839,6.839,0,0,0,12.642,0Z"/><path class="f" d="M86.441,77.776a1.67,1.67,0,0,1-.313-.176,1.3,1.3,0,0,1-.36-.45,1.278,1.278,0,1,0-2.088.313,1.393,1.393,0,0,0,.3.241.9.9,0,0,1,.342.36,2.52,2.52,0,0,0,.59.778,5.338,5.338,0,0,0,.814.572,11.767,11.767,0,0,0-.67,3.484,4.953,4.953,0,0,0-1.357.22,2.16,2.16,0,0,0-.63.317,1.081,1.081,0,0,0-.155,0,1.281,1.281,0,1,0,1.2,1.731.828.828,0,0,1,.662-.536,1.707,1.707,0,0,0,.331-.022,11.472,11.472,0,0,0,1.523,4.755A3.754,3.754,0,0,0,85.213,91.3a.645.645,0,0,0-.1.072,1.08,1.08,0,0,0-.148.14,1.278,1.278,0,1,0,2.16.418.839.839,0,0,1,.209-.9c.086-.083.18-.166.3-.263a7.478,7.478,0,0,0,5.317,2.9V82.2a7.919,7.919,0,0,1-6.512-4.42Zm17.793,5.655h-.155a2.376,2.376,0,0,0-.626-.313,4.737,4.737,0,0,0-1.361-.22,12.116,12.116,0,0,0-.666-3.484,5.307,5.307,0,0,0,.81-.572,2.775,2.775,0,0,0,.616-.814.752.752,0,0,1,.313-.313h0a1.278,1.278,0,1,0-1.8-.565,1.249,1.249,0,0,1-.36.45c-.1.083-.205.158-.313.23a7.854,7.854,0,0,1-6.5,4.363V93.658a7.527,7.527,0,0,0,5.317-2.9c.112.09.205.169.284.245a.867.867,0,0,1,.227.932,1.278,1.278,0,1,0,2.16-.418,1.079,1.079,0,0,0-.151-.137l-.1-.076a3.661,3.661,0,0,0-1.44-1.933,11.472,11.472,0,0,0,1.523-4.755,2.3,2.3,0,0,1,.317.022.86.86,0,0,1,.688.533,1.278,1.278,0,0,0,2.466-.389,1.3,1.3,0,0,0-1.231-1.364Z"/><path class="b" d="M75.534,93.168c-1.407,1.411-1.577,2.03-2.426,2.311s-3.891,1.857-2.934,3.6l2.574,1.71.076.05.392,1.184-3.891,6.929s-6.418-2.934-7.048,1.407-.23,5.525-.4,7.844.054,2.988-.508,2.988-.788-1.523-.788-1.523l-.1-.2c-.839-1.746-6.537-14.557,2.592-23.361a6.065,6.065,0,0,0,5.245-5.126c.72-3.351,3.16-3.063,4.791-2.379a5.335,5.335,0,0,1,1.469.86,7.225,7.225,0,0,1,1.047,1.245A1.829,1.829,0,0,1,75.534,93.168Z"/><path class="c" d="M72.823,100.835l.392,1.184-3.891,6.929s-6.418-2.934-7.048,1.407-.23,5.525-.4,7.844.054,2.988-.508,2.988-.788-1.523-.788-1.523l-.1-.2c-.281-2.16-1.717-14.845,3.492-14.172,0,0,4.226,1.976,4.9,1.188.536-.626,2.912-4.215,3.877-5.687Z"/><path class="c" d="M75.624,90.71,73.05,93.633s-2.988,4-3.6,3.83a2.954,2.954,0,0,0-.565-.065,1.1,1.1,0,0,1-1.011-1.177,1.119,1.119,0,0,1,.3-.673A27.122,27.122,0,0,0,71.2,92a34.866,34.866,0,0,1,1.919-3.4,5.557,5.557,0,0,1,1.465.86A7.157,7.157,0,0,1,75.624,90.71Z"/><path class="l" d="M148.455,132.778c-.439.875-2.674,4.15-3.654,5.583l-.457.673s-.18,1.184-3.1-.284-71.567-30.431-71.567-30.431l-.468-1.4,3.387-5.05,75.232,29.067A1.447,1.447,0,0,1,148.455,132.778Z"/><path class="c" d="M144.8,138.361l-.457.673s-.18,1.184-3.1-.284-71.567-30.431-71.567-30.431l-.468-1.4Z"/></g></g></svg>