<svg xmlns="http://www.w3.org/2000/svg" xmlns:xlink="http://www.w3.org/1999/xlink" width="378" height="97" viewBox="0 0 378 97"><defs><style>.a{fill:#fff;}.b{fill:#c2bfbf;}.c{fill:#cfe6c1;}.d{fill:#deefd7;}.e{fill:#ebf4e5;}.f{fill:#edeaea;}.g{fill:#e9eaea;}.h{fill:#69b240;}.i{fill:#599636;}.j{fill:#47474a;}.k{fill:#6cac48;}.l{fill:#88b273;}.m{fill:#a7ba9d;}.n{filter:url(#a);}</style><filter id="a" x="0" y="0" width="378" height="97" filterUnits="userSpaceOnUse"><feOffset dy="3" input="SourceAlpha"/><feGaussianBlur stdDeviation="3" result="b"/><feFlood flood-opacity="0.161"/><feComposite operator="in" in2="b"/><feComposite in="SourceGraphic"/></filter></defs><g transform="translate(-563 -5242)"><g class="n" transform="matrix(1, 0, 0, 1, 563, 5242)"><rect class="a" width="360" height="79" rx="20" transform="translate(9 6)"/></g><g transform="translate(569.72 5221.669)"><path class="a" d="M1646.059,237.742a2.743,2.743,0,0,1-2.634,2.687,2.834,2.834,0,0,1-2.659-2.715,2.718,2.718,0,0,1,2.691-2.653A2.585,2.585,0,0,1,1646.059,237.742Z" transform="translate(-1351.101 -173.832)"/><path class="b" d="M1606.012,199.924a6.608,6.608,0,0,1-1.307,3.242,11.394,11.394,0,0,1-4.605,3.633,15.006,15.006,0,0,1-3.684,1.215c-.784.142-1.571.249-2.366.328a48.76,48.76,0,0,1-6.593.067c-2.079-.075-4.157-.042-6.235-.1a6.633,6.633,0,0,0-1.665-.009c-.351.077-.469-.1-.4-.454a4.938,4.938,0,0,1,.329-1.024.978.978,0,0,1,.973-.652,6.953,6.953,0,0,0,2.161-.436,1.278,1.278,0,0,0,.922-1.072,13.907,13.907,0,0,0,.234-2.317c0-4.4-.038-8.806.033-13.208.036-2.279.069-4.557.068-6.835a14.53,14.53,0,0,0-.114-1.731,1.817,1.817,0,0,0-1.733-1.547c-.828-.116-1.654-.255-2.484-.353-.306-.036-.377-.189-.331-.439a4.288,4.288,0,0,1,.675-1.459c.153-.245.446-.168.668-.134a22.145,22.145,0,0,0,3.353.105c3.882.009,7.766-.052,11.647.013a9.6,9.6,0,0,1,5.575,1.746,6.134,6.134,0,0,1,2.61,4.643,6.39,6.39,0,0,1-2.374,5.772,10.025,10.025,0,0,1-2.015,1.287c-.1.05-.23.076-.268.214.042.159.189.118.294.15a12.019,12.019,0,0,1,3.79,1.754,7.059,7.059,0,0,1,2.766,3.878,4.118,4.118,0,0,1,.073.472c.1.1-.006.267.11.365v2.522C1606,199.656,1606.11,199.821,1606.012,199.924Z" transform="translate(-1298.518 -123.948)"/><path class="c" d="M57.394,232.822c.027-.163-.033-.347.112-.483A.706.706,0,0,1,57.7,233a25.671,25.671,0,0,1-.223,2.653.138.138,0,0,1-.192.058v-2.282C57.427,233.246,57.262,233.006,57.394,232.822Z" transform="translate(0 -171.509)"/><path class="d" d="M57.28,255.3h.125a1.335,1.335,0,0,1,.106,1.565c-.135-.115-.1-.275-.111-.424s.022-.309-.119-.42Z" transform="translate(0 -191.095)"/><path class="e" d="M57.394,235.629c-.018.205.073.431-.114.6v-.6Z" transform="translate(0 -174.316)"/><path class="f" d="M1762.313,313.75c-.145-.089-.12-.229-.11-.365l.11,0Z" transform="translate(-1454.71 -240.661)"/><path class="g" d="M1762.205,333.423c-.01-.136-.036-.276.109-.366v.36Z" transform="translate(-1454.711 -257.446)"/><path class="h" d="M58.2,65.764a6.142,6.142,0,0,0-.106-1.565c-.046-1.125.152-2.243.1-3.369a39.943,39.943,0,0,1,4.459-16.054,33.779,33.779,0,0,1,7.692-9.813A8.394,8.394,0,0,0,71.9,33.4a3.079,3.079,0,0,0,.607-1.965c.07-.052.147-.182.223-.027a1.716,1.716,0,0,1,.239.6c.4,3.518.347,7.054.469,10.584.154,4.477.035,8.951.085,13.426-.039,1.75-.007,3.5-.016,5.251a2.153,2.153,0,0,0,.087.527,3.585,3.585,0,0,1,.052.656c.034,1.615.07,3.234.082,4.847.02,2.61-.057,5.225-.169,7.837-.078,1.834-.172,3.666-.313,5.5a2.322,2.322,0,0,0-.1.625c0,.173,0,.345-.008.518-.2,1.8-.363,3.6-.7,5.383a11.08,11.08,0,0,1-.338,1.392c-.069.211-.1.486-.426.489-1.084-.882-2.174-1.757-3.176-2.734a34.391,34.391,0,0,1-9.005-14.16A31.508,31.508,0,0,1,58.2,65.764Z" transform="translate(-0.686 0)"/><path class="i" d="M158.79,84.728a28.461,28.461,0,0,1,.158-3.04c.044-.815.009-1.636.1-2.443.2-1.753.009-3.512.132-5.26a17.232,17.232,0,0,0,.077-2.862c-.175-1.8-.041-3.589-.1-5.382-.127-1.208-.016-2.42-.057-3.63a14,14,0,0,0-.059-2.135c0-4.039.062-8.08-.029-12.117-.041-1.835,0-3.674-.117-5.5-.065-1,.022-2-.121-2.982-.124-.852.014-1.712-.191-2.557a.955.955,0,0,1,.09-.862c.5.934.928,1.9,1.5,2.8a10.143,10.143,0,0,0,1.312,1.632,49.564,49.564,0,0,1,4.132,4.671A40.522,40.522,0,0,1,172,57.924a31.826,31.826,0,0,1,1.378,8.673,30.931,30.931,0,0,1-9.074,23.054,22.522,22.522,0,0,1-3.228,2.77c-.626.015-.892-.463-1.151-.9a7.669,7.669,0,0,1-.9-2.573,12.537,12.537,0,0,1-.287-3.248c0-.165,0-.329,0-.494C158.754,85.049,158.695,84.88,158.79,84.728Z" transform="translate(-86.38 -3.945)"/><path class="b" d="M1348.959,207.764c-1.261,0-2.526.066-3.782-.015-2.1-.135-4.2-.049-6.3-.1-.512-.012-.564-.075-.464-.559.024-.117.048-.235.083-.349.347-1.12.5-1.128,1.483-1.245a5.033,5.033,0,0,0,1.438-.388,1.49,1.49,0,0,0,.882-1.073,5.839,5.839,0,0,0,.16-1.124c.253-7.242.056-14.486.111-21.729a4.827,4.827,0,0,0-.148-1.125,1.862,1.862,0,0,0-1.164-1.351,8.57,8.57,0,0,0-1.971-.48c-.472-.075-.943-.157-1.417-.216-.284-.035-.387-.128-.279-.428a6.662,6.662,0,0,1,.716-1.38.537.537,0,0,1,.632-.227,4.4,4.4,0,0,0,1.253.079c1.72-.041,3.437.218,5.155.107,2.079-.134,4.16-.029,6.236-.131.979-.048,1.958-.095,2.934-.063a20.109,20.109,0,0,1,7.14,1.31,13.6,13.6,0,0,1,7.6,7.579,15.308,15.308,0,0,1,1.088,4.58,18.424,18.424,0,0,1,.077,2.573,16.131,16.131,0,0,1-2.549,8.372,15.3,15.3,0,0,1-4.755,4.5,18.852,18.852,0,0,1-7.109,2.556A41.792,41.792,0,0,1,1348.959,207.764Z" transform="translate(-1092.385 -123.398)"/><path class="j" d="M339.169,260.71q0,2.7,0,5.4a4.873,4.873,0,0,0,.018.54,1.412,1.412,0,0,0,1.192,1.392,13.754,13.754,0,0,0,1.59.3c.3.041.426.176.411.466-.01.2-.009.4-.035.6-.1.746-.1.75-.836.723-.92-.033-1.839-.085-2.759-.109q-3.092-.078-6.181.1c-.874.052-.957-.047-.941-.916a2.285,2.285,0,0,1,.028-.3c.072-.475.08-.472.542-.562.51-.1,1.014-.223,1.523-.326a1.48,1.48,0,0,0,1.291-1.443c.061-.737.082-1.478.109-2.217.122-3.3.061-6.6.052-9.906a1.4,1.4,0,0,0-.777-1.32,11.93,11.93,0,0,0-2.146-.916,2.176,2.176,0,0,1-.665-.268.489.489,0,0,1-.068-.816,1.2,1.2,0,0,1,.694-.324,32.628,32.628,0,0,0,6.555-1.658c.307-.115.394-.071.473.231a2.747,2.747,0,0,1,0,.9c-.028.4-.073.8-.083,1.2-.006.246-.111.543.179.709s.481-.1.676-.243a18.536,18.536,0,0,1,2.629-1.674,10.277,10.277,0,0,1,3.324-1.16,5.362,5.362,0,0,1,4.393,1.322,7.745,7.745,0,0,1,1.354,1.6c.32.479.378.488.836.15a20.9,20.9,0,0,1,3.792-2.293,8.64,8.64,0,0,1,2.45-.772,6.04,6.04,0,0,1,6.428,3.4,10.082,10.082,0,0,1,.968,4.3c.023,2.121,0,4.243-.007,6.365,0,1.081,0,2.162-.017,3.242a1.36,1.36,0,0,0,.93,1.389,11.1,11.1,0,0,0,2.09.523c.5.1.5.093.476.556-.058,1.217-.16,1.285-1.375,1.211a79.68,79.68,0,0,0-8.52,0c-.12.006-.24.013-.359.025-.2.021-.3-.075-.3-.271,0-.1-.014-.2-.02-.3-.066-1.091-.066-1.089.968-1.329.272-.063.538-.151.808-.224a1.427,1.427,0,0,0,1.131-1.44c.04-.879.084-1.759.089-2.639.013-2.341.073-4.683-.083-7.023a6.287,6.287,0,0,0-.187-1.244,4.465,4.465,0,0,0-5.125-3.329,8.7,8.7,0,0,0-3.689,1.5.8.8,0,0,0-.394.91,14.378,14.378,0,0,1,.145,2.634q0,4.444,0,8.888c0,.08,0,.16,0,.24a1.372,1.372,0,0,0,1.145,1.476c.559.15,1.127.278,1.7.373.3.05.419.174.408.467a4.577,4.577,0,0,1-.095.952.425.425,0,0,1-.5.378q-1.379-.064-2.76-.091c-2.082-.04-4.163-.006-6.243.081-.08,0-.16.007-.24.008-.792.012-.846-.038-.856-.822a3.843,3.843,0,0,1,.024-.479.492.492,0,0,1,.492-.493c.436-.048.867-.147,1.3-.233,1.108-.221,1.455-.6,1.515-1.745.063-1.2.112-2.4.126-3.6.024-2,.065-4-.1-6a6.376,6.376,0,0,0-.7-2.464,3.87,3.87,0,0,0-3.431-2.161,7.73,7.73,0,0,0-4.1,1.153,2.17,2.17,0,0,0-1.3,2.255c.083,1.717.022,3.442.022,5.163Z" transform="translate(-233.832 -185.772)"/><path class="j" d="M1002.684,249.444a3.643,3.643,0,0,1,0,2.037,2.328,2.328,0,0,1-2.553,1.721,6.052,6.052,0,0,1-1.069-.146c-.355-.078-.425.014-.334.377a9.139,9.139,0,0,1-.047,4.743,6.4,6.4,0,0,1-1.832,3.045,10.243,10.243,0,0,1-6.057,2.759c-.358.037-.716.084-1.075.1a1.725,1.725,0,0,0-1.032.432,1.219,1.219,0,0,0,.061,2,2.675,2.675,0,0,0,1.221.463c.932.142,1.873.155,2.81.231a48.422,48.422,0,0,1,5.363.6,5.006,5.006,0,0,1,4.212,4.06,6.807,6.807,0,0,1-.623,4.205,9.9,9.9,0,0,1-3.088,3.7,14.01,14.01,0,0,1-9.909,2.852,9.347,9.347,0,0,1-4.969-1.737,6.157,6.157,0,0,1-2.432-3.737,3.426,3.426,0,0,1,.815-3.125,12.918,12.918,0,0,1,1.926-1.714c.62-.473,1.262-.918,1.885-1.387.168-.126.456-.185.45-.437-.007-.277-.315-.268-.5-.354A5.165,5.165,0,0,1,984,268.709a3.539,3.539,0,0,1-.663-1.267.8.8,0,0,1,.43-1.109c.693-.438,1.4-.848,2.1-1.281a9.075,9.075,0,0,0,.937-.648c.3-.247.262-.456-.1-.627-.216-.1-.446-.176-.665-.272a6.224,6.224,0,0,1-3.8-4.96,8.076,8.076,0,0,1,.153-3.686,6.918,6.918,0,0,1,3.389-4.179A12.817,12.817,0,0,1,991.113,249a10.6,10.6,0,0,1,4.129.608,15.694,15.694,0,0,0,2.686.834,9.751,9.751,0,0,0,2.514.041,3.481,3.481,0,0,0,1.8-.759A.9.9,0,0,1,1002.684,249.444Z" transform="translate(-788.364 -185.707)"/><path class="j" d="M796.657,260.4c0,1.681-.005,3.362,0,5.042a9.865,9.865,0,0,0,.088,1.075,1.1,1.1,0,0,0,.841.983,11.134,11.134,0,0,0,1.887.337c.424.053.459.085.5.5a3.587,3.587,0,0,1-.128,1.129c-.092.4-.154.438-.585.423-.98-.033-1.959-.1-2.938-.114-2.2-.042-4.4-.022-6.6.105-.737.043-.74.025-.788-.689-.007-.1-.014-.2-.015-.3-.01-.986,0-.992.992-1.159.315-.053.626-.128.937-.2a1.35,1.35,0,0,0,1.226-1.459c.052-.8.094-1.6.107-2.4.051-3.142.032-6.283.025-9.425a1.4,1.4,0,0,0-.832-1.387,13.327,13.327,0,0,0-2.048-.843,2.071,2.071,0,0,1-.6-.259.653.653,0,0,1-.064-1.112,1.491,1.491,0,0,1,.817-.336,34.845,34.845,0,0,0,5.818-1.411c.227-.077.45-.166.674-.251.381-.145.474-.1.613.275a1.583,1.583,0,0,1,.055.653c-.037.639-.081,1.277-.114,1.917-.006.11-.049.258.095.316s.219-.061.308-.135a16.531,16.531,0,0,1,3.664-2.376,7.3,7.3,0,0,1,3.589-.8,6.062,6.062,0,0,1,5.175,3.379,9.113,9.113,0,0,1,.965,3.628c.073.836.1,1.677.1,2.518.005,2.521.026,5.043.042,7.564,0,.2.008.4.021.6a1.131,1.131,0,0,0,.832,1.11,11.2,11.2,0,0,0,1.975.484c.531.077.6.15.6.685a3.919,3.919,0,0,1-.144,1.066.434.434,0,0,1-.517.366c-1.019-.056-2.038-.1-3.058-.123-2.1-.046-4.2-.013-6.3.111-.844.05-.846.025-.936-.811a2.9,2.9,0,0,1-.016-.359c.014-.763.075-.84.827-.941a7.553,7.553,0,0,0,1.462-.314,1.021,1.021,0,0,0,.712-.812,3.981,3.981,0,0,0,.094-.833c.014-2.882.047-5.764-.035-8.645a9.179,9.179,0,0,0-.2-1.846,4.163,4.163,0,0,0-3.733-3.3,6.8,6.8,0,0,0-4.4,1.084,2.094,2.094,0,0,0-1.053,1.949c.02,1.421.005,2.842.005,4.263V260.4Z" transform="translate(-623.805 -185.281)"/><path class="j" d="M640.28,259.148a11.833,11.833,0,0,1-1.188,5.6,9.654,9.654,0,0,1-4.53,4.464,12.323,12.323,0,0,1-4.46,1.308c-5.209.37-9.576-2.1-10.847-7.745a12.561,12.561,0,0,1,.072-6.233,9.275,9.275,0,0,1,4.171-5.513,12.7,12.7,0,0,1,6.937-2,9.546,9.546,0,0,1,7.368,3.184,9.9,9.9,0,0,1,2.338,5.109A10.6,10.6,0,0,1,640.28,259.148Z" transform="translate(-479.198 -185.746)"/><path class="j" d="M1152.332,259.613a9.671,9.671,0,0,1,4.232-8.424,12.879,12.879,0,0,1,5.2-2.053,10.728,10.728,0,0,1,5.276.315,9.123,9.123,0,0,1,6.279,6.689,12.147,12.147,0,0,1-.355,7.492,9.7,9.7,0,0,1-5.2,5.614,11.841,11.841,0,0,1-7.879.954,9.025,9.025,0,0,1-6.82-6.111A13.063,13.063,0,0,1,1152.332,259.613Z" transform="translate(-934.347 -185.679)"/><path class="b" d="M152.088,374.572a19.839,19.839,0,0,0,.76,4.628,5.8,5.8,0,0,0,.546,1.189,2.234,2.234,0,0,0,.989.918,5.028,5.028,0,0,0-.91,2.177c-.059.552-.147,1.1-.16,1.656-.025,1.094-.015,2.189,0,3.283.005.4.067.789.1,1.184.014.172-.01.324-.233.334a2.915,2.915,0,0,0-.881-.345c-.743-.266-.662-.134-.676-.957,0-.24,0-.479-.005-.719a20.537,20.537,0,0,0-.914-5.815,1.3,1.3,0,0,1-.034-.234,4.371,4.371,0,0,0,.578-1.859,41.706,41.706,0,0,0,.634-4.854,5.5,5.5,0,0,1,.1-.589C152.019,374.513,152.054,374.516,152.088,374.572Z" transform="translate(-79.684 -292.831)"/><path class="a" d="M1644.317,289.513c0-1.882,0-3.343,0-4.8,0-.622.092-.767.7-.788a29.546,29.546,0,0,1,3.059.012,16.327,16.327,0,0,1,2.547.32,8.1,8.1,0,0,1,4.24,2.2,5.819,5.819,0,0,1,1.562,3.552,8.083,8.083,0,0,1-.432,3.717,5.509,5.509,0,0,1-3.221,3.266,6.785,6.785,0,0,1-2.749.5,18.714,18.714,0,0,1-3.279-.218,3.069,3.069,0,0,1-2.32-2.787C1644.227,292.689,1644.372,290.888,1644.317,289.513Z" transform="translate(-1354.131 -215.493)"/><path class="a" d="M1646.638,193.07a11.613,11.613,0,0,1,4.353.739,5.125,5.125,0,0,1,3.258,4.691,6.538,6.538,0,0,1-.436,3.053,3.884,3.884,0,0,1-2.981,2.424,14.4,14.4,0,0,1-4.229.179c-.572-.071-1.159-.02-1.739-.035-.522-.013-.584-.071-.584-.6,0-2.261-.033-4.523.029-6.783.025-.9.056-1.795.086-2.692.019-.555.222-.755.765-.9A8.649,8.649,0,0,1,1646.638,193.07Z" transform="translate(-1354.092 -138.003)"/><path class="k" d="M161.975,199.635c.181.157.116.37.116.561q.005,2.6,0,5.2c-.193-.178-.113-.412-.113-.622C161.972,203.064,161.975,201.35,161.975,199.635Z" transform="translate(-89.319 -143.604)"/><path class="l" d="M159.695,368.3l0,.477q-.054.076-.108,0C159.593,368.615,159.523,368.432,159.695,368.3Z" transform="translate(-87.285 -287.52)"/><path class="m" d="M159.623,371.537a.521.521,0,0,1,.108,0q0,.24,0,.48l-.053,0h-.053Q159.623,371.777,159.623,371.537Z" transform="translate(-87.324 -290.277)"/><path class="a" d="M1406.048,204.4c0-3.562.023-7.125-.013-10.687-.013-1.247.564-1.548,1.593-1.622.851-.061,1.707-.042,2.563-.026a15.847,15.847,0,0,1,6.114,1.264,10.677,10.677,0,0,1,2.9,1.889,11.835,11.835,0,0,1,2.635,3.314,14.34,14.34,0,0,1,1.382,4.125,18.316,18.316,0,0,1,.219,4.359,14.251,14.251,0,0,1-2.377,7.616,9.773,9.773,0,0,1-6.019,4.161,11.95,11.95,0,0,1-3.922.233,13.976,13.976,0,0,1-2.754-.517,3.021,3.021,0,0,1-2.311-3.183c-.05-2.661-.026-5.323-.031-7.985,0-.981,0-1.961,0-2.942Z" transform="translate(-1150.813 -137.133)"/><path class="a" d="M1014.564,407.564a9.3,9.3,0,0,1-3.7-.628,6.194,6.194,0,0,1-2.166-1.47,3.688,3.688,0,0,1,.038-5.322,4.987,4.987,0,0,1,4.16-1.734c.218.022.44,0,.659.015a21.139,21.139,0,0,1,4.509.582,7.91,7.91,0,0,1,.9.314,3.533,3.533,0,0,1,2.114,4.515,4.57,4.57,0,0,1-2.4,2.852A8.278,8.278,0,0,1,1014.564,407.564Z" transform="translate(-810.839 -313.187)"/><path class="a" d="M1023.642,268.368a7.151,7.151,0,0,1-.534,2.91,3.492,3.492,0,0,1-3.974,2.181,4.292,4.292,0,0,1-3.38-2.409,7.811,7.811,0,0,1-.652-5.709,3.52,3.52,0,0,1,2.856-2.836,4.431,4.431,0,0,1,4.965,2.411A7.558,7.558,0,0,1,1023.642,268.368Z" transform="translate(-817.027 -197.177)"/><path class="a" d="M661.955,273.315a12.6,12.6,0,0,1-.648,4.443,4.419,4.419,0,0,1-3.737,3.057,5.844,5.844,0,0,1-4.355-1.143,7.86,7.86,0,0,1-2.373-2.967,12.074,12.074,0,0,1-1.142-4.26,13.093,13.093,0,0,1,.311-4.819,5.513,5.513,0,0,1,1.764-2.863,4.971,4.971,0,0,1,4.815-.789,6.53,6.53,0,0,1,3.878,3.2,11.551,11.551,0,0,1,1.426,4.846C661.939,272.515,661.942,273.016,661.955,273.315Z" transform="translate(-505.407 -198.261)"/><path class="a" d="M1195.206,273.431a12.386,12.386,0,0,1-.492,3.929,4.5,4.5,0,0,1-3.909,3.49,5.9,5.9,0,0,1-4.9-1.616,7.042,7.042,0,0,1-1.5-1.932,13.51,13.51,0,0,1-1.083-9.775,5.1,5.1,0,0,1,1.336-2.379,4.8,4.8,0,0,1,4.7-1.27,6.38,6.38,0,0,1,4.071,2.839,10.755,10.755,0,0,1,1.663,4.7A11.036,11.036,0,0,1,1195.206,273.431Z" transform="translate(-960.396 -198.294)"/></g></g></svg>