<svg xmlns="http://www.w3.org/2000/svg" xmlns:xlink="http://www.w3.org/1999/xlink" width="378" height="97" viewBox="0 0 378 97"><defs><style>.a{fill:#fff;}.b{fill:#006189;}.c{fill:#e38d00;}.d{fill:#e38e00;}.e{fill:#01618a;}.f{fill:#2f7e9f;}.g{fill:#fefefe;}.h{fill:#fefefd;}.i{fill:#e38e01;}.j{fill:#fdfaf6;}.k{filter:url(#a);}</style><filter id="a" x="0" y="0" width="378" height="97" filterUnits="userSpaceOnUse"><feOffset dy="3" input="SourceAlpha"/><feGaussianBlur stdDeviation="3" result="b"/><feFlood flood-opacity="0.161"/><feComposite operator="in" in2="b"/><feComposite in="SourceGraphic"/></filter></defs><g transform="translate(-563 -5450)"><g class="k" transform="matrix(1, 0, 0, 1, 563, 5450)"><rect class="a" width="360" height="79" rx="20" transform="translate(9 6)"/></g><g transform="translate(602 2758.073)"><path class="b" d="M338.29,3003.031c0-.881.036-1.763,0-2.642-.023-.493.137-.606.612-.6,4.732.017,9.465.009,14.2.012a5.691,5.691,0,0,0,2.045-.352,1.684,1.684,0,0,0,1.236-1.827c-.006-1.494-.006-1.494-1.478-1.494-2.868,0-5.737.01-8.6,0a11.9,11.9,0,0,1-5.366-1.091c-1.451-.726-2.647-1.709-2.723-3.49-.055-1.308.013-2.622.015-3.933,0-2.151.014-4.3-.016-6.452-.006-.421.146-.468.49-.464,1.25.014,2.5.027,3.749-.006.481-.013.623.12.619.612-.023,3.216-.012,6.433-.011,9.649a1.857,1.857,0,0,0,1.773,2.145,6.294,6.294,0,0,0,1.283.109c3.237,0,6.474-.011,9.711.012.494,0,.6-.143.6-.612-.019-3.79,0-7.581-.02-11.371,0-.444.087-.6.567-.587,1.29.037,2.581.024,3.872.005.348-.005.447.093.447.444-.013,5.634,0,11.268-.023,16.9a4.164,4.164,0,0,1-2.3,3.676,10.451,10.451,0,0,1-3.765,1.234c-.111.018-.254-.034-.309.127Z" transform="translate(-238.562 -235.567)"/><path class="b" d="M78.7,2947.333c1.034-2.312,2-4.472,2.968-6.632,1.36-3.041,2.789-6.053,4.058-9.132,1.342-3.257,3.674-3.871,6.641-3.278.16.032.32.07.478.112,2.1.563,2.756,1.405,2.758,3.588.006,6.1,0,12.209.012,18.314,0,.447-.09.6-.567.584-1.207-.038-2.418-.04-3.625,0-.523.017-.679-.1-.677-.657.024-5.838.015-11.677.015-17.515v-.7c-.245.093-.257.318-.331.483q-3.528,7.824-7.044,15.655a5.059,5.059,0,0,1-7,2.576,4.144,4.144,0,0,1-1.991-2.243q-3.192-7.1-6.389-14.2a18.975,18.975,0,0,0-1.131-2.233v.605c0,5.838-.011,11.677.016,17.515,0,.616-.175.742-.748.72-1.227-.045-2.458-.025-3.687-.007-.342.005-.455-.089-.454-.444.011-6.228-.005-12.456.018-18.683.007-1.935.7-2.741,2.58-3.283a9.223,9.223,0,0,1,2.293-.384,4.56,4.56,0,0,1,4.777,3.02q2.541,5.848,5.067,11.7C77.367,2944.271,78,2945.729,78.7,2947.333Z" transform="translate(0 -190.17)"/><path class="c" d="M737.062,2953l4.728,4.276h-5.472c-.234,0-.356-.186-.5-.319-1-.9-2.018-1.8-3-2.728a1.342,1.342,0,0,0-1.15-.4,78.753,78.753,0,0,1-8.284.219,11.1,11.1,0,0,1-4.527-.963,4.587,4.587,0,0,1-3.014-4.431c-.009-3.932-.016-7.863,0-11.795a4.489,4.489,0,0,1,3.007-4.3,11.113,11.113,0,0,1,4.538-.911h8.908a11.247,11.247,0,0,1,4.6.913,4.6,4.6,0,0,1,3.011,4.55q-.03,5.683,0,11.366a4.244,4.244,0,0,1-2.669,4.4A1.15,1.15,0,0,0,737.062,2953Z" transform="translate(-564.767 -193.25)"/><path class="b" d="M981.39,2750.793c-2.047-1.936-4.4-3.553-6.122-5.831a24.425,24.425,0,0,1-1.813-3.265,2.063,2.063,0,0,0-.457-.643c-.145.879-.3,1.756-.433,2.637a8.661,8.661,0,0,1-.307,1.562,2.127,2.127,0,0,1-3.085,1.227,4.577,4.577,0,0,1-1.593-1.5,12.74,12.74,0,0,1-2.15-6.251,17.2,17.2,0,0,1,.683-6.917,12.1,12.1,0,0,1,.748-2.582c.142-.251-.034-.49-.2-.661a15.034,15.034,0,0,1-3.128-5.637,33.341,33.341,0,0,1-1.215-3.663,6.44,6.44,0,0,0-1.225-2.25c-.708-.953-1.45-1.881-2.154-2.837a5.552,5.552,0,0,1-1.273-2.878,3.018,3.018,0,0,1,3.367-3.362,11.215,11.215,0,0,1,4.3,1.362,12.136,12.136,0,0,1,2.757,1.82,1.5,1.5,0,0,0,1.042.444,16.921,16.921,0,0,1,9.419,3.042,38.121,38.121,0,0,1,11.971,12.307,12.867,12.867,0,0,1,1.037,2.083c1.352,3.583,3.133,6.969,4.764,10.425a3.491,3.491,0,0,0,2.143,1.916,31.135,31.135,0,0,1,9,5.539,17.39,17.39,0,0,1,2.736,2.889c.3.385.2.533-.244.67a16.83,16.83,0,0,1-3.663.724c-1.232.1-2.38.591-3.592.78-.315.049-.287.2-.154.416a4.467,4.467,0,0,0,1.307,1.279c1.167.831,2.458,1.464,3.6,2.343a43.011,43.011,0,0,1,4.129,4.2,4.286,4.286,0,0,1,.58,1.112c-.259.114-.358-.06-.465-.158a24.028,24.028,0,0,0-6.242-3.958,12.558,12.558,0,0,1-5.48-4.4,8.578,8.578,0,0,1-.694-1.361c-.163-.388.157-.58.442-.679a19.959,19.959,0,0,1,4.3-1.194,31.4,31.4,0,0,1,3.434-.162c.131,0,.309.087.382-.088.064-.154-.067-.275-.164-.369a5.865,5.865,0,0,0-.736-.647c-1.484-1.019-2.983-2.018-4.468-3.035a16.512,16.512,0,0,0-4.969-2.04,4.628,4.628,0,0,1-3.152-2.567c-1.586-3.341-3.257-6.644-4.637-10.077a28.01,28.01,0,0,0-4.685-7.52,31.077,31.077,0,0,0-11.282-8.59,15.349,15.349,0,0,0-5.284-.922,3.067,3.067,0,0,1-1.8-.771,14.426,14.426,0,0,0-5.669-2.806c-1.231-.3-1.9.507-1.492,1.7a5.227,5.227,0,0,0,1.034,1.8,20.488,20.488,0,0,1,4.551,8.724,13.271,13.271,0,0,0,1.583,3.645,5.933,5.933,0,0,0,1.136,1.441,2.253,2.253,0,0,1,.67,2.606,34.978,34.978,0,0,0-1.115,3.373,15.613,15.613,0,0,0,.948,9.787,3.13,3.13,0,0,0,1.147,1.482c.544.332.7.249.767-.386a25.715,25.715,0,0,1,.6-4,7.573,7.573,0,0,1,2.179-3.553,1.241,1.241,0,0,1,.339.63,40.847,40.847,0,0,0,7.411,12.7c.241.276.525.515.79.771C981.549,2750.774,981.518,2750.835,981.39,2750.793Z" transform="translate(-773.65 0)"/><path class="c" d="M548.931,2931.11c2.335,0,4.671.022,7.006-.016.571-.009.694.169.659.689a14.238,14.238,0,0,0,0,1.965c.036.51-.163.6-.625.6-4.22-.016-8.44-.01-12.659-.008a9.963,9.963,0,0,0-2.2.208,1.456,1.456,0,0,0-1.326,1.4,15.782,15.782,0,0,0,.018,2.821,2.075,2.075,0,0,0,2.263,1.9c1.636.068,3.276.049,4.915.055a18.449,18.449,0,0,1,5.06.439,8.06,8.06,0,0,1,3.2,1.617,3.033,3.033,0,0,1,1.136,2.475c-.031.962-.051,1.928,0,2.888a4.083,4.083,0,0,1-2.29,3.961,9.589,9.589,0,0,1-4.855,1.344c-4.629.033-9.259.01-13.888.028-.418,0-.521-.135-.5-.524a16.088,16.088,0,0,0,0-1.965c-.046-.579.109-.756.723-.751,4.076.031,8.153.016,12.229.016a7.276,7.276,0,0,0,2.067-.241,2.07,2.07,0,0,0,1.646-2.2c0-.615,0-1.229,0-1.844a1.864,1.864,0,0,0-1.42-1.963,8.272,8.272,0,0,0-2.487-.325c-1.946-.022-3.893.015-5.837-.059a10.085,10.085,0,0,1-4.52-1.229,3.863,3.863,0,0,1-2.328-3.9c.066-.835,0-1.679.024-2.519a4.074,4.074,0,0,1,2.112-3.583,9.577,9.577,0,0,1,4.995-1.264c2.294-.017,4.589,0,6.883,0Z" transform="translate(-408.429 -192.767)"/><path class="c" d="M914.813,2939.865c0-2.725.011-5.45-.011-8.175,0-.46.116-.594.579-.581,1.208.034,2.418.04,3.626,0,.539-.019.687.125.684.675-.022,5.163-.013,10.327-.013,15.49q0,.4.011.8a1.892,1.892,0,0,0,1.359,1.846,6.6,6.6,0,0,0,2.3.342c4.1.012,8.2.019,12.294,0,.527,0,.722.1.679.665a19.966,19.966,0,0,0-.007,2.15c.01.323-.092.42-.416.419-4.385-.016-8.77.015-13.154-.046a12.091,12.091,0,0,1-4.951-1.049,4.73,4.73,0,0,1-2.976-4.6C914.808,2945.151,914.813,2942.508,914.813,2939.865Z" transform="translate(-736.635 -192.777)"/><path class="d" d="M1096.388,3048.473a3.5,3.5,0,0,1-3.645,3.489,3.566,3.566,0,1,1,3.645-3.489Z" transform="translate(-887.325 -291.013)"/><path class="e" d="M1040.176,2779.093a9.3,9.3,0,0,0-1.68-2.791c-.485-.513-.437-.568.25-.675a1.968,1.968,0,0,1,2.2,1.4A1.858,1.858,0,0,1,1040.176,2779.093Z" transform="translate(-843.201 -58.455)"/><path class="f" d="M909.2,2901.488l.142-.132a.628.628,0,0,1,.4.4A.608.608,0,0,1,909.2,2901.488Z" transform="translate(-731.795 -167.081)"/><path class="g" d="M758.07,2967.208c.766.7,1.386,1.26,2.008,1.823s1.24,1.121,1.851,1.672c-.051.174-.17.137-.26.137-1.516-.008-3.032.015-4.546-.04a2.765,2.765,0,0,1-2.981-3.12q0-4.824,0-9.647c0-1.945.638-2.883,2.6-3.012a58.483,58.483,0,0,1,9.445.042c1.612.155,2.3,1.112,2.3,2.717q0,5.161,0,10.323a2.438,2.438,0,0,1-.821,1.968c-.29.252-.5.305-.824,0-.9-.863-1.852-1.677-2.768-2.526a1.175,1.175,0,0,0-.874-.344C761.552,2967.217,759.9,2967.208,758.07,2967.208Z" transform="translate(-597.86 -213.289)"/><path class="h" d="M1095.24,3053.089a2.767,2.767,0,1,1,2.759,2.825A2.748,2.748,0,0,1,1095.24,3053.089Z" transform="translate(-892.494 -295.704)"/><path class="i" d="M1107.126,3058.329l1.078,1.662a.7.7,0,0,1-1.034-.39c-.179-.366-.429-.7-.625-1.055a.493.493,0,0,0-.567-.249c-.321.038-.224.292-.231.475-.013.327-.01.655,0,.983.006.236-.1.324-.331.325s-.338-.068-.337-.313c.006-1.146.008-2.293,0-3.439,0-.274.114-.359.367-.348.552.023,1.1.019,1.655.056a1.011,1.011,0,0,1,1.069.9,1.05,1.05,0,0,1-.77,1.28Z" transform="translate(-900.989 -300.642)"/><path class="j" d="M1110.658,3060.184c.31.039.9-.069.869.6-.036.73-.689.515-1.14.588-.6.1-.507-.3-.547-.677C1109.774,3060.069,1110.182,3060.18,1110.658,3060.184Z" transform="translate(-905.099 -304.265)"/></g></g></svg>