<svg xmlns="http://www.w3.org/2000/svg" xmlns:xlink="http://www.w3.org/1999/xlink" width="378" height="97" viewBox="0 0 378 97"><defs><style>.a{fill:#fff;}.b{fill:#444a4a;}.c{fill:#05b69e;}.d{filter:url(#a);}</style><filter id="a" x="0" y="0" width="378" height="97" filterUnits="userSpaceOnUse"><feOffset dy="3" input="SourceAlpha"/><feGaussianBlur stdDeviation="3" result="b"/><feFlood flood-opacity="0.161"/><feComposite operator="in" in2="b"/><feComposite in="SourceGraphic"/></filter></defs><g transform="translate(-1391 -5138)"><g class="d" transform="matrix(1, 0, 0, 1, 1391, 5138)"><rect class="a" width="360" height="79" rx="20" transform="translate(9 6)"/></g><g transform="translate(1409.127 -506.548)"><path class="b" d="M885.929,5815.208H867.307c.153,3.417,1.951,6.141,4.548,7.089,4.052,1.48,7.447.289,10.254-2.945l3.422,3.269a11.407,11.407,0,0,1-4.332,3.866c-4.792,2.523-11.516,1.937-15.57-1.375a12.481,12.481,0,0,1-4.528-7.881,20.234,20.234,0,0,1,.845-10.644,12.5,12.5,0,0,1,13.6-8.217,10.81,10.81,0,0,1,9.743,8.553A27.227,27.227,0,0,1,885.929,5815.208Zm-18.552-4.761h12.339c-.127-.876-.183-1.716-.378-2.522-.509-2.111-1.638-3.751-3.862-4.281a5.706,5.706,0,0,0-5.975,1.6A9.434,9.434,0,0,0,867.378,5810.447Z" transform="translate(-697.286 -119.904)"/><path class="b" d="M1576.489,5837.17c1.054-.066,2.037-.079,3.007-.2a3.838,3.838,0,0,0,3.124-2.2c.59-1.229,1.052-2.52,1.534-3.8a1.141,1.141,0,0,0-.095-.686q-4.8-13.684-9.614-27.363c-.072-.206-.139-.413-.231-.686.216-.02.383-.049.551-.049,1.933,0,3.866.012,5.8-.013a.611.611,0,0,1,.7.527q2.813,9.1,5.656,18.2a1.287,1.287,0,0,0,.323.568l5.759-19.255h6.789c-.049.19-.079.358-.134.518q-5.58,16.222-11.17,32.44a11.4,11.4,0,0,1-3.837,5.731,8.8,8.8,0,0,1-7.822,1.217c-.135-.035-.326-.223-.328-.342C1576.482,5840.231,1576.489,5838.688,1576.489,5837.17Z" transform="translate(-1318.448 -123.305)"/><path class="b" d="M635.89,5798.808h5.985l.2,3.125.188.127a2.468,2.468,0,0,1,.267-.448,10.525,10.525,0,0,1,9.189-3.29,7.921,7.921,0,0,1,5.331,2.375,9,9,0,0,1,2.2,4.875,19.5,19.5,0,0,1,.263,3c.024,6.141.012,12.283.011,18.424,0,.139-.012.279-.02.462h-6.385v-.711c0-5.86.008-11.719-.01-17.579a12.2,12.2,0,0,0-.23-2.335,3.776,3.776,0,0,0-3.271-3.178,6.42,6.42,0,0,0-7.1,3.021,1.965,1.965,0,0,0-.247.958q-.021,9.545-.01,19.089v.745h-6.36Z" transform="translate(-501.504 -119.898)"/><path class="b" d="M1450.254,5710.419c-.564-.047-1.079-.113-1.6-.127a11.773,11.773,0,0,0-1.81.034,3.641,3.641,0,0,0-3.513,3.448,31.126,31.126,0,0,0-.028,3.8h5.687v4.771h-5.76v23.907h-6.424v-23.876h-4.334v-4.782h4.321c0-.733-.049-1.414.01-2.084a24.128,24.128,0,0,1,.493-4.174,8.388,8.388,0,0,1,7.491-6.229,15.744,15.744,0,0,1,5.1.218c.41.089.568.218.542.665-.071,1.206-.084,2.415-.124,3.623C1450.3,5709.863,1450.276,5710.119,1450.254,5710.419Z" transform="translate(-1195.046 -38.694)"/><path class="b" d="M1087.481,5779.354c0,1.5.006,3.045-.012,4.593a.443.443,0,0,1-.26.325,12.107,12.107,0,0,1-7.252,0,5.928,5.928,0,0,1-3.824-4.894,17.4,17.4,0,0,1-.256-3.061c-.025-5.055-.011-10.11-.011-15.166v-.777H1071.2v-4.789h4.641v-6.954h6.428v6.909h5.016v4.786h-5.015v.7q0,7.552,0,15.1a8.037,8.037,0,0,0,.1,1.32,2.1,2.1,0,0,0,2.236,2.011C1085.552,5779.493,1086.492,5779.395,1087.481,5779.354Z" transform="translate(-880.505 -76.687)"/><path class="b" d="M1243.889,5750.276h-6.326v-40.7h6.326Z" transform="translate(-1025.345 -42.686)"/><path class="b" d="M1344.614,5831.235v-28.629h6.356v28.629Z" transform="translate(-1118.548 -123.681)"/><path class="c" d="M383.649,5853.528c-.287.349-.539.709-.844,1.017q-3.677,3.71-7.383,7.391a.866.866,0,0,1-.678.157c-2.6-.518-5.2-1.066-7.8-1.594a.68.68,0,0,1-.6-.551,2.552,2.552,0,0,0-.54-1.054,1.061,1.061,0,0,1-.287-1.029q.737-4.463,1.456-8.93c.061-.375.162-.633.612-.747a6.267,6.267,0,0,0,1.086-.609.978.978,0,0,1,.663-.149q7.064,2.954,14.109,5.954A1.587,1.587,0,0,1,383.649,5853.528Z" transform="translate(-266.084 -162.688)"/><path class="c" d="M126.945,5763.456c2.212-2.205,4.389-4.382,6.582-6.542a.588.588,0,0,1,.52-.065c2.635,1.1,5.26,2.216,7.891,3.321a.457.457,0,0,1,.329.589,2.727,2.727,0,0,0,.592,2.148.541.541,0,0,1,.028.742q-3.286,5.062-6.544,10.141a.572.572,0,0,1-.741.3,1.079,1.079,0,0,0-.594-.04c-.634.209-.916-.143-1.234-.611C131.529,5770.128,129.258,5766.832,126.945,5763.456Z" transform="translate(-58.396 -83.815)"/><path class="c" d="M226.956,5950.467q-.655-.943-1.305-1.88-5.922-8.559-11.835-17.124a3.153,3.153,0,0,1-.275-.785,3.278,3.278,0,0,1,.881-.064c4.589.929,9.173,1.879,13.76,2.814a1.1,1.1,0,0,1,.935.688,2.894,2.894,0,0,0,.977,1.1.641.641,0,0,1,.305.74c-.667,4.025-1.368,8.045-1.967,12.08A3.247,3.247,0,0,1,226.956,5950.467Z" transform="translate(-133.79 -235.115)"/><path class="c" d="M152.994,5948.387c1.161-1.8,2.287-3.561,3.439-5.3.083-.126.355-.165.543-.176a11.344,11.344,0,0,0,1.783-.084.684.684,0,0,1,.868.342q6.115,8.9,12.251,17.793c.341.495.679.992,1.03,1.505-.943,1.021-1.9,1.949-3.427,1.631a3.307,3.307,0,0,1-1.194-.526,9.907,9.907,0,0,1-1.256-1.126q-6.816-6.8-13.622-13.615C153.283,5948.7,153.163,5948.565,152.994,5948.387Z" transform="translate(-81.075 -245.727)"/><path class="c" d="M207.951,5664.626l-4.966,7.691c-.36.558-.732,1.109-1.077,1.676a.536.536,0,0,1-.674.307,3.126,3.126,0,0,0-2.32.408.845.845,0,0,1-.653.094c-2.579-1.072-5.147-2.17-7.787-3.292.139-.165.239-.3.358-.42,3-3.006,6.043-5.978,9-9.026,1.922-1.979,3.65-2.056,5.557-.016C206.2,5662.915,207.063,5663.734,207.951,5664.626Z" transform="translate(-113.707)"/><path class="c" d="M235,5859.816a2.936,2.936,0,0,0-2.044,1.141.736.736,0,0,1-.61.188c-4.69-.951-9.375-1.925-14.064-2.883-.507-.1-.526-.46-.564-.889q2.5-1.065,4.992-2.125,6.519-2.779,13.038-5.558c.6-.256.917-.078.824.5C236.061,5853.383,235.532,5856.577,235,5859.816Z" transform="translate(-137.428 -164.574)"/><path class="c" d="M295.484,5702.414c1.559,1.56,3.021,3.116,4.591,4.556a2.558,2.558,0,0,1,.94,2.744c-.488,2.236-.762,4.52-1.13,6.783a1.25,1.25,0,0,1-1.347.743q-4.168-1.758-8.324-3.541c-.166-.072-.278-.294-.387-.464-.062-.1-.033-.253-.1-.344-.567-.779-.148-1.379.286-2.04,1.7-2.589,3.368-5.2,5.048-7.805C295.182,5702.86,295.307,5702.679,295.484,5702.414Z" transform="translate(-199.882 -36.45)"/><path class="c" d="M210.7,5815.386c.168-.283.263-.456.369-.621q3.124-4.839,6.243-9.682a.883.883,0,0,1,.91-.487,2.732,2.732,0,0,0,2.327-1.059.541.541,0,0,1,.761-.184c2.51,1.078,5.031,2.131,7.538,3.216a.755.755,0,0,1,.4.531.726.726,0,0,1-.334.577q-8.913,3.831-17.845,7.62A3.353,3.353,0,0,1,210.7,5815.386Z" transform="translate(-131.314 -124.26)"/><path class="c" d="M59.873,5827.038a8.783,8.783,0,0,1,.627-1.419,9.441,9.441,0,0,1,1.153-1.312c1.825-1.846,3.661-3.68,5.527-5.553.352.507.671.965.989,1.424q2.834,4.1,5.66,8.2c.155.227.554.428.22.817-.3.346-.442.75-1.119.6C68.653,5828.849,64.359,5827.976,59.873,5827.038Z" transform="translate(0 -137.74)"/><path class="c" d="M355.753,5963.845l-10.625,10.625,1.13-6.958c.2-1.231.408-2.46.594-3.694a1.547,1.547,0,0,1,.534-.848c.691-.741,1.423-.576,2.247-.393C351.67,5963.029,353.72,5963.427,355.753,5963.845Z" transform="translate(-248.355 -262.823)"/><path class="c" d="M412.508,5821.766l-14.008-5.93a4.179,4.179,0,0,1,.446-.27c1.757-.746,3.519-1.478,5.27-2.235a.6.6,0,0,1,.782.142c2.079,2.1,4.186,4.179,6.256,6.292.536.547.97,1.194,1.451,1.8Z" transform="translate(-294.823 -132.945)"/><path class="b" d="M1344.867,5724.826a3.419,3.419,0,1,1-.011-6.827,3.421,3.421,0,1,1,.011,6.827Z" transform="translate(-1115.615 -50.019)"/><path class="c" d="M79.454,5901.708c-.172.083-.34.172-.515.247-1.887.8-3.78,1.59-5.66,2.406a.654.654,0,0,1-.878-.146c-1.416-1.459-2.865-2.886-4.3-4.326a2.434,2.434,0,0,1-.557-.767l11.875,2.459Z" transform="translate(-6.679 -207.712)"/><path class="c" d="M390.7,5766.649c-1.656.706-3.427,1.468-5.2,2.214-.453.191-1.243-.415-1.166-.895.36-2.239.734-4.475,1.086-6.606Z" transform="translate(-282.484 -87.773)"/><path class="c" d="M122.489,5938.113l-3.057-3.053L124.26,5933c.314-.134.623-.285.948-.388.14-.044.411-.035.449.038a.613.613,0,0,1,.008.517C124.613,5934.829,123.54,5936.481,122.489,5938.113Z" transform="translate(-51.855 -236.843)"/></g></g></svg>