<svg xmlns="http://www.w3.org/2000/svg" xmlns:xlink="http://www.w3.org/1999/xlink" width="378" height="97" viewBox="0 0 378 97"><defs><style>.a{fill:#fff;}.b{fill:#404137;}.c{fill:#6d6e66;}.d{fill:#505147;}.e{fill:#61625a;}.f{fill:#595a51;}.g{fill:#46473e;}.h{fill:#82cc29;}.i{fill:#83cc29;}.j{fill:#fefefe;}.k{filter:url(#a);}</style><filter id="a" x="0" y="0" width="378" height="97" filterUnits="userSpaceOnUse"><feOffset dy="3" input="SourceAlpha"/><feGaussianBlur stdDeviation="3" result="b"/><feFlood flood-opacity="0.161"/><feComposite operator="in" in2="b"/><feComposite in="SourceGraphic"/></filter></defs><g transform="translate(-563 -5034)"><g class="k" transform="matrix(1, 0, 0, 1, 563, 5034)"><rect class="a" width="360" height="79" rx="20" transform="translate(9 6)"/></g><g transform="translate(601.143 650)"><path class="b" d="M764.558,4456.013c-4.4-2.536-8.789-5.084-13.2-7.6a2.089,2.089,0,0,1-1.168-2.027q.037-7.192,0-14.382a2.093,2.093,0,0,1,1.166-2.03q6.3-3.584,12.564-7.245a1.9,1.9,0,0,1,2.121-.007c.925.561,1.87,1.088,2.807,1.627.7.4,1.042.206,1.042-.606q0-9.8-.006-19.6a1.114,1.114,0,0,1,.583-1.144h.591a7.712,7.712,0,0,0,1.412.847c2.069,1.168,4.14,2.334,6.224,3.474a1.85,1.85,0,0,1,1.062,1.781q-.016,18.742,0,37.484a1.843,1.843,0,0,1-1.024,1.752q-6.4,3.67-12.779,7.366c-.2.114-.407.207-.61.309Z" transform="translate(-614.288)"/><path class="b" d="M56.857,4578.729a2.516,2.516,0,0,1,1.2-1.227q6.229-3.571,12.436-7.18a2.067,2.067,0,0,1,2.3.011q6.224,3.628,12.483,7.2a2.049,2.049,0,0,1,1.149,1.986c-.029,6.52-.025,13.04-.032,19.558,0,.116,0,.23,0,.345-.04.808-.614,1.137-1.321.738-1.156-.653-2.3-1.322-3.455-1.982-1.351-.775-2.7-1.557-4.056-2.318a1.832,1.832,0,0,1-1.011-1.763c.023-2.988,0-5.978.017-8.966a1.888,1.888,0,0,0-1.064-1.836c-.993-.542-1.965-1.121-2.939-1.7a1.69,1.69,0,0,0-1.857,0q-1.523.9-3.064,1.774a1.71,1.71,0,0,0-.93,1.61c.008,3.038-.009,6.076.012,9.114a1.842,1.842,0,0,1-1.016,1.762c-2.437,1.386-4.865,2.786-7.3,4.18-.777.445-.975.417-1.553-.221v-.1a2.893,2.893,0,0,0,.047-.967c.009-1.32,0-2.64,0-3.96q0-1.868,0-3.737,0-1.775,0-3.548,0-1.914,0-3.826c-.031-1.026.063-2.054-.051-3.079Z" transform="translate(0 -147.942)"/><path class="c" d="M56.948,4787.364q0,2.259.007,4.518c0,.14.054.3-.1.406v-4.927C56.889,4787.317,56.919,4787.316,56.948,4787.364Z" transform="translate(0 -340.512)"/><path class="d" d="M56.955,4689.695l0,3.843c-.033.043-.065.045-.1,0v-3.843Q56.907,4689.627,56.955,4689.695Z" transform="translate(0 -253.979)"/><path class="e" d="M56.948,4758.262l-.091,0v-3.745q.048-.067.094,0Z" transform="translate(0 -311.41)"/><path class="f" d="M56.951,4727.209h-.094v-3.548h.1Q56.952,4725.436,56.951,4727.209Z" transform="translate(0 -284.103)"/><path class="g" d="M56.955,4666.214h-.1v-3.054c.169.162.093.371.095.558C56.96,4664.548,56.955,4665.381,56.955,4666.214Z" transform="translate(0 -230.498)"/><path class="b" d="M1095.718,4588.366c0-2.463.009-4.926-.005-7.389a1.808,1.808,0,0,1,1-1.717q6.377-3.658,12.733-7.352a1.884,1.884,0,0,1,2.076-.012q6.327,3.7,12.672,7.36a1.785,1.785,0,0,1,1,1.72c-.028,1.116-.016,2.233,0,3.35a1.64,1.64,0,0,1-.882,1.535q-3.826,2.224-7.653,4.448c-.759.439-1.335.1-1.34-.778-.005-1.117-.011-2.233,0-3.35a1.03,1.03,0,0,0-.566-1q-1.906-1.076-3.792-2.185a1.026,1.026,0,0,0-1.149.006c-1.242.733-2.491,1.457-3.749,2.161a1.079,1.079,0,0,0-.614,1.07q.035,2.118,0,4.236a1.13,1.13,0,0,0,.649,1.105q6.3,3.593,12.588,7.209c.4.227.871.408.849.975-.021.534-.48.7-.864.914-2.39,1.333-4.788,2.654-7.168,4a1.989,1.989,0,0,1-2.169-.025q-6.244-3.593-12.519-7.132a1.959,1.959,0,0,1-1.106-1.909C1095.738,4593.194,1095.718,4590.779,1095.718,4588.366Z" transform="translate(-920.414 -149.369)"/><path class="h" d="M1451.16,4586.483q0,3.275,0,6.552a5.946,5.946,0,0,1-.156,1.514c-.515,1.982-2.134,2.7-4.162,2.517a6.168,6.168,0,0,1-2.44-.866c-.959-.536-1.9-1.11-2.859-1.643a2.711,2.711,0,0,1-1.489-2.533q-.009-7,0-13.992a2.834,2.834,0,0,1,1.565-2.64c4-2.284,7.987-4.6,11.977-6.912a2.791,2.791,0,0,1,2.987-.016c3.992,2.3,7.978,4.618,11.981,6.9a2.937,2.937,0,0,1,1.6,2.775q-.021,6.85,0,13.7a2.929,2.929,0,0,1-1.593,2.776q-5.922,3.374-11.814,6.8a2.936,2.936,0,0,1-3.323-.023c-1.235-.776-2.514-1.485-3.769-2.229-.147-.088-.378-.154-.351-.363.023-.182.247-.181.4-.234a7.311,7.311,0,0,0,1.474-.672.641.641,0,0,1,.768.008c.909.558,1.834,1.088,2.743,1.646a.718.718,0,0,0,.821.012q6.01-3.469,12.028-6.922a.684.684,0,0,0,.381-.673q-.012-6.946,0-13.894a.713.713,0,0,0-.4-.71q-6.017-3.457-12.021-6.935a.733.733,0,0,0-.821.02q-5.963,3.45-11.94,6.878a.827.827,0,0,0-.465.826q.02,6.847,0,13.7a.774.774,0,0,0,.445.782c1,.56,1.983,1.159,2.976,1.734a2.586,2.586,0,0,0,1.78.422,1.6,1.6,0,0,0,1.4-1.745q.008-4.459,0-8.918c0-1.608.011-3.219-.007-4.828-.005-.449.161-.632.605-.608a10.025,10.025,0,0,0,1.083,0c.44-.023.613.151.61.6C1451.153,4581.688,1451.16,4584.086,1451.16,4586.483Z" transform="translate(-1225.502 -146.223)"/><path class="h" d="M1554.272,4658a9.554,9.554,0,0,1,3.271.565,4.1,4.1,0,0,1,2.648,3.656c.041.353-.129.524-.478.526-.46,0-.92-.005-1.379,0a.437.437,0,0,1-.486-.387c-.26-1.207-.919-1.955-2.7-2.114a9.129,9.129,0,0,0-2.889.126c-.929.214-1.391.7-1.42,1.456a.917.917,0,0,0,.735,1.113,14.194,14.194,0,0,0,2.839.569,22.626,22.626,0,0,1,3.715.707,3.16,3.16,0,0,1,2.5,2.436,3.88,3.88,0,0,1-3.03,4.691,11.263,11.263,0,0,1-6.647-.076,4,4,0,0,1-3.025-3.665c-.059-.628.051-.759.68-.761.394,0,.788.005,1.182,0a.409.409,0,0,1,.471.393,2.426,2.426,0,0,0,2.354,2.235,11,11,0,0,0,3.917-.055,1.83,1.83,0,0,0,1.632-1.3,1.193,1.193,0,0,0-.824-1.638,11.847,11.847,0,0,0-2.982-.6,21.172,21.172,0,0,1-3.058-.48c-2.019-.541-2.9-1.516-2.941-3.286a3.685,3.685,0,0,1,2.853-3.719A9.847,9.847,0,0,1,1554.272,4658Z" transform="translate(-1321.057 -225.926)"/><path class="i" d="M1205.414,4694.878c.44,1.285-.291,1.829-1.28,2.442a2.88,2.88,0,1,1-2.918-4.965,2.385,2.385,0,0,1,2.852-.015C1205.091,4692.989,1205.877,4693.55,1205.414,4694.878Z" transform="translate(-1012.61 -255.94)"/><path class="h" d="M433.071,4587.663c0,2.462-.014,4.925.008,7.387a1.83,1.83,0,0,1-1.025,1.752c-4.168,2.391-8.336,4.782-12.479,7.215a2.244,2.244,0,0,1-2.552-.01q-6.084-3.581-12.23-7.055a2.256,2.256,0,0,1-1.291-2.208c.034-4.761.025-9.522.006-14.283a2.09,2.09,0,0,1,1.178-2.024q6.313-3.576,12.583-7.23a1.887,1.887,0,0,1,2.076,0q6.365,3.685,12.749,7.337a1.773,1.773,0,0,1,.983,1.678C433.062,4582.705,433.071,4585.184,433.071,4587.663Z" transform="translate(-307.125 -148.756)"/><path class="j" d="M846.24,4676.787c0,.788-.01,1.576.005,2.363a.676.676,0,0,1-.367.682q-2.113,1.207-4.211,2.438a.657.657,0,0,1-.733-.011q-2.1-1.23-4.21-2.439a.605.605,0,0,1-.345-.589q.014-2.462,0-4.924a.576.576,0,0,1,.323-.554q2.151-1.238,4.295-2.489a.573.573,0,0,1,.641.008q2.124,1.237,4.253,2.463a.646.646,0,0,1,.354.641C846.23,4675.179,846.24,4675.983,846.24,4676.787Z" transform="translate(-690.651 -237.596)"/></g></g></svg>