<svg xmlns="http://www.w3.org/2000/svg" xmlns:xlink="http://www.w3.org/1999/xlink" width="378" height="97" viewBox="0 0 378 97"><defs><style>.a{fill:none;}.b{fill:#fff;}.c{clip-path:url(#c);}.d{fill:#3279b5;}.e{filter:url(#a);}</style><filter id="a" x="0" y="0" width="378" height="97" filterUnits="userSpaceOnUse"><feOffset dy="3" input="SourceAlpha"/><feGaussianBlur stdDeviation="3" result="b"/><feFlood flood-opacity="0.161"/><feComposite operator="in" in2="b"/><feComposite in="SourceGraphic"/></filter><clipPath id="c"><ellipse class="a" cx="62.75" cy="31.518" rx="62.75" ry="31.518" transform="translate(0)"/></clipPath></defs><g transform="translate(-563 -5346)"><g class="e" transform="matrix(1, 0, 0, 1, 563, 5346)"><rect class="b" width="360" height="79" rx="20" transform="translate(9 6)"/></g><g transform="translate(678 367)"><g class="c" transform="translate(11 4993)"><g transform="translate(-1.284 -0.928)"><path class="d" d="M129.668,5018.589c-.1,6.356-3.236,11.23-7.752,15.327-7.879,7.148-17.492,10.842-27.593,13.45a113.95,113.95,0,0,1-24.863,3.35,113.962,113.962,0,0,1-37.757-4.763c-8.868-2.75-17.224-6.572-23.884-13.351a20.912,20.912,0,0,1-6.4-12.73,17.338,17.338,0,0,1,3.295-11.695c4.647-6.792,11.375-10.888,18.718-14.1a91.279,91.279,0,0,1,28.925-7.148c4.348-.375,8.725-1.086,13.051-.877a210.487,210.487,0,0,1,22.18,2.115,73.728,73.728,0,0,1,27.832,9.972c5.075,3.149,9.7,6.867,12.273,12.435a59.942,59.942,0,0,1,2.437,7.834Zm-46.718,20.2c.887,0,1.774-.024,2.66.006,1.174.041,1.7-.581,1.894-1.665.355-1.973.8-3.932,1.112-5.911.19-1.189.7-1.782,1.973-1.737,1.712.061,3.433.093,5.141-.007,3.432-.2,6.829-.579,9.833-2.52,4.411-2.85,6.687-6.986,7.58-12.067.934-5.318-1.719-10.068-6.836-11.7a16.884,16.884,0,0,0-4.673-.774c-4.431-.1-8.866-.044-13.3-.045-2.809,0-2.871.081-3.4,2.874q-2.778,14.521-5.595,29.035C78.331,5039.42,78.183,5038.75,82.95,5038.787Zm-47.921-36.255v-.16c-2.716,0-5.433.028-8.148-.013a1.714,1.714,0,0,0-1.941,1.6q-3.213,16.58-6.461,33.153c-.235,1.195.219,1.67,1.351,1.673,1.83,0,3.661-.021,5.491.012,1.178.022,1.687-.592,1.886-1.67.385-2.087.718-4.194,1.288-6.232a2.325,2.325,0,0,1,1.644-1.332c1.813-.179,3.655-.042,5.485-.078,8.926-.175,15.088-4.968,16.963-13.178,1.613-7.061-1.681-12.59-8.546-13.7C41.11,5002.139,38.038,5002.532,35.029,5002.532Zm26.583-9.7a17.155,17.155,0,0,1-1.772-.01c-1.684-.176-2.558.352-2.841,2.224-.563,3.731-1.419,7.418-2.147,11.125-1.4,7.12-2.784,14.244-4.2,21.36-.258,1.3.182,1.939,1.505,1.949,1.418.011,2.848-.1,4.253.042,1.933.194,2.735-.61,3.06-2.485.93-5.348,2.053-10.663,3.01-16.007.263-1.471.808-2.2,2.413-2.04,1.347.133,2.718,0,4.076.045,3.174.112,3.806.875,3.433,4.055-.034.292-.1.582-.152.871-.9,4.577-1.769,9.158-2.7,13.726-.261,1.274.215,1.788,1.427,1.794,1.655.008,3.312-.043,4.964.025a2.119,2.119,0,0,0,2.446-1.976c1.024-5.394,2.216-10.76,3.054-16.182.724-4.688-.963-7.347-5.564-8.345-3.066-.665-6.322-.483-9.495-.624-1.916-.084-2.1-.24-1.759-2.047.195-1.045.394-2.088.588-3.133C66.048,4992.633,66.829,4992.81,61.612,4992.83Z" transform="translate(-1.343 -4986.019)"/><path class="b" d="M587.713,5145.265c-4.767-.036-4.619.634-3.615-4.51q2.833-14.511,5.595-29.035c.534-2.793.6-2.874,3.4-2.874,4.433,0,8.868-.06,13.3.046a16.864,16.864,0,0,1,4.673.773c5.117,1.631,7.769,6.381,6.836,11.7-.892,5.081-3.169,9.217-7.579,12.067-3,1.94-6.4,2.317-9.833,2.52-1.708.1-3.429.067-5.141.007-1.27-.045-1.783.548-1.973,1.737-.316,1.979-.758,3.938-1.112,5.911-.195,1.083-.721,1.705-1.894,1.664C589.487,5145.24,588.6,5145.265,587.713,5145.265Zm7.387-16.123c1.954,0,3.584.02,5.214,0,5.152-.072,7.749-2.341,8.424-7.4a21.579,21.579,0,0,0,.087-2.827,2.687,2.687,0,0,0-2.417-3c-2.566-.287-5.159-.364-7.743-.4a1.626,1.626,0,0,0-1.14,1.049C596.691,5120.581,595.954,5124.631,595.1,5129.142Z" transform="translate(-506.105 -5092.497)"/><path class="b" d="M146.357,5109.057c3.009,0,6.081-.393,9.014.079,6.865,1.1,10.159,6.634,8.546,13.695-1.875,8.21-8.037,13-16.963,13.178-1.83.035-3.672-.1-5.485.078a2.324,2.324,0,0,0-1.644,1.331c-.57,2.038-.9,4.145-1.288,6.232-.2,1.079-.709,1.692-1.886,1.671-1.83-.034-3.661-.008-5.491-.013-1.133,0-1.586-.479-1.351-1.673q3.259-16.571,6.461-33.153a1.714,1.714,0,0,1,1.941-1.6c2.715.042,5.432.013,8.148.013Zm-5.032,20.13c2.022,0,3.712.022,5.4,0,4.854-.075,7.277-2.1,8.211-6.854.137-.694.256-1.395.34-2.1.285-2.39-.687-4.037-3.042-4.383a55.2,55.2,0,0,0-7.232-.319,1.326,1.326,0,0,0-1.041.7C143.062,5120.417,142.239,5124.624,141.325,5129.188Z" transform="translate(-112.671 -5092.544)"/><path class="b" d="M382.613,5036.965c5.217-.021,4.436-.2,3.591,4.367-.194,1.045-.393,2.088-.588,3.133-.337,1.807-.157,1.963,1.759,2.048,3.173.141,6.429-.042,9.495.624,4.6,1,6.289,3.657,5.564,8.345-.838,5.422-2.03,10.789-3.054,16.183a2.119,2.119,0,0,1-2.446,1.976c-1.652-.069-3.309-.018-4.964-.026-1.212-.006-1.688-.521-1.427-1.794.936-4.568,1.809-9.149,2.7-13.726.057-.29.118-.579.152-.871.373-3.181-.259-3.942-3.433-4.055-1.358-.049-2.729.088-4.076-.046-1.6-.158-2.149.569-2.413,2.04-.957,5.344-2.08,10.659-3.01,16.007-.326,1.874-1.128,2.68-3.06,2.485-1.4-.142-2.835-.031-4.253-.042-1.323-.01-1.763-.653-1.505-1.949,1.417-7.116,2.8-14.239,4.2-21.359.729-3.707,1.584-7.394,2.147-11.125.282-1.872,1.156-2.4,2.841-2.224A17.019,17.019,0,0,0,382.613,5036.965Z" transform="translate(-322.344 -5030.153)"/><path class="d" d="M670.53,5172.646c.854-4.511,1.591-8.56,2.426-12.589a1.63,1.63,0,0,1,1.14-1.05c2.584.039,5.177.117,7.743.4a2.686,2.686,0,0,1,2.417,3,21.585,21.585,0,0,1-.087,2.827c-.675,5.061-3.271,7.329-8.424,7.4C674.114,5172.665,672.484,5172.646,670.53,5172.646Z" transform="translate(-581.536 -5136.001)"/><path class="d" d="M216.808,5172.51c.914-4.564,1.737-8.771,2.636-12.96a1.325,1.325,0,0,1,1.041-.7,55.2,55.2,0,0,1,7.232.32c2.356.346,3.327,1.992,3.042,4.383-.084.7-.2,1.4-.34,2.1-.934,4.752-3.357,6.779-8.211,6.854C220.52,5172.531,218.83,5172.51,216.808,5172.51Z" transform="translate(-188.154 -5135.866)"/></g></g></g></g></svg>