<svg xmlns="http://www.w3.org/2000/svg" xmlns:xlink="http://www.w3.org/1999/xlink" width="378" height="97" viewBox="0 0 378 97"><defs><filter id="a" x="0" y="0" width="378" height="97" filterUnits="userSpaceOnUse"><feOffset dy="3" input="SourceAlpha"/><feGaussianBlur stdDeviation="3" result="b"/><feFlood flood-opacity="0.161"/><feComposite operator="in" in2="b"/><feComposite in="SourceGraphic"/></filter></defs><g transform="translate(-155 -5242)"><g transform="matrix(1, 0, 0, 1, 155, 5242)" filter="url(#a)"><rect width="360" height="79" rx="20" transform="translate(9 6)" fill="#fff"/></g><g transform="translate(0 -104)"><g transform="translate(127 5019)"><path d="M170.958,341.2a26.737,26.737,0,0,1,4.812,1.352c5.039,2.106,7.235,6.286,5.9,11.6-1.466,5.848-5.237,9.922-10.42,12.69a27.585,27.585,0,0,1-14.937,3.089,9.783,9.783,0,0,1-6.917-3.089,4.526,4.526,0,0,1-1.017-1.886.535.535,0,0,1,.164-.622.439.439,0,0,1,.624.057c3.019,3.138,6.8,3.057,10.637,2.4a24.255,24.255,0,0,0,14.316-7.618,13.823,13.823,0,0,0,2.909-4.865c1.227-3.621-.128-6.289-3.767-7.444a20.151,20.151,0,0,0-10.311-.246,49.86,49.86,0,0,0-22.584,11.393,15.08,15.08,0,0,0-4.008,5.184c-1.907,4.194-.985,7.963,2.448,11.108,2.763,2.531,5.934,4.555,8.654,7.129,1.136,1.074,1.129,1.072,2.48.328q2.284-1.258,4.579-2.5a10.489,10.489,0,0,0,3.547-2.7,10.547,10.547,0,0,1,4.218-3.156c1.236-.533,2.556-.88,3.742.038,1.137.881,1.1,2.224,1.065,3.514-.009.355-.049.709-.08,1.147a5.722,5.722,0,0,1,.782-.26c1.431-.241,2.231.6,1.865,2.008-.676,2.6-1.409,5.185-1.947,7.819a7.689,7.689,0,0,0-.062,2.453,5,5,0,0,0,1.219-1.926c2.112-4.623,4.181-9.265,6.262-13.9a12.913,12.913,0,0,0,1-3.077,1.392,1.392,0,0,1,1.139-1.194,7.772,7.772,0,0,1,3.22-.183c.979.167,1.229.593.877,1.52a10.988,10.988,0,0,0-.615,6.261,15.609,15.609,0,0,0,1.12,2.833c1.936-3.605,4.283-6.779,5.286-10.651.2-.753.146-1.787,1.033-2.1a5.868,5.868,0,0,1,4.136-.2c.528.2.606.626.457,1.137-.275.943-.585,1.879-.783,2.839-.53,2.565.306,4.847,1.54,7.04.305.543.661.26,1,.111a16.413,16.413,0,0,1,9.431-1.2c4.224.7,7.5,2.689,8.907,7.01.036.11.151.194.229.291v3.152a5.687,5.687,0,0,1-3.574,3.9c-.426.169-.928.363-1.207-.2-.252-.51.18-.776.521-1.029a7.669,7.669,0,0,0,1.242-1.118,3.67,3.67,0,0,0,.711-3.947,7.186,7.186,0,0,0-4.619-4.279,16.138,16.138,0,0,0-10.253-.252c-.573.174-.835.413-.638,1.054,1.228,4-.751,6.277-3.771,8.147a7.4,7.4,0,0,1-3.769,1.323,2.186,2.186,0,0,1-2.467-2.405,7.407,7.407,0,0,1,1.4-4.14,14.247,14.247,0,0,1,2.764-3.316c.338-.28.679-.562.4-1.071a19.468,19.468,0,0,1-1.815-5.275c-.746,1.331-1.378,2.5-2.04,3.649a37.068,37.068,0,0,1-2.016,3.266,1.762,1.762,0,0,0-.209,1.747,7.972,7.972,0,0,1,.523,3.954,6.209,6.209,0,0,1-2.407,4.046,10.442,10.442,0,0,1-7.154,2.291,1.705,1.705,0,0,1-1.4-2.858,43.42,43.42,0,0,1,4.032-4.964c1.274-1.418,1.855-2.692.637-4.481a12.078,12.078,0,0,1-1.289-4.085,113.945,113.945,0,0,1-6.908,14.323,9.908,9.908,0,0,1-2.185,2.64,2.176,2.176,0,0,1-3.626-.83,6.9,6.9,0,0,1-.486-3.95c.124-.249.172-.529.272-.788.025,0,.019-.022,0-.022-.061,0-.079.043-.088.122a1.658,1.658,0,0,1-.076.369,28.322,28.322,0,0,1-2.078,4.557,5.055,5.055,0,0,1-1.358,1.666,3.206,3.206,0,0,1-4.72-.808,12.967,12.967,0,0,1-1.8-9.237,31.843,31.843,0,0,1,.64-3.182,32.8,32.8,0,0,0-3.148,1.754.87.87,0,0,0-.362,1.171,14.13,14.13,0,0,1-1.912,12.749,13.82,13.82,0,0,1-7.129,5.323,17.429,17.429,0,0,0-1.716.337H135.5c-3.133-1.1-4.558-3.725-3.907-7.22a9.992,9.992,0,0,1,2.761-5.315,37.731,37.731,0,0,1,9.529-6.7c1.12-.6,1.137-.637.146-1.389-2.638-2-5.467-3.736-8.056-5.8a25.826,25.826,0,0,1-4.667-4.616A11.163,11.163,0,0,1,129,368.185v-3.349c1.394-5.546,5.1-9.42,9.4-12.809A59.7,59.7,0,0,1,158.846,341.8a19.437,19.437,0,0,1,4.254-.7c.385-.051.79.112,1.161-.1h5.516C170.138,341.261,170.6,340.943,170.958,341.2Z" fill="#cc6799"/><path d="M180.3,573.174a10.786,10.786,0,0,1-7.9,10.336c-2.184.552-3.387-.569-3.016-2.8.458-2.751,2.219-4.613,4.283-6.258a54.273,54.273,0,0,1,5.445-3.711c.585-.36.866-.291.961.405A9.15,9.15,0,0,1,180.3,573.174Z" transform="translate(-32.375 -184.312)" fill="#fefefe"/><path d="M276.223,531.663a16.739,16.739,0,0,1,3.647-10.137,4.766,4.766,0,0,1,1.933-1.475,1.006,1.006,0,0,1,1.026-.049c.349.249.258.657.191,1a31.561,31.561,0,0,1-1.476,4.978,62.217,62.217,0,0,1-3.211,7.791,3.292,3.292,0,0,1-.3.5c-.219.275-.409.648-.842.561-.374-.074-.467-.442-.561-.747A9.736,9.736,0,0,1,276.223,531.663Z" transform="translate(-118.221 -143.64)" fill="#fefefe"/><path d="M433.582,553.741a4.343,4.343,0,0,1-2.656,5.535c-.466.112-.583-.051-.522-.5A9.672,9.672,0,0,1,433.582,553.741Z" transform="translate(-242.018 -170.833)" fill="#fdfcfd"/><path d="M369.36,577.569c1.441-1.626,2.782-3.032,3.994-4.7C373.5,574.736,371.534,577.078,369.36,577.569Z" transform="translate(-193.011 -186.195)" fill="#fcf8fa"/><path d="M304.361,585.511l-.194-.386a.6.6,0,0,1,.306-.5A.912.912,0,0,1,304.361,585.511Z" transform="translate(-140.661 -195.632)" fill="#ecc7da"/></g><g transform="translate(15.525)"><text transform="translate(340.475 5405.752)" fill="#cc6799" font-size="36" font-family="Impact" letter-spacing="0.051em"><tspan x="0" y="0">Sass</tspan></text></g></g></g></svg>