<svg xmlns="http://www.w3.org/2000/svg" xmlns:xlink="http://www.w3.org/1999/xlink" width="378" height="97" viewBox="0 0 378 97"><defs><style>.a{fill:#fff;}.b{fill:#dc4814;}.c{fill:#fefefd;}.d{fill:#fefefe;}.e{fill:#fefdfd;}.f{fill:#152a49;}.g{filter:url(#a);}</style><filter id="a" x="0" y="0" width="378" height="97" filterUnits="userSpaceOnUse"><feOffset dy="3" input="SourceAlpha"/><feGaussianBlur stdDeviation="3" result="b"/><feFlood flood-opacity="0.161"/><feComposite operator="in" in2="b"/><feComposite in="SourceGraphic"/></filter></defs><g transform="translate(-979 -5034)"><g class="g" transform="matrix(1, 0, 0, 1, 979, 5034)"><rect class="a" width="360" height="79" rx="20" transform="translate(9 6)"/></g><g transform="translate(1025.696 3418.73)"><g transform="translate(34.304 1632.27)"><path class="b" d="M62.431,1688.548a28.139,28.139,0,1,1,28.143-28.131A28.145,28.145,0,0,1,62.431,1688.548Z" transform="translate(-34.304 -1632.27)"/><path class="c" d="M217.685,1738.388c-1.752.574-2.4-.38-2.95-2.28a10.653,10.653,0,0,0-13.6-7.13c-1.11.35-1.749.3-2.137-.828a2.172,2.172,0,0,0-.181-.325c-1.951-3.53-1.95-3.523,2.015-4.407a17.766,17.766,0,0,1,5.192-.3c1.517.111,2.694.431,3.4,2.177a4.439,4.439,0,0,0,5.064,2.654,2.392,2.392,0,0,1,2.508,1.069,18.344,18.344,0,0,1,3.455,7.341c.394,1.7-.049,2.3-1.747,2.037A8.386,8.386,0,0,0,217.685,1738.388Z" transform="translate(-176.247 -1711.211)"/><path class="d" d="M219.178,1856.273a16.442,16.442,0,0,1-4.169,8.986,1.444,1.444,0,0,1-1.476.419c-2.933-.358-4.762.683-5.9,3.378a1.759,1.759,0,0,1-1.446,1.211,17.079,17.079,0,0,1-9.342-.863c-.907-.343-1.232-.743-.571-1.589a4.882,4.882,0,0,0,.364-.65c1.5-2.695,1.5-2.695,4.47-2.156a10.8,10.8,0,0,0,12.424-8.159c.335-1.443.87-1.844,2.2-1.684a20.309,20.309,0,0,0,2.607.083C219.079,1855.243,219.366,1855.549,219.178,1856.273Z" transform="translate(-174.839 -1826.064)"/><path class="d" d="M136.326,1772.867c-.29-.219-.6-.431-.88-.668a16.852,16.852,0,0,1-4.583-5.789c-.7-1.479-1.131-2.738.106-4.359,1.409-1.845,1.092-4.021-.387-5.849a1.8,1.8,0,0,1-.411-1.991,17.254,17.254,0,0,1,5.424-7.634c.778-.633,1.207-.582,1.672.329.562,1.1,1.6,2.083,1.787,3.222.191,1.177-1.348,1.714-2.043,2.607a10.8,10.8,0,0,0,1.08,14.537c1.073,1.024,1.242,1.753.309,2.869a17.591,17.591,0,0,0-1.27,2.054C136.946,1772.491,136.829,1772.887,136.326,1772.867Z" transform="translate(-117.543 -1731.3)"/><path class="e" d="M81.786,1823.205a3.774,3.774,0,1,1-7.548-.064,3.775,3.775,0,0,1,7.548.064Z" transform="translate(-69.028 -1795.054)"/><path class="e" d="M301.941,1950.1a3.751,3.751,0,1,1-3.86-3.674A3.7,3.7,0,0,1,301.941,1950.1Z" transform="translate(-260.509 -1905.451)"/><path class="e" d="M301.937,1695.848a3.751,3.751,0,0,1-7.5.256,3.8,3.8,0,0,1,3.633-3.949A3.754,3.754,0,0,1,301.937,1695.848Z" transform="translate(-260.506 -1684.34)"/></g><g transform="translate(104.942 1641.164)"><path class="f" d="M784.941,1713.816c1.263-.431,2.051-.728,2.854-.97,6.553-1.978,12.674,1.2,14.233,7.823a22.577,22.577,0,0,1,.228,8.8c-.971,5.607-5.521,9.23-11.474,9.345a49.1,49.1,0,0,1-8.829-1.016c-.556-.092-1.045-1.008-1.414-1.632-.187-.316-.037-.832-.037-1.257,0-11.134,0-22.267,0-33.707l4.439-.743Zm0,12.424v3.313c0,5.405.418,5.78,5.91,5.3a7.653,7.653,0,0,0,7.044-6.615c.949-5.161-.579-9.7-3.8-11.291a3.726,3.726,0,0,0-.465-.208c-2.655-.878-5.455-.855-7.5.912-1.012.873-.931,3.118-1.152,4.768A28.881,28.881,0,0,0,784.945,1726.241Z" transform="translate(-753.759 -1700.459)"/><path class="f" d="M1217.052,1817.984h-4.28c0-1.647.023-3.231,0-4.814-.068-3.913.011-7.838-.29-11.733-.277-3.578-2.134-5.067-5.717-5.189-.17-.006-.341-.008-.511-.008-5.016-.017-5.016-.017-5.017,4.919v16.76h-4.468c0-2.194,0-4.367,0-6.542,0-5.192.1-10.387-.053-15.574-.056-1.895.626-2.633,2.361-2.769,2.878-.226,5.757-.713,8.629-.667,5.68.09,8.974,3.08,9.284,8.749C1217.289,1806.625,1217.052,1812.163,1217.052,1817.984Z" transform="translate(-1115.726 -1780.377)"/><path class="f" d="M575.961,1796.839h4.009c0,2.8-.01,5.57,0,8.345.011,2.3-.045,4.6.095,6.893.295,4.853,2.34,6.7,7.182,6.559,1.337-.039,2.668-.275,4.174-.439v-21.276h4.505v5.979c0,5.449-.053,10.9.034,16.345.025,1.558-.365,2.414-2.022,2.49-3.627.164-7.282.746-10.87.462a7.248,7.248,0,0,1-7-6.984C575.658,1809.217,575.961,1803.171,575.961,1796.839Z" transform="translate(-575.854 -1784.267)"/><path class="f" d="M992.027,1797h4.033c0,3.14,0,6.178,0,9.216,0,1.191-.008,2.382,0,3.573.082,8.127,3.277,10.525,11.479,8.3v-21.1h4.257a16.416,16.416,0,0,1,.211,1.887c.016,6.806-.04,13.612.046,20.417.021,1.683-.439,2.54-2.2,2.61-3.541.141-7.109.72-10.61.437a7.393,7.393,0,0,1-7.117-7.179C991.721,1809.188,992.027,1803.16,992.027,1797Z" transform="translate(-937.648 -1784.403)"/><path class="f" d="M1544.04,1796.86h4.032c0,3.664,0,7.213,0,10.763,0,.681,0,1.361,0,2.042.1,8.157,3.167,10.472,11.469,8.342v-21.121h4.352v25.027c-4.234.141-8.449.619-12.609.324a7.355,7.355,0,0,1-7.141-7.15C1543.735,1809.105,1544.04,1803.074,1544.04,1796.86Z" transform="translate(-1417.658 -1784.286)"/><path class="f" d="M1400.321,1736.549l4.493-.74v7.815h9.469v3.6h-9.263c0,5.19-.161,10.008.066,14.807.119,2.5,2.011,3.662,4.468,3.522,1.582-.09,3.149-.449,4.947-.722l.887,3.127c-3.578,1.785-7.284,2.508-10.767.595a9.247,9.247,0,0,1-3.685-4.77c-.716-2-.573-4.348-.593-6.546C1400.282,1750.449,1400.321,1743.657,1400.321,1736.549Z" transform="translate(-1292.769 -1731.197)"/></g></g></g></svg>