<svg xmlns="http://www.w3.org/2000/svg" xmlns:xlink="http://www.w3.org/1999/xlink" width="196" height="196" viewBox="0 0 196 196"><defs><style>.a{fill:#152a49;}.b{fill:url(#c);}.c{fill:url(#d);}.d{fill:#eceff1;}.e{fill:#fd7e14;}.f{fill:url(#e);}.g{fill:url(#f);}.h{opacity:0.2;}.i{filter:url(#a);}</style><filter id="a" x="0" y="0" width="196" height="196" filterUnits="userSpaceOnUse"><feOffset dy="3" input="SourceAlpha"/><feGaussianBlur stdDeviation="3" result="b"/><feFlood flood-opacity="0.161"/><feComposite operator="in" in2="b"/><feComposite in="SourceGraphic"/></filter><linearGradient id="c" x1="0.5" y1="-11.453" x2="0.5" y2="-10.453" gradientUnits="objectBoundingBox"><stop offset="0" stop-color="gray" stop-opacity="0.251"/><stop offset="0.54" stop-color="gray" stop-opacity="0.122"/><stop offset="1" stop-color="gray" stop-opacity="0.102"/></linearGradient><linearGradient id="d" x1="1.456" y1="-1.889" x2="1.456" y2="-0.889" xlink:href="#c"/><linearGradient id="e" x1="0.5" y1="1.061" x2="0.5" y2="2.061" xlink:href="#c"/><linearGradient id="f" x1="0.5" y1="0.785" x2="0.5" y2="1.785" xlink:href="#c"/></defs><g transform="translate(-260.5 -4130)"><g transform="translate(264.911 4131.411)"><g class="i" transform="matrix(1, 0, 0, 1, -4.41, -1.41)"><circle class="a" cx="89" cy="89" r="89" transform="translate(9 6)"/></g><path class="b" d="M102.986,128.621H79.011v8.429h2.665v4.213h18.648V137.05h2.662Z" transform="translate(1.352 -3.248)"/><path class="c" d="M90.416,63.314V92.187c2.867.859,4.125,1.741,4.833,3.615a9.105,9.105,0,0,1,.3,5.265A4.207,4.207,0,0,1,92,104.64a8.664,8.664,0,0,1-3.919.137c-3.132-.634-4.778-2.769-4.778-6.306,0-3.387,1.163-5.186,4.36-6.254V86.8l-.137-23.619L64.012,98.138s11.254,9.406,15.369,27.561H98.509s5.758-21.075,15.369-26.264Z" transform="translate(2.742 2.82)"/><path class="d" d="M90.992,64.883v26.78a7.619,7.619,0,1,1-3.808.327V64.883L65.574,97.91a55.692,55.692,0,0,1,15.245,27.946H97.334s6.352-21.6,15.245-26.676Z" transform="translate(2.597 2.661)"/><rect class="d" width="50.814" height="2.541" transform="translate(38.958 53.569)"/><rect class="d" width="50.814" height="2.541" transform="translate(96.121 53.569)"/><rect class="e" width="17.786" height="6.352" transform="translate(83.416 131.059)"/><rect class="f" width="9.683" height="9.683" transform="translate(88.047 49.321)"/><rect class="e" width="8.893" height="8.893" transform="translate(88.498 49.758)"/><ellipse class="g" cx="5.676" cy="5.676" rx="5.676" ry="5.676" transform="translate(30.741 49.164)"/><ellipse class="g" cx="5.676" cy="5.676" rx="5.676" ry="5.676" transform="translate(145.086 49.164)"/><ellipse class="e" cx="5.082" cy="5.082" rx="5.082" ry="5.082" transform="translate(31.335 49.758)"/><ellipse class="e" cx="5.082" cy="5.082" rx="5.082" ry="5.082" transform="translate(145.664 49.758)"/><rect class="e" width="22.868" height="7.623" transform="translate(80.875 125.977)"/><rect class="h" width="22.868" height="7.623" transform="translate(80.875 125.977)"/></g></g></svg>