<svg xmlns="http://www.w3.org/2000/svg" xmlns:xlink="http://www.w3.org/1999/xlink" width="378" height="97" viewBox="0 0 378 97"><defs><filter id="a" x="0" y="0" width="378" height="97" filterUnits="userSpaceOnUse"><feOffset dy="3" input="SourceAlpha"/><feGaussianBlur stdDeviation="3" result="b"/><feFlood flood-opacity="0.161"/><feComposite operator="in" in2="b"/><feComposite in="SourceGraphic"/></filter></defs><g transform="translate(2143 -4382)"><g transform="translate(-3099 -699)"><g transform="translate(-23 47)"><g transform="matrix(1, 0, 0, 1, 979, 5034)" filter="url(#a)"><rect width="360" height="79" rx="20" transform="translate(9 6)" fill="#fff"/></g><g transform="translate(1036.671 5050)"><path d="M40.77,4.172a9.424,9.424,0,0,0,2.155.369A29.542,29.542,0,0,1,64.65,20.1,27.506,27.506,0,0,1,68,36.948C66.474,49.385,59.819,58.093,48.036,62.33A29.7,29.7,0,0,1,10.194,44.474a30.861,30.861,0,0,1-1.714-7.35c-.014-.132.063-.319-.141-.4v-.923a2.263,2.263,0,0,0,0-1.186V33.433a1.714,1.714,0,0,0,0-1.055v-.923a37.32,37.32,0,0,1,.577-4.015A29.452,29.452,0,0,1,13.662,16.8,30.09,30.09,0,0,1,31.354,4.793a30.7,30.7,0,0,1,4.407-.621h.791a2.263,2.263,0,0,0,1.186,0h1.055a1,1,0,0,0,.791,0Z" transform="translate(-8.339 -4.172)" fill="#464342"/><path d="M351.441,49.929c-.245.248-.214.6-.33.9a6.5,6.5,0,0,1-5.228,4.113,7.866,7.866,0,0,1-6.278-1.495c-.439-.314-.637-.225-.828.2a6.55,6.55,0,0,0-.443,1.02c-.091.355-.242.417-.58.436-.517.03-.659-.132-.659-.652.03-2.218,0-4.438.022-6.657,0-.272-.215-.712.374-.717.446,0,.8-.062.908.6a6.248,6.248,0,0,0,5.009,5.352,5.158,5.158,0,0,0,2.922-.113,2.613,2.613,0,0,0,1.073-4.37,7.333,7.333,0,0,0-2.3-1.617c-1.218-.6-2.451-1.174-3.679-1.756a9.22,9.22,0,0,1-2.221-1.4,5.279,5.279,0,0,1-1.977-5.215,5.087,5.087,0,0,1,3.823-3.886,7.267,7.267,0,0,1,6.422.9c.365.244.527.19.679-.165a3,3,0,0,0,.264-.6c.107-.736.649-.546,1.1-.542.225,0,.2.2.2.344q0,3.065.007,6.128c0,.293-.111.427-.381.36-.312-.076-.8.281-.911-.318a7.271,7.271,0,0,0-.826-2.344,4.585,4.585,0,0,0-5.5-2.071,2.344,2.344,0,0,0-1.7,1.836,2.314,2.314,0,0,0,1.047,2.271,11.62,11.62,0,0,0,2.038,1.2c1.082.527,2.157,1.082,3.256,1.574,2.221.993,4.02,2.373,4.706,4.85Z" transform="translate(-87.803 -11.438)" fill="#464342"/><path d="M46.732,4.172a1.185,1.185,0,0,1-1.186,0Z" transform="translate(-17.333 -4.172)" fill="#6b6867"/><path d="M8.344,44.329a1.182,1.182,0,0,1,0,1.186Z" transform="translate(-8.34 -13.879)" fill="#6a6867"/><path d="M8.344,41.373a1.006,1.006,0,0,1,0,1.055Z" transform="translate(-8.34 -13.165)" fill="#737170"/><path d="M49.292,4.172a.593.593,0,0,1-.791,0Z" transform="translate(-18.047 -4.172)" fill="#646261"/><path d="M180.26,46.392a65.472,65.472,0,0,0,5.03,5.2,6.723,6.723,0,0,0,5.375,1.823,2.345,2.345,0,0,0,2.373-2.486,18.816,18.816,0,0,0,.112-1.906c-.016-3.227.132-6.459-.08-9.682-.157-2.307-.815-2.9-3.131-2.971-.469-.014-.585-.148-.581-.6,0-.417.132-.513.527-.51,3.668.02,7.337-.012,11,.038a13.651,13.651,0,0,1,5.368,1.163,8.819,8.819,0,0,1,5.294,9.7c-.581,4.451-3.52,7.262-8.2,8.1a21.857,21.857,0,0,1-3.867.306q-7.972,0-15.95.009a1.187,1.187,0,0,1-1.055-.488c-1.845-2.349-3.715-4.676-5.577-7.01-.109-.132-.219-.275-.333-.407-.264-.3-.625-.191-.923-.142s-.162.364-.162.559c0,1.055-.008,2.109.03,3.164.086,2.386.826,3.129,3.2,3.207.4.013.509.1.527.511.02.513-.158.612-.634.609q-5.141-.032-10.282,0c-.4,0-.647-.007-.637-.536.009-.467.132-.61.593-.58a4.416,4.416,0,0,0,.979-.1,2.134,2.134,0,0,0,2.017-2,9.828,9.828,0,0,0,.15-1.578c.013-3.272,0-6.545.008-9.818a8.084,8.084,0,0,0-.166-1.635,2.1,2.1,0,0,0-1.99-1.876,3.941,3.941,0,0,0-.915-.092c-.568.057-.714-.174-.667-.705.029-.318.123-.4.427-.4,3.624.017,7.25-.021,10.871.05a8.078,8.078,0,0,1,4.528,1.421,4.972,4.972,0,0,1,.282,8.07,6.028,6.028,0,0,1-1.638.964C181.578,45.988,180.967,46.163,180.26,46.392Z" transform="translate(-46.858 -11.686)" fill="#007499"/><path d="M269.448,46.42a54.353,54.353,0,0,0,5.39,5.464,8.172,8.172,0,0,0,2.742,1.388,3.74,3.74,0,0,0,1.947.036,2.06,2.06,0,0,0,1.631-1.544,7.406,7.406,0,0,0,.264-1.952q.012-4.942,0-9.886a6.949,6.949,0,0,0-.208-1.7,2.055,2.055,0,0,0-1.989-1.785,3.883,3.883,0,0,0-.981-.092c-.551.057-.6-.219-.587-.659.009-.343.109-.468.456-.449.438.025.878,0,1.318,0,4.877,0,9.754.009,14.632-.013.527,0,.7.124.721.672.061,1.425.207,2.846.307,4.27.013.182.19.492-.194.5-.29,0-.688.188-.791-.326-.066-.322-.185-.631-.256-.952a2.72,2.72,0,0,0-2.443-2.241,41.972,41.972,0,0,0-5.655-.186c-.283,0-.315.149-.315.374v5.733c0,.285.1.388.384.381a16.214,16.214,0,0,0,2.758-.17,1.845,1.845,0,0,0,1.69-1.878,4.276,4.276,0,0,0,.024-.791c-.042-.456.132-.593.59-.6.5-.008.563.2.56.626q-.024,3.755,0,7.514c0,.424-.1.565-.547.56s-.6-.095-.612-.573c-.047-2.149-.406-2.53-2.534-2.793-.741-.091-1.654-.337-2.178.041-.431.312-.124,1.275-.132,1.947a17.266,17.266,0,0,0,.21,3.479,2.028,2.028,0,0,0,1.99,1.852,19.3,19.3,0,0,0,4.923-.108A2.689,2.689,0,0,0,295,50.4c.08-.319.214-.627.264-.949.074-.494.435-.339.711-.343.4-.008.233.306.223.482-.08,1.512-.2,3.024-.264,4.537-.022.5-.332.419-.631.419H283.831c-3.712,0-7.424-.008-11.136.009a1.168,1.168,0,0,1-1.055-.494c-1.884-2.4-3.8-4.778-5.7-7.163-.121-.153-.216-.336-.415-.406-.58-.2-.9.021-.891.645.012,1.076.013,2.153.058,3.228.1,2.253.873,3.009,3.125,3.075.356.011.6-.007.594.5s-.132.621-.623.617c-3.427-.022-6.854-.014-10.282-.009-.368,0-.659.047-.659-.513,0-.521.178-.635.641-.6a3.643,3.643,0,0,0,.849-.082,2.2,2.2,0,0,0,2.135-2.188,12.92,12.92,0,0,0,.132-1.7c.012-3.14,0-6.281,0-9.422a7.533,7.533,0,0,0-.207-1.827,2.062,2.062,0,0,0-2-1.778,3.878,3.878,0,0,0-.915-.088c-.563.063-.642-.2-.629-.679.011-.364.145-.43.469-.428,3.559.014,7.118-.021,10.677.04a8.248,8.248,0,0,1,4.768,1.49,4.979,4.979,0,0,1,.264,7.953,7.461,7.461,0,0,1-3.12,1.48A.882.882,0,0,0,269.448,46.42Z" transform="translate(-68.409 -11.68)" fill="#464342"/><path d="M109.3,35.553c-.8,2.407-1.551,4.673-2.3,6.938l-3.543,10.665c-.095.283-.107.579-.56.576s-.461-.311-.551-.589l-6.4-19.691a18.681,18.681,0,0,0-.96-2.373,3.965,3.965,0,0,0-3.961-2.292c-.385,0-.651,0-.645-.543.007-.513.132-.659.659-.651,3.865.022,7.731.012,11.6.013.344,0,.7-.095.674.5-.02.478-.088.724-.642.692a4.52,4.52,0,0,0-1.815.25,1.622,1.622,0,0,0-1.214,1.678,5.932,5.932,0,0,0,.356,1.932q1.946,5.967,3.9,11.935c.026.082.071.158.153.34.171-.493.318-.9.456-1.318q2.586-7.7,5.167-15.392c.124-.37.223-.659.738-.638a.7.7,0,0,1,.782.576Q113.43,35.033,115.7,41.9q.482,1.467.969,2.934c.237-.1.22-.326.279-.5q1.922-5.668,3.831-11.336a7.046,7.046,0,0,0,.48-2.307,1.549,1.549,0,0,0-1.211-1.66,5.469,5.469,0,0,0-1.95-.244c-.565.016-.411-.365-.435-.666s0-.527.43-.527q5.009.028,10.018,0c.424,0,.461.2.442.527s.1.692-.451.659a7.62,7.62,0,0,0-1.055.045,3.913,3.913,0,0,0-3.388,2.361,49.086,49.086,0,0,0-2.155,5.932q-2.7,8.041-5.368,16.082c-.078.236-.071.5-.457.535-.461.037-.527-.235-.639-.564q-2.037-6.284-4.086-12.563C110.418,38.962,109.881,37.329,109.3,35.553Z" transform="translate(-28.169 -9.831)" fill="#007499"/><path d="M234.3,27.605a67.466,67.466,0,0,1,6.926.156,8.932,8.932,0,0,1,5.188,2.336,6.674,6.674,0,0,1-2.581,10.984,14.305,14.305,0,0,1-5.294.858q-1.186.012-2.373,0c-.276,0-.448.025-.442.378a41.552,41.552,0,0,0,.264,6.441,2.89,2.89,0,0,0,3.058,2.746,3.474,3.474,0,0,0,.659.045c.552-.065.625.208.638.688.017.605-.362.478-.692.478h-12c-.311,0-.674.112-.635-.453.028-.422-.024-.815.592-.7a.736.736,0,0,0,.132-.011c2.624-.1,3.484-.932,3.761-3.8a63.647,63.647,0,0,0,.117-6.518c-.014-2.833.108-5.668-.105-8.5a9.474,9.474,0,0,0-.224-1.492,2.739,2.739,0,0,0-2.781-2.414,5.62,5.62,0,0,0-.986-.042c-.428.033-.488-.157-.506-.536-.022-.506.112-.659.643-.659C229.721,27.627,231.786,27.605,234.3,27.605Z" transform="translate(-61.198 -9.832)" fill="#464342"/><path d="M146.983,55.092a11.624,11.624,0,0,1-9.168-4.625,9.47,9.47,0,0,1,.493-12.221,12.415,12.415,0,0,1,17.652-.594c4.651,4.569,3.865,11.724-1.7,15.405A12.688,12.688,0,0,1,146.983,55.092Z" transform="translate(-39.153 -11.444)" fill="#007499"/><path d="M313.593,51.077V47.65c0-.256-.132-.631.368-.575.341.038.753-.2.866.465a6.334,6.334,0,0,0,3.438,4.927,5.781,5.781,0,0,0,4.341.494,2.617,2.617,0,0,0,1.136-4.558,9.623,9.623,0,0,0-2.754-1.772c-1.2-.577-2.429-1.119-3.617-1.731a6.387,6.387,0,0,1-3.633-4.187,4.886,4.886,0,0,1,3.038-5.764,7.288,7.288,0,0,1,7.1.579c.485.311.629.156.8-.24a1.886,1.886,0,0,0,.2-.482c.069-.515.382-.583.828-.572.347.009.448.108.446.452-.013,2-.008,4,0,6,0,.236,0,.485-.328.4s-.779.291-.923-.285a9.818,9.818,0,0,0-.62-1.938,4.587,4.587,0,0,0-5.323-2.636,2.4,2.4,0,0,0-2.109,2.592,2.242,2.242,0,0,0,.82,1.45,10.229,10.229,0,0,0,2.41,1.463c1.433.712,2.884,1.388,4.305,2.124a6.267,6.267,0,0,1,3.273,3.617,5.712,5.712,0,0,1-2.54,6.385,7.95,7.95,0,0,1-9.025-.4c-.49-.352-.679-.248-.9.214a4.514,4.514,0,0,0-.428,1.027.405.405,0,0,1-.43.382c-.554.045-.813-.065-.774-.72C313.633,53.277,313.593,52.17,313.593,51.077Z" transform="translate(-82.118 -11.439)" fill="#464342"/><path d="M38.752,5.973A28.565,28.565,0,1,1,10.161,34.467,28.651,28.651,0,0,1,38.752,5.973Z" transform="translate(-8.779 -4.607)" fill="#fefefe"/><path d="M206.535,44.546c0-2.151.009-4.3-.009-6.459,0-.417.09-.579.538-.556,1.226.063,2.457-.065,3.683.109a5.911,5.911,0,0,1,5.366,4.77,12.463,12.463,0,0,1-.021,6.064c-.78,3.088-2.863,4.669-6.3,4.844a8.238,8.238,0,0,1-1.774-.059,1.394,1.394,0,0,1-1.371-1.414,17.822,17.822,0,0,1-.111-1.838C206.521,48.192,206.535,46.376,206.535,44.546Z" transform="translate(-56.245 -12.235)" fill="#fefefe"/><path d="M177.967,41.348V37.994c0-.207-.066-.464.294-.448a17.381,17.381,0,0,1,3.145.125,3.11,3.11,0,0,1,2.3,1.872,4.524,4.524,0,0,1-.065,3.879,3.154,3.154,0,0,1-2.53,1.77,25.374,25.374,0,0,1-2.758.082c-.406.014-.4-.228-.4-.507C177.97,43.627,177.967,42.486,177.967,41.348Z" transform="translate(-49.341 -12.237)" fill="#fefefe"/><path d="M267.1,41.383c0-1.1.016-2.192-.008-3.288-.009-.409.074-.594.527-.562.567.042,1.14.018,1.714.009,3.124-.054,4.218,2.354,3.823,4.72a3.3,3.3,0,0,1-3.26,2.958c-.762.062-1.534.014-2.3.053-.421.021-.519-.149-.511-.536C267.115,43.62,267.1,42.5,267.1,41.383Z" transform="translate(-70.885 -12.236)" fill="#fefefe"/><path d="M238.5,35.395c0-1.493.012-2.987-.008-4.482,0-.4.063-.585.527-.567.964.04,1.932-.007,2.9.024a4.426,4.426,0,0,1,4.606,4.35,7.189,7.189,0,0,1-.1,2.1,4.286,4.286,0,0,1-4.251,3.6c-1.055.03-2.109-.007-3.164.022-.4.012-.527-.091-.517-.506C238.517,38.425,238.5,36.91,238.5,35.395Z" transform="translate(-63.972 -10.499)" fill="#fefefe"/><path d="M156.044,45.123a10.491,10.491,0,0,1-1.1,5.009,6.438,6.438,0,0,1-6.2,3.682,6.273,6.273,0,0,1-6.019-3.725,10.79,10.79,0,0,1-.132-9.414,6.362,6.362,0,0,1,6.491-4.011,6.489,6.489,0,0,1,6.129,4.287A10.111,10.111,0,0,1,156.044,45.123Z" transform="translate(-40.546 -12.025)" fill="#fefefe"/><path d="M34.583,51.12c-.264-.589-9.13-26.987-9.294-27.674L27.9,23.2c.852-.08,1.252-.464,1.21-1.159s-.482-1.012-1.364-.956c-2.564.162-5.126.345-7.7.274-.132,0-.264-.013-.527-.026a25.24,25.24,0,0,1,17-11.146c8.141-1.391,15.34.791,21.75,6.285a4.4,4.4,0,0,0-3.347,1.366,4.966,4.966,0,0,0-.832,5.469,21.779,21.779,0,0,0,1.947,3.575,13.2,13.2,0,0,1,2.2,8.047,26.2,26.2,0,0,1-1.283,5.5c-1.055,3.455-2.085,6.915-3.132,10.387-.277-.1-.246-.361-.308-.544Q49.1,37.158,44.69,24.046c-.186-.551-.037-.659.468-.68.722-.032,1.45-.1,2.164-.179a1.042,1.042,0,0,0,1.055-1.169.982.982,0,0,0-1.186-.937,84.253,84.253,0,0,1-8.556.264c-1.557-.066-3.112-.181-4.669-.264-.9-.045-1.367.3-1.41,1-.042.668.366,1.036,1.24,1.123a3.093,3.093,0,0,0,.783.09c1.362-.2,1.845.539,2.241,1.725.986,2.971,2.122,5.894,3.2,8.832a1.322,1.322,0,0,1,.062.944Q37.4,42.764,34.76,50.75C34.706,50.872,34.641,50.986,34.583,51.12Z" transform="translate(-11.042 -5.527)" fill="#464342"/><path d="M45.98,46.717c1.18,3.231,2.333,6.392,3.487,9.553,1.455,3.99,2.905,7.983,4.379,11.968.132.357.059.435-.264.538a25.63,25.63,0,0,1-14.843.4c-.362-.1-.482-.207-.343-.61Q42.1,57.852,45.778,47.135C45.826,47.015,45.893,46.9,45.98,46.717Z" transform="translate(-15.591 -14.456)" fill="#464342"/><path d="M16.219,30.056c2.4,6.591,4.79,13.132,7.177,19.674q2.362,6.481,4.722,12.964c.062.171.27.385.113.535-.2.191-.409-.047-.583-.145C19.956,58.79,15.39,52.32,14.166,43.568A24.775,24.775,0,0,1,15.88,30.61,1,1,0,0,1,16.219,30.056Z" transform="translate(-9.691 -10.429)" fill="#464342"/><path d="M74.715,28.172a23.972,23.972,0,0,1,2.838,11.771c-.185,9.359-4.264,16.609-12.081,21.763-.146.1-.3.186-.449.273-.03.017-.075,0-.167.009.812-2.354,1.615-4.689,2.424-7.021q3.013-8.692,6.032-17.383a23.3,23.3,0,0,0,1.272-8.737C74.57,28.612,74.37,28.339,74.715,28.172Z" transform="translate(-22 -9.973)" fill="#464342"/><path d="M77.776,28.073c-.2.2-.04.46-.132.676a1.918,1.918,0,0,1-.083-.312c-.024-.215-.029-.432-.043-.676C77.725,27.793,77.743,27.933,77.776,28.073Z" transform="translate(-25.061 -9.874)" fill="#696666"/></g></g></g></g></svg>